<?xml version="1.0" standalone="no"?><!DOCTYPE svg PUBLIC "-//W3C//DTD SVG 1.1//EN" "http://www.w3.org/Graphics/SVG/1.1/DTD/svg11.dtd" ><svg xmlns="http://www.w3.org/2000/svg"><metadata></metadata><defs>
<font id="Inter-Light" >
<font-face font-family="Inter Light" font-stretch="normal" units-per-em="2816" weight="300" panose-1="2,0,5,3,0,0,0,2,0,4" ascent="2728" descent="-680" x-height="1536" underline-thickness="192" underline-position="-464" unicode-range="U+00000032-00129106" bbox="-2037,-900,7274,3017" />
<missing-glyph horiz-adv-x="2748" d="M233 -640L233 -128L2515 -128L2515 -640ZM233 1472L233 1984L2515 1984L2515 1472ZM233 2176L233 2688L2515 2688L2515 2176ZM233 64L233 576L2515 576L2515 64ZM233 768L233 1280L2515 1280L2515 768Z" />
<glyph glyph-name="uni0020" unicode="&#x20;" horiz-adv-x="792" d="" />
<glyph glyph-name="uni0021" unicode="&#x21;" horiz-adv-x="768" d="M485 2048L472 587L296 587L283 2048ZM384 -15Q325 -15 282.5 27.5Q240 70 240 129Q240 189 282.5 231Q325 273 384 273Q443 273 485.5 231Q528 189 528 129Q528 90 508.5 57Q489 24 456.5 4.5Q424 -15 384 -15Z" />
<glyph glyph-name="uni0022" unicode="&#x22;" horiz-adv-x="1077" d="M387 2048L387 1365L219 1365L219 2048ZM856 2048L856 1365L688 1365L688 2048Z" />
<glyph glyph-name="uni0023" unicode="&#x23;" horiz-adv-x="1779" d="M1004 0L1340 2048L1495 2048L1159 0ZM53 591L79 745L1607 745L1581 591ZM284 0L620 2048L775 2048L439 0ZM172 1303L197 1457L1725 1457L1700 1303Z" />
<glyph glyph-name="uni0024" unicode="&#x24;" horiz-adv-x="1772" d="M821 -256L821 2304L952 2304L952 -256ZM1384 1536Q1367 1707 1233 1808Q1099 1909 896 1909Q753 1909 644.5 1860Q536 1811 474.5 1724.5Q413 1638 413 1528Q413 1447 448 1386Q483 1325 542.5 1281.5Q602 1238 674.5 1207Q747 1176 821 1155L1037 1093Q1135 1066 1233 1024Q1331 982 1412.5 918.5Q1494 855 1543.5 763.5Q1593 672 1593 544Q1593 380 1508 249Q1423 118 1264 41.5Q1105 -35 883 -35Q674 -35 520 34.5Q366 104 278 227Q190 350 179 512L371 512Q381 391 451 307Q521 223 633 179.5Q745 136 883 136Q1036 136 1155.5 187.5Q1275 239 1343.5 331.5Q1412 424 1412 547Q1412 651 1358 721.5Q1304 792 1207.5 840Q1111 888 984 925L739 997Q498 1069 365 1196Q232 1323 232 1520Q232 1685 320.5 1810.5Q409 1936 560.5 2006.5Q712 2077 901 2077Q1092 2077 1239 2007Q1386 1937 1472.5 1814.5Q1559 1692 1565 1536Z" />
<glyph glyph-name="uni0025" unicode="&#x25;" horiz-adv-x="2251" d="M1264 380L1264 473Q1264 588 1310 680.5Q1356 773 1441 827Q1526 881 1643 881Q1761 881 1845 827Q1929 773 1974 680.5Q2019 588 2019 473L2019 380Q2019 265 1973.5 173Q1928 81 1844 26.5Q1760 -28 1643 -28Q1524 -28 1439.5 26.5Q1355 81 1309.5 173Q1264 265 1264 380ZM1421 473L1421 380Q1421 267 1476.5 187.5Q1532 108 1643 108Q1751 108 1806 187.5Q1861 267 1861 380L1861 473Q1861 586 1807 665.5Q1753 745 1643 745Q1534 745 1477.5 665.5Q1421 586 1421 473ZM232 1575L232 1668Q232 1783 278 1875Q324 1967 409 2021.5Q494 2076 611 2076Q729 2076 813 2021.5Q897 1967 942 1875Q987 1783 987 1668L987 1575Q987 1460 941.5 1367.5Q896 1275 812 1221Q728 1167 611 1167Q492 1167 407.5 1221Q323 1275 277.5 1367.5Q232 1460 232 1575ZM389 1668L389 1575Q389 1462 444.5 1382.5Q500 1303 611 1303Q719 1303 774 1382.5Q829 1462 829 1575L829 1668Q829 1781 775 1860.5Q721 1940 611 1940Q502 1940 445.5 1860.5Q389 1781 389 1668ZM324 0L1731 2048L1908 2048L501 0Z" />
<glyph glyph-name="uni0026" unicode="&#x26;" horiz-adv-x="1748" d="M783 -28Q594 -28 453 45.5Q312 119 234 246Q156 373 156 533Q156 649 203.5 742.5Q251 836 341 920.5Q431 1005 559 1096L856 1317Q962 1393 1017.5 1466.5Q1073 1540 1073 1647Q1073 1750 995.5 1831.5Q918 1913 795 1913Q709 1913 641.5 1870Q574 1827 534.5 1758.5Q495 1690 495 1615Q495 1545 531 1474.5Q567 1404 628 1326.5Q689 1249 764 1156L1700 0L1484 0L668 1001Q565 1127 485 1226.5Q405 1326 359 1418.5Q313 1511 313 1617Q313 1748 374 1850.5Q435 1953 542.5 2012Q650 2071 789 2071Q931 2071 1035.5 2013Q1140 1955 1197.5 1859Q1255 1763 1255 1647Q1255 1508 1183.5 1401Q1112 1294 976 1191L604 913Q451 798 394 700Q337 602 337 533Q337 425 393 334Q449 243 548.5 188Q648 133 777 132Q905 133 1018 183.5Q1131 234 1220.5 328Q1310 422 1364.5 553Q1419 684 1428 845L1601 843Q1597 678 1556.5 563.5Q1516 449 1464 375Q1412 301 1373 256Q1362 241 1351 226Q1340 211 1328 196Q1228 86 1079.5 29Q931 -28 783 -28Z" />
<glyph glyph-name="uni0027" unicode="&#x27;" horiz-adv-x="608" d="M387 2048L387 1365L219 1365L219 2048Z" />
<glyph glyph-name="uni0028" unicode="&#x28;" horiz-adv-x="976" d="M309 864Q309 1224 400 1544Q491 1864 661 2144L823 2144Q750 2026 689.5 1877Q629 1728 585 1559Q541 1390 517 1213.5Q493 1037 493 864Q493 633 535 398Q577 163 651.5 -48Q726 -259 823 -416L661 -416Q491 -135 400 185Q309 505 309 864Z" />
<glyph glyph-name="uni0029" unicode="&#x29;" horiz-adv-x="976" d="M667 864Q667 504 576 184Q485 -136 315 -416L153 -416Q226 -298 286.5 -149Q347 0 391 169Q435 338 459 515Q483 692 483 864Q483 1095 441 1330Q399 1565 324.5 1776Q250 1987 153 2144L315 2144Q485 1863 576 1543Q667 1223 667 864Z" />
<glyph glyph-name="uni002A" unicode="&#x2a;" horiz-adv-x="1408" d="M629 896L640 1363L241 1119L167 1249L579 1472L167 1695L241 1825L640 1581L629 2048L779 2048L768 1581L1167 1825L1241 1695L829 1472L1241 1249L1167 1119L768 1363L779 896Z" />
<glyph glyph-name="uni002B" unicode="&#x2b;" horiz-adv-x="1835" d="M832 167L832 1433L1003 1433L1003 167ZM284 715L284 885L1551 885L1551 715Z" />
<glyph glyph-name="uni002C" unicode="&#x2c;" horiz-adv-x="766" d="M531 280L513 173Q496 65 465 -65Q434 -195 401 -312Q368 -429 344 -500L207 -500Q220 -432 240.5 -327Q261 -222 283 -94.5Q305 33 323 168L337 280Z" />
<glyph glyph-name="uni002D" unicode="&#x2d;" horiz-adv-x="1276" d="M1064 962L1064 794L212 794L212 962Z" />
<glyph glyph-name="uni002E" unicode="&#x2e;" horiz-adv-x="755" d="M377 -15Q318 -15 275.5 27.5Q233 70 233 129Q233 189 275.5 231Q318 273 377 273Q437 273 479 231Q521 189 521 129Q521 90 501.5 57Q482 24 449.5 4.5Q417 -15 377 -15Z" />
<glyph glyph-name="uni002F" unicode="&#x2f;" horiz-adv-x="973" d="M900 2144L240 -308L73 -308L733 2144Z" />
<glyph glyph-name="uni0030" unicode="&#x30;" horiz-adv-x="1728" d="M864 -28Q648 -28 495.5 96.5Q343 221 261.5 457Q180 693 180 1024Q180 1354 261.5 1589.5Q343 1825 496.5 1950.5Q650 2076 864 2076Q1078 2076 1231.5 1950.5Q1385 1825 1466.5 1589.5Q1548 1354 1548 1024Q1548 693 1466.5 457Q1385 221 1232.5 96.5Q1080 -28 864 -28ZM864 140Q1101 140 1234 371.5Q1367 603 1367 1024Q1367 1304 1306.5 1502.5Q1246 1701 1133.5 1806Q1021 1911 864 1911Q629 1911 495 1677.5Q361 1444 361 1024Q361 744 421.5 546Q482 348 594.5 244Q707 140 864 140Z" />
<glyph glyph-name="uni0031" unicode="&#x31;" horiz-adv-x="1255" d="M860 2048L860 0L673 0L673 1852L661 1852L181 1533L181 1727L665 2048Z" />
<glyph glyph-name="uni0032" unicode="&#x32;" horiz-adv-x="1719" d="M228 0L228 137L897 889Q1028 1037 1108 1142Q1188 1247 1224.5 1336Q1261 1425 1261 1521Q1261 1638 1206.5 1725.5Q1152 1813 1057 1862Q962 1911 843 1911Q717 1911 622.5 1857Q528 1803 476 1709Q424 1615 424 1493L245 1493Q245 1663 323.5 1794.5Q402 1926 538.5 2001Q675 2076 848 2076Q1019 2076 1152 2002.5Q1285 1929 1361 1803Q1437 1677 1437 1521Q1437 1408 1397.5 1302Q1358 1196 1262 1066Q1166 936 996 748L488 181L488 168L1501 168L1501 0Z" />
<glyph glyph-name="uni0033" unicode="&#x33;" horiz-adv-x="1771" d="M893 -28Q704 -28 555 40.5Q406 109 319 231Q232 353 227 512L416 512Q421 400 485 316.5Q549 233 655 186.5Q761 140 891 140Q1033 140 1141.5 193Q1250 246 1311.5 338.5Q1373 431 1373 548Q1373 672 1310 767Q1247 862 1129.5 915Q1012 968 849 968L729 968L729 1136L849 1136Q982 1136 1084.5 1184.5Q1187 1233 1246 1321Q1305 1409 1305 1528Q1305 1641 1254 1727Q1203 1813 1110.5 1862Q1018 1911 895 1911Q776 1911 677 1865Q578 1819 517.5 1735Q457 1651 453 1536L272 1536Q276 1696 360.5 1817.5Q445 1939 585.5 2007.5Q726 2076 897 2076Q1078 2076 1210 2002Q1342 1928 1414.5 1805.5Q1487 1683 1487 1536Q1487 1361 1392 1236.5Q1297 1112 1136 1064L1136 1051Q1332 1012 1444.5 877.5Q1557 743 1557 548Q1557 384 1471 253.5Q1385 123 1235.5 47.5Q1086 -28 893 -28Z" />
<glyph glyph-name="uni0034" unicode="&#x34;" horiz-adv-x="1764" d="M179 440L179 592L1092 2048L1204 2048L1204 1793L1121 1793L388 621L388 608L1585 608L1585 440ZM1135 0L1135 488L1135 558L1135 2048L1313 2048L1313 0Z" />
<glyph glyph-name="uni0035" unicode="&#x35;" horiz-adv-x="1677" d="M827 -28Q656 -28 521.5 41.5Q387 111 307.5 233Q228 355 223 512L404 512Q413 349 532 244.5Q651 140 827 140Q964 140 1071 205.5Q1178 271 1238.5 385.5Q1299 500 1299 644Q1298 794 1234 908.5Q1170 1023 1060.5 1088Q951 1153 815 1153Q712 1154 613 1119Q514 1084 448 1029L261 1053L384 2048L1396 2048L1396 1880L541 1880L459 1195L469 1195Q537 1252 634.5 1288Q732 1324 841 1324Q1022 1324 1166.5 1237Q1311 1150 1395.5 997.5Q1480 845 1480 647Q1480 453 1395.5 300.5Q1311 148 1163.5 60Q1016 -28 827 -28Z" />
<glyph glyph-name="uni0036" unicode="&#x36;" horiz-adv-x="1717" d="M873 -28Q746 -27 625 23.5Q504 74 407 186.5Q310 299 253 484Q196 669 196 939Q196 1189 240 1397Q284 1605 372 1757Q460 1909 592 1992.5Q724 2076 901 2076Q1067 2076 1194 2007.5Q1321 1939 1400 1817Q1479 1695 1499 1536L1315 1536Q1287 1698 1182 1803Q1077 1908 901 1908Q649 1908 511 1674.5Q373 1441 372 1012L385 1012Q434 1103 511.5 1169.5Q589 1236 688 1273.5Q787 1311 896 1311Q1067 1311 1209 1224.5Q1351 1138 1436 987.5Q1521 837 1521 644Q1521 461 1440.5 307Q1360 153 1214.5 62Q1069 -29 873 -28ZM873 140Q1007 140 1112.5 208Q1218 276 1279 390.5Q1340 505 1340 644Q1340 783 1279 896Q1218 1009 1112.5 1076Q1007 1143 873 1143Q771 1143 683 1101.5Q595 1060 530.5 988.5Q466 917 432.5 825Q399 733 407 632Q418 491 480.5 379.5Q543 268 644.5 204Q746 140 873 140Z" />
<glyph glyph-name="uni0037" unicode="&#x37;" horiz-adv-x="1586" d="M287 0L1220 1867L1220 1880L145 1880L145 2048L1416 2048L1416 1872L484 0Z" />
<glyph glyph-name="uni0038" unicode="&#x38;" horiz-adv-x="1723" d="M861 -28Q665 -28 512 46Q359 120 272 248.5Q185 377 185 539Q185 666 238 776.5Q291 887 384 962.5Q477 1038 593 1061L593 1072Q442 1116 350 1245.5Q258 1375 259 1540Q258 1693 337 1814Q416 1935 552.5 2005.5Q689 2076 861 2076Q1032 2076 1168 2005.5Q1304 1935 1383.5 1814Q1463 1693 1464 1540Q1463 1376 1371 1245.5Q1279 1115 1129 1072L1129 1061Q1245 1039 1337 963Q1429 887 1483 776.5Q1537 666 1537 539Q1537 377 1449.5 248.5Q1362 120 1209.5 46Q1057 -28 861 -28ZM861 140Q1007 140 1117.5 192.5Q1228 245 1290.5 337Q1353 429 1353 548Q1353 671 1288 767.5Q1223 864 1112 920.5Q1001 977 861 977Q721 977 609.5 920.5Q498 864 433.5 767.5Q369 671 369 548Q369 429 430.5 337Q492 245 603.5 192.5Q715 140 861 140ZM861 1137Q981 1137 1076 1188Q1171 1239 1226.5 1327.5Q1282 1416 1283 1529Q1282 1641 1227 1727.5Q1172 1814 1077.5 1862.5Q983 1911 861 1911Q739 1911 643.5 1862.5Q548 1814 493.5 1727.5Q439 1641 440 1529Q439 1416 494.5 1327.5Q550 1239 645.5 1188Q741 1137 861 1137Z" />
<glyph glyph-name="uni0039" unicode="&#x39;" horiz-adv-x="1717" d="M844 2076Q972 2075 1092.5 2024.5Q1213 1974 1310 1862.5Q1407 1751 1464 1566.5Q1521 1382 1521 1113Q1521 862 1477 653Q1433 444 1345.5 291.5Q1258 139 1125.5 55.5Q993 -28 816 -28Q651 -28 523.5 41Q396 110 317 232.5Q238 355 219 516L403 516Q430 352 535.5 246Q641 140 816 140Q1067 140 1206 374Q1345 608 1345 1040L1332 1040Q1284 950 1206.5 883Q1129 816 1030 778.5Q931 741 821 741Q650 741 508 827.5Q366 914 281 1064.5Q196 1215 196 1408Q196 1590 276.5 1742.5Q357 1895 502.5 1986.5Q648 2078 844 2076ZM844 1908Q711 1908 605.5 1840.5Q500 1773 438.5 1659.5Q377 1546 377 1408Q377 1269 438.5 1155.5Q500 1042 605.5 975.5Q711 909 844 909Q946 909 1034 950.5Q1122 992 1186.5 1064Q1251 1136 1284.5 1227.5Q1318 1319 1311 1420Q1299 1560 1236.5 1670.5Q1174 1781 1072.5 1844.5Q971 1908 844 1908Z" />
<glyph glyph-name="uni003A" unicode="&#x3a;" horiz-adv-x="755" d="M377 39Q318 39 275.5 81Q233 123 233 183Q233 242 275.5 284.5Q318 327 377 327Q437 327 479 284.5Q521 242 521 183Q521 143 501.5 110.5Q482 78 449.5 58.5Q417 39 377 39ZM377 1147Q318 1147 275.5 1189Q233 1231 233 1291Q233 1350 275.5 1392.5Q318 1435 377 1435Q437 1435 479 1392.5Q521 1350 521 1291Q521 1251 501.5 1218.5Q482 1186 449.5 1166.5Q417 1147 377 1147Z" />
<glyph glyph-name="uni003B" unicode="&#x3b;" horiz-adv-x="768" d="M531 280L513 173Q496 65 465 -65Q434 -195 401 -312Q368 -429 344 -500L207 -500Q220 -432 240.5 -327Q261 -222 283 -94.5Q305 33 323 168L337 280ZM413 1147Q354 1147 311.5 1189Q269 1231 269 1291Q269 1350 311.5 1392.5Q354 1435 413 1435Q473 1435 515 1392.5Q557 1350 557 1291Q557 1251 537.5 1218.5Q518 1186 485.5 1166.5Q453 1147 413 1147Z" />
<glyph glyph-name="uni003C" unicode="&#x3c;" horiz-adv-x="1835" d="M305 736L305 864L1529 1539L1529 1343L525 801L535 819L535 781L525 799L1529 257L1529 61Z" />
<glyph glyph-name="uni003D" unicode="&#x3d;" horiz-adv-x="1835" d="M348 1004L348 1169L1487 1169L1487 1004ZM348 431L348 596L1487 596L1487 431Z" />
<glyph glyph-name="uni003E" unicode="&#x3e;" horiz-adv-x="1835" d="M1529 736L305 61L305 257L1309 799L1300 781L1300 819L1309 801L305 1343L305 1539L1529 864Z" />
<glyph glyph-name="uni003F" unicode="&#x3f;" horiz-adv-x="1401" d="M544 587L544 641Q545 799 579 898Q613 997 679.5 1065.5Q746 1134 845 1197Q919 1245 969.5 1298.5Q1020 1352 1046.5 1416.5Q1073 1481 1073 1557Q1073 1665 1022.5 1746Q972 1827 886 1871.5Q800 1916 695 1916Q595 1916 508.5 1872.5Q422 1829 367.5 1744.5Q313 1660 308 1536L119 1536Q124 1701 201 1822Q278 1943 407 2009.5Q536 2076 695 2076Q861 2076 987 2007.5Q1113 1939 1184 1820.5Q1255 1702 1255 1549Q1255 1448 1223 1365Q1191 1282 1127.5 1212Q1064 1142 969 1080Q879 1020 826 961Q773 902 750 826.5Q727 751 725 641L725 587ZM640 -15Q581 -15 538.5 27.5Q496 70 496 129Q496 189 538.5 231Q581 273 640 273Q699 273 741.5 231Q784 189 784 129Q784 90 764.5 57Q745 24 712.5 4.5Q680 -15 640 -15Z" />
<glyph glyph-name="uni0040" unicode="&#x40;" horiz-adv-x="2636" d="M1371 -541Q1085 -541 857 -453Q629 -365 468.5 -199.5Q308 -34 222.5 199Q137 432 137 720Q137 1002 223.5 1232Q310 1462 470.5 1627Q631 1792 854.5 1881.5Q1078 1971 1352 1971Q1620 1971 1832 1877.5Q2044 1784 2193 1623Q2342 1462 2420.5 1256.5Q2499 1051 2499 827Q2499 685 2477.5 547Q2456 409 2404 297Q2352 185 2260 118.5Q2168 52 2027 52Q1953 52 1881.5 76.5Q1810 101 1759.5 157.5Q1709 214 1701 309L1691 309Q1659 237 1601 177.5Q1543 118 1458.5 83Q1374 48 1263 51Q1137 54 1036.5 107Q936 160 865.5 252Q795 344 758 465.5Q721 587 721 728Q721 864 762.5 979Q804 1094 877.5 1180Q951 1266 1050 1317Q1149 1368 1263 1376Q1365 1383 1451 1356.5Q1537 1330 1597 1280Q1657 1230 1683 1167L1693 1167L1693 1348L1856 1348L1856 421Q1856 316 1897.5 257.5Q1939 199 2029 199Q2138 199 2206.5 270.5Q2275 342 2307 482.5Q2339 623 2339 829Q2339 985 2295.5 1131.5Q2252 1278 2169 1403.5Q2086 1529 1965 1623.5Q1844 1718 1688.5 1771Q1533 1824 1344 1824Q1110 1824 919 1745Q728 1666 590.5 1519Q453 1372 379 1168.5Q305 965 305 715Q305 462 379 258Q453 54 592.5 -91Q732 -236 930 -314Q1128 -392 1376 -392Q1486 -392 1592.5 -370.5Q1699 -349 1786.5 -318Q1874 -287 1928 -257L1979 -397Q1905 -437 1803.5 -470Q1702 -503 1589.5 -522Q1477 -541 1371 -541ZM1284 208Q1420 208 1513 271Q1606 334 1653.5 452Q1701 570 1701 736Q1701 903 1650.5 1011Q1600 1119 1507.5 1171.5Q1415 1224 1289 1224Q1167 1224 1075.5 1157.5Q984 1091 932.5 980Q881 869 881 736Q881 595 926.5 475Q972 355 1061.5 281.5Q1151 208 1284 208Z" />
<glyph glyph-name="uni0041" unicode="&#x41;" horiz-adv-x="1848" d="M275 0L79 0L824 2048L1024 2048L1769 0L1573 0L931 1805L917 1805ZM416 785L1432 785L1432 617L416 617Z" />
<glyph glyph-name="uni0042" unicode="&#x42;" horiz-adv-x="1823" d="M272 0L272 2048L963 2048Q1163 2048 1296.5 1978Q1430 1908 1497 1787Q1564 1666 1564 1512Q1564 1384 1521 1293Q1478 1202 1404 1146Q1330 1090 1239 1065L1239 1049Q1338 1042 1431 979.5Q1524 917 1584 805Q1644 693 1644 537Q1644 382 1575 260.5Q1506 139 1363.5 69.5Q1221 0 1001 0ZM459 168L1001 168Q1238 168 1351.5 273Q1465 378 1465 537Q1465 654 1408.5 749.5Q1352 845 1249.5 901Q1147 957 1009 957L459 957ZM459 1123L980 1123Q1101 1123 1192 1173Q1283 1223 1334 1311Q1385 1399 1385 1512Q1385 1675 1279 1777.5Q1173 1880 963 1880L459 1880Z" />
<glyph glyph-name="uni0043" unicode="&#x43;" horiz-adv-x="2044" d="M1876 1408L1688 1408Q1667 1513 1612.5 1602.5Q1558 1692 1476 1759Q1394 1826 1290 1863Q1186 1900 1065 1900Q871 1900 711.5 1799Q552 1698 456.5 1502.5Q361 1307 361 1024Q361 739 456.5 544Q552 349 711.5 248.5Q871 148 1065 148Q1186 148 1290 185Q1394 222 1476 288.5Q1558 355 1612.5 445Q1667 535 1688 640L1876 640Q1851 499 1782.5 377.5Q1714 256 1608.5 165Q1503 74 1366 23Q1229 -28 1065 -28Q807 -28 607 101.5Q407 231 293.5 467Q180 703 180 1024Q180 1345 293.5 1581Q407 1817 607 1946.5Q807 2076 1065 2076Q1229 2076 1366 2025.5Q1503 1975 1608.5 1883.5Q1714 1792 1782.5 1671Q1851 1550 1876 1408Z" />
<glyph glyph-name="uni0044" unicode="&#x44;" horiz-adv-x="2020" d="M872 0L272 0L272 2048L908 2048Q1201 2048 1409.5 1926Q1618 1804 1729 1576Q1840 1348 1840 1029Q1840 707 1726.5 476.5Q1613 246 1396.5 123Q1180 0 872 0ZM459 168L861 168Q1125 168 1303 272Q1481 376 1570 569Q1659 762 1659 1029Q1658 1294 1571.5 1485Q1485 1676 1315.5 1778Q1146 1880 897 1880L459 1880Z" />
<glyph glyph-name="uni0045" unicode="&#x45;" horiz-adv-x="1671" d="M272 0L272 2048L1460 2048L1460 1880L459 1880L459 1109L1397 1109L1397 941L459 941L459 168L1480 168L1480 0Z" />
<glyph glyph-name="uni0046" unicode="&#x46;" horiz-adv-x="1651" d="M272 0L272 2048L1457 2048L1457 1880L459 1880L459 1109L1364 1109L1364 941L459 941L459 0Z" />
<glyph glyph-name="uni0047" unicode="&#x47;" horiz-adv-x="2088" d="M1689 1408Q1661 1510 1607 1599.5Q1553 1689 1473.5 1756.5Q1394 1824 1290.5 1862Q1187 1900 1060 1900Q860 1900 702 1796Q544 1692 452.5 1496Q361 1300 361 1024Q361 749 453 553Q545 357 705.5 252.5Q866 148 1073 148Q1262 148 1407 232Q1552 316 1633.5 472Q1715 628 1713 843L1773 824L1117 824L1117 992L1895 992L1895 824Q1895 562 1789 371Q1683 180 1498 76Q1313 -28 1073 -28Q805 -28 604 101.5Q403 231 291.5 467.5Q180 704 180 1024Q180 1265 244 1459Q308 1653 425.5 1791Q543 1929 704 2002.5Q865 2076 1060 2076Q1228 2076 1367.5 2023Q1507 1970 1613.5 1877.5Q1720 1785 1788.5 1664.5Q1857 1544 1881 1408Z" />
<glyph glyph-name="uni0048" unicode="&#x48;" horiz-adv-x="2080" d="M272 0L272 2048L459 2048L459 1109L1621 1109L1621 2048L1808 2048L1808 0L1621 0L1621 941L459 941L459 0Z" />
<glyph glyph-name="uni0049" unicode="&#x49;" horiz-adv-x="731" d="M459 2048L459 0L272 0L272 2048Z" />
<glyph glyph-name="uni004A" unicode="&#x4a;" horiz-adv-x="1507" d="M1048 2048L1235 2048L1235 571Q1234 371 1163 237.5Q1092 104 967 38Q842 -28 680 -28Q521 -28 396 31Q271 90 199.5 197Q128 304 128 448L312 448Q312 357 360 287.5Q408 218 491.5 179Q575 140 680 140Q789 140 871.5 186Q954 232 1001 327.5Q1048 423 1048 571Z" />
<glyph glyph-name="uni004B" unicode="&#x4b;" horiz-adv-x="1803" d="M272 0L272 2048L459 2048L459 945L477 945L1477 2048L1723 2048L848 1101L1719 0L1491 0L732 971L459 665L459 0Z" />
<glyph glyph-name="uni004C" unicode="&#x4c;" horiz-adv-x="1584" d="M272 0L272 2048L459 2048L459 168L1435 168L1435 0Z" />
<glyph glyph-name="uni004D" unicode="&#x4d;" horiz-adv-x="2480" d="M272 2048L488 2048L1231 264L1249 264L1992 2048L2208 2048L2208 0L2032 0L2032 1653L2016 1653L1325 0L1155 0L464 1653L448 1653L448 0L272 0Z" />
<glyph glyph-name="uni004E" unicode="&#x4e;" horiz-adv-x="2139" d="M1867 2048L1867 0L1685 0L475 1715L459 1715L459 0L272 0L272 2048L453 2048L1667 331L1683 331L1683 2048Z" />
<glyph glyph-name="uni004F" unicode="&#x4f;" horiz-adv-x="2131" d="M1951 1024Q1951 704 1837 467.5Q1723 231 1523.5 101.5Q1324 -28 1065 -28Q806 -28 606.5 101.5Q407 231 293.5 467.5Q180 704 180 1024Q180 1344 293.5 1580.5Q407 1817 607 1946.5Q807 2076 1065 2076Q1324 2076 1523.5 1946.5Q1723 1817 1837 1580.5Q1951 1344 1951 1024ZM1769 1024Q1769 1299 1677 1495.5Q1585 1692 1426 1796Q1267 1900 1065 1900Q864 1900 705 1796Q546 1692 453.5 1496Q361 1300 361 1024Q361 749 453 553Q545 357 704 252.5Q863 148 1065 148Q1267 148 1426.5 252Q1586 356 1678 552.5Q1770 749 1769 1024Z" />
<glyph glyph-name="uni0050" unicode="&#x50;" horiz-adv-x="1761" d="M272 0L272 2048L933 2048Q1151 2048 1297.5 1964.5Q1444 1881 1518.5 1738Q1593 1595 1593 1416Q1593 1237 1519 1093.5Q1445 950 1299 866.5Q1153 783 936 783L416 783L416 951L931 951Q1092 951 1198 1011.5Q1304 1072 1356.5 1177Q1409 1282 1409 1416Q1409 1550 1356.5 1655Q1304 1760 1197.5 1820Q1091 1880 928 1880L459 1880L459 0Z" />
<glyph glyph-name="uni0051" unicode="&#x51;" horiz-adv-x="2131" d="M1039 640L1247 640L1509 293L1553 235L1875 -192L1667 -192L1431 123L1389 179ZM1951 1024Q1951 704 1837 467.5Q1723 231 1523.5 101.5Q1324 -28 1065 -28Q806 -28 606.5 101.5Q407 231 293.5 467.5Q180 704 180 1024Q180 1344 293.5 1580.5Q407 1817 607 1946.5Q807 2076 1065 2076Q1324 2076 1523.5 1946.5Q1723 1817 1837 1580.5Q1951 1344 1951 1024ZM1769 1024Q1769 1299 1677 1495.5Q1585 1692 1426 1796Q1267 1900 1065 1900Q864 1900 705 1796Q546 1692 453.5 1496Q361 1300 361 1024Q361 749 453 553Q545 357 704 252.5Q863 148 1065 148Q1267 148 1426.5 252Q1586 356 1678 552.5Q1770 749 1769 1024Z" />
<glyph glyph-name="uni0052" unicode="&#x52;" horiz-adv-x="1777" d="M272 0L272 2048L933 2048Q1151 2048 1297.5 1969.5Q1444 1891 1518.5 1752.5Q1593 1614 1593 1435Q1593 1256 1518.5 1119Q1444 982 1298 905Q1152 828 936 828L373 828L373 999L931 999Q1091 999 1197.5 1052Q1304 1105 1356.5 1203Q1409 1301 1409 1435Q1409 1569 1356 1669.5Q1303 1770 1196.5 1825Q1090 1880 928 1880L459 1880L459 0ZM1175 924L1679 0L1463 0L964 924Z" />
<glyph glyph-name="uni0053" unicode="&#x53;" horiz-adv-x="1772" d="M1384 1536Q1367 1707 1233 1808Q1099 1909 896 1909Q753 1909 644.5 1860Q536 1811 474.5 1724.5Q413 1638 413 1528Q413 1447 448 1386Q483 1325 542.5 1281.5Q602 1238 674.5 1207Q747 1176 821 1155L1037 1093Q1135 1066 1233 1024Q1331 982 1412.5 918.5Q1494 855 1543.5 763.5Q1593 672 1593 544Q1593 380 1508 249Q1423 118 1264 41.5Q1105 -35 883 -35Q674 -35 520 34.5Q366 104 278 227Q190 350 179 512L371 512Q381 391 451 307Q521 223 633 179.5Q745 136 883 136Q1036 136 1155.5 187.5Q1275 239 1343.5 331.5Q1412 424 1412 547Q1412 651 1358 721.5Q1304 792 1207.5 840Q1111 888 984 925L739 997Q498 1069 365 1196Q232 1323 232 1520Q232 1685 320.5 1810.5Q409 1936 560.5 2006.5Q712 2077 901 2077Q1092 2077 1239 2007Q1386 1937 1472.5 1814.5Q1559 1692 1565 1536Z" />
<glyph glyph-name="uni0054" unicode="&#x54;" horiz-adv-x="1781" d="M148 1880L148 2048L1633 2048L1633 1880L984 1880L984 0L797 0L797 1880Z" />
<glyph glyph-name="uni0055" unicode="&#x55;" horiz-adv-x="2096" d="M1637 2048L1824 2048L1824 692Q1824 483 1726 318.5Q1628 154 1453.5 59.5Q1279 -35 1048 -35Q818 -35 643 60Q468 155 370 319Q272 483 272 692L272 2048L459 2048L459 705Q459 542 532 414.5Q605 287 737.5 214Q870 141 1048 141Q1226 141 1359 214Q1492 287 1564.5 414.5Q1637 542 1637 705Z" />
<glyph glyph-name="uni0056" unicode="&#x56;" horiz-adv-x="1848" d="M275 2048L915 243L933 243L1573 2048L1769 2048L1024 0L824 0L79 2048Z" />
<glyph glyph-name="uni0057" unicode="&#x57;" horiz-adv-x="2619" d="M628 0L67 2048L257 2048L721 287L737 287L1201 2048L1417 2048L1881 287L1897 287L2361 2048L2552 2048L1991 0L1791 0L1316 1737L1303 1737L828 0Z" />
<glyph glyph-name="uni0058" unicode="&#x58;" horiz-adv-x="1755" d="M304 2048L871 1159L884 1159L1451 2048L1672 2048L1013 1024L1672 0L1451 0L884 879L871 879L304 0L83 0L752 1024L83 2048Z" />
<glyph glyph-name="uni0059" unicode="&#x59;" horiz-adv-x="1824" d="M80 2048L296 2048L903 1076L921 1076L1528 2048L1744 2048L1005 887L1005 0L819 0L819 887Z" />
<glyph glyph-name="uni005A" unicode="&#x5a;" horiz-adv-x="1741" d="M191 0L191 141L1328 1880L185 1880L185 2048L1551 2048L1551 1907L413 168L1561 168L1561 0Z" />
<glyph glyph-name="uni005B" unicode="&#x5b;" horiz-adv-x="976" d="M339 -416L339 2144L851 2144L851 1992L509 1992L509 -264L851 -264L851 -416Z" />
<glyph glyph-name="uni005C" unicode="&#x5c;" horiz-adv-x="973" d="M733 -308L73 2144L239 2144L899 -308Z" />
<glyph glyph-name="uni005D" unicode="&#x5d;" horiz-adv-x="976" d="M637 2144L637 -416L125 -416L125 -264L467 -264L467 1992L125 1992L125 2144Z" />
<glyph glyph-name="uni005E" unicode="&#x5e;" horiz-adv-x="1256" d="M597 1896L659 1896L659 1808L597 1808ZM119 1120L529 1984L727 1984L1137 1120L956 1120L615 1848L641 1848L303 1120Z" />
<glyph glyph-name="uni005F" unicode="&#x5f;" horiz-adv-x="1249" d="M1253 0L1253 -168L-5 -168L-5 0Z" />
<glyph glyph-name="uni0060" unicode="&#x60;" horiz-adv-x="1400" d="M769 1749L462 2203L673 2203L929 1749Z" />
<glyph glyph-name="uni0061" unicode="&#x61;" horiz-adv-x="1567" d="M664 -35Q525 -35 410 19.5Q295 74 227 177.5Q159 281 159 429Q159 543 202 621Q245 699 324 749Q403 799 511 828Q619 857 749 873Q878 889 967.5 901Q1057 913 1104 939Q1151 965 1151 1023L1151 1059Q1151 1216 1057.5 1306.5Q964 1397 789 1397Q623 1397 518.5 1324Q414 1251 372 1152L203 1213Q255 1339 347 1414.5Q439 1490 553 1523.5Q667 1557 784 1557Q872 1557 967.5 1534Q1063 1511 1145 1454.5Q1227 1398 1278 1297.5Q1329 1197 1329 1043L1329 0L1151 0L1151 243L1140 243Q1108 175 1045 111Q982 47 887 6Q792 -35 664 -35ZM688 128Q830 128 934 191Q1038 254 1094.5 358.5Q1151 463 1151 589L1151 811Q1131 792 1084.5 777Q1038 762 977.5 750.5Q917 739 857 731Q797 723 749 717Q619 701 527 667Q435 633 386 573.5Q337 514 337 421Q337 281 437 204.5Q537 128 688 128Z" />
<glyph glyph-name="uni0062" unicode="&#x62;" horiz-adv-x="1727" d="M272 0L272 2048L451 2048L451 1243L467 1243Q497 1312 553.5 1385Q610 1458 702.5 1507.5Q795 1557 936 1557Q1125 1557 1268 1457.5Q1411 1358 1491 1179.5Q1571 1001 1571 764Q1571 526 1491.5 347Q1412 168 1269.5 68Q1127 -32 939 -32Q799 -32 705.5 18Q612 68 555 141.5Q498 215 467 285L445 285L445 0ZM448 767Q448 581 503.5 437.5Q559 294 663.5 212.5Q768 131 917 131Q1070 131 1176 215.5Q1282 300 1337 444Q1392 588 1392 767Q1392 944 1337.5 1086Q1283 1228 1177 1311.5Q1071 1395 917 1395Q767 1395 662.5 1314.5Q558 1234 503 1092.5Q448 951 448 767Z" />
<glyph glyph-name="uni0063" unicode="&#x63;" horiz-adv-x="1567" d="M835 -32Q629 -32 476.5 71Q324 174 240 353Q156 532 156 761Q156 992 241.5 1172Q327 1352 479 1454.5Q631 1557 832 1557Q986 1557 1111 1497.5Q1236 1438 1317.5 1330.5Q1399 1223 1420 1080L1240 1080Q1212 1210 1105.5 1302.5Q999 1395 835 1395Q688 1395 575 1315.5Q462 1236 398.5 1094.5Q335 953 335 767Q335 580 397 436.5Q459 293 571.5 212Q684 131 835 131Q937 131 1021.5 169.5Q1106 208 1163.5 279Q1221 350 1241 448L1421 448Q1401 309 1322.5 200.5Q1244 92 1119.5 30Q995 -32 835 -32Z" />
<glyph glyph-name="uni0064" unicode="&#x64;" horiz-adv-x="1727" d="M788 -32Q599 -32 457 68Q315 168 235.5 347Q156 526 156 764Q156 1001 235.5 1179.5Q315 1358 458 1457.5Q601 1557 791 1557Q931 1557 1024 1507.5Q1117 1458 1173 1385Q1229 1312 1260 1243L1276 1243L1276 2048L1455 2048L1455 0L1281 0L1281 285L1260 285Q1229 215 1172 141.5Q1115 68 1021.5 18Q928 -32 788 -32ZM809 131Q958 131 1063 212.5Q1168 294 1223.5 437.5Q1279 581 1279 767Q1279 951 1224 1092.5Q1169 1234 1064 1314.5Q959 1395 809 1395Q655 1395 549.5 1311.5Q444 1228 389.5 1086Q335 944 335 767Q335 588 390 444Q445 300 550.5 215.5Q656 131 809 131Z" />
<glyph glyph-name="uni0065" unicode="&#x65;" horiz-adv-x="1635" d="M856 -32Q641 -32 484 68.5Q327 169 241.5 347.5Q156 526 156 759Q156 991 241.5 1171.5Q327 1352 478.5 1454.5Q630 1557 829 1557Q954 1557 1070 1511.5Q1186 1466 1278.5 1372.5Q1371 1279 1425 1137.5Q1479 996 1479 803L1479 715L279 715L279 872L1297 872Q1297 1020 1237.5 1138.5Q1178 1257 1072.5 1326Q967 1395 829 1395Q683 1395 572 1317Q461 1239 398.5 1111Q336 983 335 831L335 737Q335 554 398.5 417.5Q462 281 579 206Q696 131 856 131Q965 131 1047.5 165Q1130 199 1186.5 256.5Q1243 314 1272 383L1441 328Q1406 231 1326.5 149Q1247 67 1128.5 17.5Q1010 -32 856 -32Z" />
<glyph glyph-name="uni0066" unicode="&#x66;" horiz-adv-x="988" d="M867 1536L867 1381L112 1381L112 1536ZM348 0L348 1761Q348 1885 405.5 1970Q463 2055 556 2099Q649 2143 753 2143Q823 2143 869.5 2131.5Q916 2120 943 2109L891 1953Q871 1959 842 1967Q813 1975 769 1975Q653 1975 590 1910Q527 1845 527 1724L526 0Z" />
<glyph glyph-name="uni0067" unicode="&#x67;" horiz-adv-x="1692" d="M821 -608Q664 -608 546 -567.5Q428 -527 347 -457Q266 -387 221 -300L367 -204Q400 -262 455.5 -318Q511 -374 600.5 -411Q690 -448 821 -448Q1025 -448 1150.5 -346Q1276 -244 1276 -29L1276 317L1260 317Q1229 247 1171 177.5Q1113 108 1019.5 62Q926 16 788 16Q604 16 461.5 107Q319 198 237.5 367.5Q156 537 156 772Q156 1005 235.5 1182Q315 1359 458 1458Q601 1557 791 1557Q932 1557 1025 1507.5Q1118 1458 1174.5 1385Q1231 1312 1263 1243L1281 1243L1281 1536L1455 1536L1455 -40Q1455 -235 1372 -361Q1289 -487 1146 -547.5Q1003 -608 821 -608ZM809 179Q957 179 1062 250.5Q1167 322 1223 456Q1279 590 1279 775Q1279 955 1224 1094.5Q1169 1234 1064.5 1314.5Q960 1395 809 1395Q655 1395 549 1312Q443 1229 389 1088.5Q335 948 335 775Q335 599 390 464.5Q445 330 551 254.5Q657 179 809 179Z" />
<glyph glyph-name="uni0068" unicode="&#x68;" horiz-adv-x="1643" d="M413 960L413 0L235 0L235 2048L413 2048L413 1295L429 1295Q483 1414 596.5 1485Q710 1556 884 1556Q1040 1556 1158 1492Q1276 1428 1342 1303Q1408 1178 1408 995L1408 0L1229 0L1229 984Q1229 1174 1123.5 1283.5Q1018 1393 839 1393Q716 1393 620 1341Q524 1289 468.5 1191.5Q413 1094 413 960Z" />
<glyph glyph-name="uni0069" unicode="&#x69;" horiz-adv-x="653" d="M237 0L237 1536L416 1536L416 0ZM328 1800Q273 1800 234 1837.5Q195 1875 195 1928Q195 1981 234 2018.5Q273 2056 328 2056Q383 2056 422 2018.5Q461 1981 461 1928Q461 1875 422 1837.5Q383 1800 328 1800Z" />
<glyph glyph-name="uni006A" unicode="&#x6a;" horiz-adv-x="653" d="M237 1536L416 1536L416 -149Q416 -280 367.5 -375.5Q319 -471 227 -523.5Q135 -576 5 -576Q-5 -576 -15 -576Q-25 -576 -37 -575L-35 -408Q-25 -408 -16 -408Q-7 -408 3 -408Q113 -408 175 -340Q237 -272 237 -149ZM325 1800Q271 1800 231.5 1837.5Q192 1875 192 1928Q192 1981 231.5 2018.5Q271 2056 325 2056Q380 2056 419.5 2018.5Q459 1981 459 1928Q459 1875 419.5 1837.5Q380 1800 325 1800Z" />
<glyph glyph-name="uni006B" unicode="&#x6b;" horiz-adv-x="1479" d="M397 580L395 813L435 813L1155 1536L1380 1536L669 824L653 821ZM235 0L235 2048L413 2048L413 0ZM1192 0L568 789L696 912L1420 0Z" />
<glyph glyph-name="uni006C" unicode="&#x6c;" horiz-adv-x="648" d="M413 2048L413 0L235 0L235 2048Z" />
<glyph glyph-name="uni006D" unicode="&#x6d;" horiz-adv-x="2416" d="M235 0L235 1536L408 1536L408 1300L424 1300Q470 1419 577.5 1487.5Q685 1556 836 1556Q995 1556 1097.5 1481.5Q1200 1407 1251 1277L1264 1277Q1316 1405 1433.5 1480.5Q1551 1556 1719 1556Q1933 1556 2057 1421.5Q2181 1287 2181 1029L2181 0L2003 0L2003 1029Q2003 1211 1910 1302Q1817 1393 1665 1393Q1489 1393 1394 1285Q1299 1177 1299 1011L1299 0L1117 0L1117 1045Q1117 1201 1030 1297Q943 1393 785 1393Q679 1393 594.5 1341Q510 1289 461.5 1196.5Q413 1104 413 984L413 0Z" />
<glyph glyph-name="uni006E" unicode="&#x6e;" horiz-adv-x="1632" d="M413 960L413 0L235 0L235 1536L408 1536L408 1295L424 1295Q478 1413 592.5 1484.5Q707 1556 876 1556Q1031 1556 1148.5 1491.5Q1266 1427 1331.5 1302Q1397 1177 1397 995L1397 0L1219 0L1219 984Q1219 1173 1113.5 1283Q1008 1393 831 1393Q710 1393 616 1341Q522 1289 467.5 1191.5Q413 1094 413 960Z" />
<glyph glyph-name="uni006F" unicode="&#x6f;" horiz-adv-x="1664" d="M832 -32Q633 -32 480.5 69Q328 170 242 348.5Q156 527 156 761Q156 997 242 1176.5Q328 1356 480.5 1456.5Q633 1557 832 1557Q1031 1557 1183 1456Q1335 1355 1421.5 1176Q1508 997 1508 761Q1508 527 1422 348.5Q1336 170 1183.5 69Q1031 -32 832 -32ZM832 131Q992 131 1103 217Q1214 303 1271.5 446Q1329 589 1329 761Q1329 933 1271.5 1077Q1214 1221 1103 1308Q992 1395 832 1395Q673 1395 561.5 1308Q450 1221 392.5 1077Q335 933 335 761Q335 589 392.5 446Q450 303 561 217Q672 131 832 131Z" />
<glyph glyph-name="uni0070" unicode="&#x70;" horiz-adv-x="1689" d="M235 -576L235 1536L408 1536L408 1243L429 1243Q461 1312 517 1384.5Q573 1457 665.5 1507Q758 1557 899 1557Q1089 1557 1231.5 1457.5Q1374 1358 1453.5 1179.5Q1533 1001 1533 764Q1533 526 1453.5 347Q1374 168 1231.5 68Q1089 -32 901 -32Q762 -32 668.5 18Q575 68 517.5 141.5Q460 215 429 285L413 285L413 -576ZM411 767Q411 581 466.5 437.5Q522 294 626.5 212.5Q731 131 880 131Q1033 131 1138.5 215.5Q1244 300 1299.5 444Q1355 588 1355 767Q1355 944 1300.5 1086Q1246 1228 1140 1311.5Q1034 1395 880 1395Q730 1395 625 1314.5Q520 1234 465.5 1092.5Q411 951 411 767Z" />
<glyph glyph-name="uni0071" unicode="&#x71;" horiz-adv-x="1689" d="M1276 -576L1276 285L1260 285Q1229 215 1172 141.5Q1115 68 1021 18Q927 -32 788 -32Q600 -32 457.5 68Q315 168 235.5 347Q156 526 156 764Q156 1001 235.5 1179.5Q315 1358 458 1457.5Q601 1557 791 1557Q932 1557 1024.5 1507Q1117 1457 1173 1384.5Q1229 1312 1260 1243L1281 1243L1281 1536L1455 1536L1455 -576ZM809 131Q958 131 1063 212.5Q1168 294 1223.5 437.5Q1279 581 1279 767Q1279 951 1224 1092.5Q1169 1234 1064.5 1314.5Q960 1395 809 1395Q655 1395 549 1311.5Q443 1228 389 1086Q335 944 335 767Q335 588 390 444Q445 300 551 215.5Q657 131 809 131Z" />
<glyph glyph-name="uni0072" unicode="&#x72;" horiz-adv-x="1004" d="M235 0L235 1536L408 1536L408 1300L421 1300Q467 1416 581.5 1487.5Q696 1559 841 1559Q863 1559 890 1558Q917 1557 935 1556L935 1375Q923 1377 893 1381Q863 1385 828 1385Q708 1385 614.5 1334.5Q521 1284 467 1195Q413 1106 413 992L413 0Z" />
<glyph glyph-name="uni0073" unicode="&#x73;" horiz-adv-x="1444" d="M1267 1199L1104 1153Q1080 1222 1036 1278Q992 1334 921.5 1367Q851 1400 747 1400Q591 1400 491 1326Q391 1252 391 1135Q391 1036 459.5 974.5Q528 913 671 877L903 820Q1096 773 1192.5 671Q1289 569 1289 415Q1289 285 1217 184Q1145 83 1016.5 25.5Q888 -32 719 -32Q494 -32 348 69.5Q202 171 161 363L332 405Q365 268 461.5 198Q558 128 716 128Q893 128 999 207.5Q1105 287 1105 407Q1105 500 1043 563.5Q981 627 855 657L604 717Q404 765 308 869Q212 973 212 1127Q212 1254 281 1350.5Q350 1447 471 1502Q592 1557 747 1557Q958 1557 1084.5 1461.5Q1211 1366 1267 1199Z" />
<glyph glyph-name="uni0074" unicode="&#x74;" horiz-adv-x="1009" d="M840 1536L840 1381L107 1381L107 1536ZM336 1904L515 1904L515 401Q515 305 548 250.5Q581 196 634 173.5Q687 151 747 151Q782 151 807 155.5Q832 160 851 165L889 4Q863 -6 825 -14.5Q787 -23 731 -23Q633 -23 542.5 20Q452 63 394 148Q336 233 336 359Z" />
<glyph glyph-name="uni0075" unicode="&#x75;" horiz-adv-x="1624" d="M1211 587L1211 1536L1389 1536L1389 0L1211 0L1211 255L1197 255Q1143 137 1026 58.5Q909 -20 740 -20Q593 -20 479 44.5Q365 109 300 234Q235 359 235 541L235 1536L413 1536L413 552Q413 372 519 262.5Q625 153 791 153Q895 153 991 203Q1087 253 1149 349.5Q1211 446 1211 587Z" />
<glyph glyph-name="uni0076" unicode="&#x76;" horiz-adv-x="1536" d="M1424 1536L863 0L673 0L112 1536L305 1536L761 235L775 235L1231 1536Z" />
<glyph glyph-name="uni0077" unicode="&#x77;" horiz-adv-x="2267" d="M576 0L112 1536L300 1536L664 269L677 269L1040 1536L1229 1536L1589 272L1603 272L1967 1536L2155 1536L1691 0L1507 0L1143 1259L1124 1259L760 0Z" />
<glyph glyph-name="uni0078" unicode="&#x78;" horiz-adv-x="1483" d="M345 1536L741 881L1137 1536L1344 1536L850 768L1344 0L1137 0L741 634L345 0L139 0L627 768L139 1536Z" />
<glyph glyph-name="uni0079" unicode="&#x79;" horiz-adv-x="1536" d="M359 -576Q306 -576 260 -566Q214 -556 187 -544L235 -387Q326 -415 397 -407.5Q468 -400 523 -343.5Q578 -287 621 -171L677 -15L112 1536L305 1536L761 235L775 235L1231 1536L1424 1536L774 -243Q733 -354 673 -428.5Q613 -503 534.5 -539.5Q456 -576 359 -576Z" />
<glyph glyph-name="uni007A" unicode="&#x7a;" horiz-adv-x="1493" d="M187 0L187 141L1075 1355L1075 1368L225 1368L225 1536L1304 1536L1304 1389L432 181L432 168L1336 168L1336 0Z" />
<glyph glyph-name="uni007B" unicode="&#x7b;" horiz-adv-x="976" d="M131 851L131 955Q300 955 364.5 1022Q429 1089 429 1256L429 1644Q429 1772 454 1866.5Q479 1961 534 2022.5Q589 2084 678.5 2114Q768 2144 897 2144L897 1992Q785 1992 718.5 1955.5Q652 1919 623.5 1842Q595 1765 595 1644L595 1203Q595 1118 575 1052.5Q555 987 504 942Q453 897 362.5 874Q272 851 131 851ZM897 -416Q768 -416 678.5 -386Q589 -356 534 -294.5Q479 -233 454 -138.5Q429 -44 429 84L429 472Q429 639 364.5 706Q300 773 131 773L131 877Q272 877 362.5 854Q453 831 504 786Q555 741 575 675.5Q595 610 595 525L595 84Q595 -37 623.5 -113.5Q652 -190 718.5 -227Q785 -264 897 -264ZM131 773L131 955L360 955L360 773Z" />
<glyph glyph-name="uni007C" unicode="&#x7c;" horiz-adv-x="869" d="M512 2708L512 -660L357 -660L357 2708Z" />
<glyph glyph-name="uni007D" unicode="&#x7d;" horiz-adv-x="976" d="M845 877L845 773Q676 773 611.5 706Q547 639 547 472L547 84Q547 -44 522 -138.5Q497 -233 442 -294.5Q387 -356 297.5 -386Q208 -416 79 -416L79 -264Q191 -264 257.5 -227Q324 -190 352.5 -113.5Q381 -37 381 84L381 525Q381 610 401 675.5Q421 741 472 786Q523 831 613.5 854Q704 877 845 877ZM79 2144Q208 2144 297.5 2114Q387 2084 442 2022.5Q497 1961 522 1866.5Q547 1772 547 1644L547 1256Q547 1089 611.5 1022Q676 955 845 955L845 851Q704 851 613.5 874Q523 897 472 942Q421 987 401 1052.5Q381 1118 381 1203L381 1644Q381 1765 352.5 1842Q324 1919 257.5 1955.5Q191 1992 79 1992ZM845 955L845 773L616 773L616 955Z" />
<glyph glyph-name="uni007E" unicode="&#x7e;" horiz-adv-x="1835" d="M243 629Q245 767 299.5 855Q354 943 440.5 985.5Q527 1028 627 1028Q729 1028 810 985Q891 942 984 865Q1053 809 1101.5 782Q1150 755 1209 755Q1302 754 1361 816Q1420 878 1427 989L1592 984Q1587 847 1532.5 760Q1478 673 1393 631Q1308 589 1212 589Q1115 590 1037 631.5Q959 673 865 749Q796 806 745 834Q694 862 629 863Q536 863 473.5 804.5Q411 746 408 627Z" />
<glyph glyph-name="uni00A0" unicode="&#xa0;" horiz-adv-x="792" d="" />
<glyph glyph-name="uni00A1" unicode="&#xa1;" horiz-adv-x="768" d="M485 -520L283 -520L296 941L472 941ZM384 1543Q443 1543 485.5 1500.5Q528 1458 528 1399Q528 1339 485.5 1297Q443 1255 384 1255Q325 1255 282.5 1297Q240 1339 240 1399Q240 1439 259.5 1471.5Q279 1504 312 1523.5Q345 1543 384 1543Z" />
<glyph glyph-name="uni00A2" unicode="&#xa2;" horiz-adv-x="1567" d="M758 0L758 2048L889 2048L889 0ZM835 229Q629 229 476.5 332Q324 435 240 614.5Q156 794 156 1023Q156 1254 241.5 1433.5Q327 1613 479 1716Q631 1819 832 1819Q986 1819 1111 1759Q1236 1699 1317.5 1591.5Q1399 1484 1420 1341L1240 1341Q1212 1472 1105.5 1564Q999 1656 835 1656Q688 1656 575 1576.5Q462 1497 398.5 1355.5Q335 1214 335 1028Q335 841 397 698Q459 555 571.5 473.5Q684 392 835 392Q937 392 1021.5 430.5Q1106 469 1163.5 540.5Q1221 612 1241 709L1421 709Q1401 570 1322.5 462Q1244 354 1119.5 291.5Q995 229 835 229Z" />
<glyph glyph-name="uni00A3" unicode="&#xa3;" horiz-adv-x="1776" d="M1517 0L197 0L197 168L1517 168ZM1101 815L192 815L192 988L1101 988ZM595 1455L625 507Q631 368 593.5 261Q556 154 459 111L285 168Q350 168 386 223Q422 278 435.5 357Q449 436 447 507L419 1455Q412 1656 492.5 1794.5Q573 1933 708 2004.5Q843 2076 1000 2076Q1134 2076 1244.5 2028.5Q1355 1981 1431 1899.5Q1507 1818 1538 1715Q1569 1612 1543 1503L1367 1551Q1384 1658 1336.5 1738.5Q1289 1819 1201 1863.5Q1113 1908 1008 1908Q897 1908 802.5 1856.5Q708 1805 650.5 1704Q593 1603 595 1455Z" />
<glyph glyph-name="uni00A4" unicode="&#xa4;" horiz-adv-x="1997" d="M993 -28Q824 -28 677.5 37.5Q531 103 419.5 221Q308 339 246 496Q184 653 184 836Q184 1019 246 1175.5Q308 1332 419.5 1449Q531 1566 677.5 1631Q824 1696 993 1696Q1163 1696 1310 1631Q1457 1566 1568.5 1449Q1680 1332 1742.5 1175.5Q1805 1019 1805 836Q1805 653 1742.5 496Q1680 339 1568.5 221Q1457 103 1310 37.5Q1163 -28 993 -28ZM993 140Q1126 140 1242.5 194Q1359 248 1446 343.5Q1533 439 1582.5 565.5Q1632 692 1632 836Q1632 1030 1546.5 1187.5Q1461 1345 1316 1438Q1171 1531 993 1531Q815 1531 669.5 1438Q524 1345 438 1187.5Q352 1030 352 836Q352 643 438 485Q524 327 669.5 233.5Q815 140 993 140ZM1570 1308L1449 1435L1713 1707L1837 1580ZM1713 -13L1449 259L1570 383L1837 114ZM278 -13L157 114L421 383L545 259ZM421 1308L157 1580L278 1707L545 1435Z" />
<glyph glyph-name="uni00A5" unicode="&#xa5;" horiz-adv-x="1520" d="M255 2048L816 900L664 847L47 2048ZM704 900L1265 2048L1473 2048L856 847ZM853 1035L853 0L667 0L667 1035ZM1312 985L1312 844L208 844L208 985ZM1312 640L1312 499L208 499L208 640Z" />
<glyph glyph-name="uni00A6" unicode="&#xa6;" horiz-adv-x="674" d="M253 545L421 545L421 -384L253 -384ZM421 2048L421 1123L253 1123L253 2048Z" />
<glyph glyph-name="uni00A7" unicode="&#xa7;" horiz-adv-x="1532" d="M1245 1588L1072 1588Q1069 1726 992.5 1819.5Q916 1913 764 1913Q666 1913 599 1874.5Q532 1836 498 1775.5Q464 1715 464 1648Q464 1575 501 1518.5Q538 1462 595 1418Q652 1374 712 1339L1027 1153Q1080 1122 1140.5 1081Q1201 1040 1254 985.5Q1307 931 1341 860Q1375 789 1375 697Q1375 618 1333.5 545.5Q1292 473 1223 422Q1154 371 1071 355L1071 351Q1173 273 1214 190.5Q1255 108 1255 11Q1255 -131 1186 -225.5Q1117 -320 1003 -368Q889 -416 755 -416Q603 -416 484 -355.5Q365 -295 296.5 -184.5Q228 -74 225 77L401 77Q405 -78 503.5 -165.5Q602 -253 755 -253Q888 -253 984.5 -185.5Q1081 -118 1081 11Q1081 83 1049.5 135.5Q1018 188 960.5 231.5Q903 275 825 320L509 503Q440 543 377 588Q314 633 264.5 688Q215 743 186 810.5Q157 878 157 963Q157 1041 195 1116Q233 1191 301 1244Q369 1297 459 1311L459 1319Q382 1385 336.5 1464.5Q291 1544 291 1648Q291 1770 352 1866.5Q413 1963 519.5 2019.5Q626 2076 764 2076Q910 2076 1017 2013.5Q1124 1951 1183.5 1841Q1243 1731 1245 1588ZM1207 697Q1207 769 1167.5 826Q1128 883 1067 929Q1006 975 941 1013L611 1207Q539 1227 473.5 1199Q408 1171 366.5 1109Q325 1047 325 965Q325 860 398.5 788Q472 716 597 643L905 464Q967 445 1037 470Q1107 495 1157 554Q1207 613 1207 697Z" />
<glyph glyph-name="uni00A8" unicode="&#xa8;" horiz-adv-x="1728" d="M608 1800Q557 1800 518.5 1838.5Q480 1877 480 1928Q480 1983 518.5 2019.5Q557 2056 608 2056Q663 2056 699.5 2019.5Q736 1983 736 1928Q736 1877 699.5 1838.5Q663 1800 608 1800ZM1120 1800Q1069 1800 1030.5 1838.5Q992 1877 992 1928Q992 1983 1030.5 2019.5Q1069 2056 1120 2056Q1175 2056 1211.5 2019.5Q1248 1983 1248 1928Q1248 1877 1211.5 1838.5Q1175 1800 1120 1800Z" />
<glyph glyph-name="uni00A9" unicode="&#xa9;" horiz-adv-x="2576" d="M710 1024Q710 1188 790 1323Q870 1458 1005 1538Q1140 1618 1304 1618Q1438 1618 1551 1563Q1664 1508 1740.5 1412.5Q1817 1317 1843 1195L1657 1195Q1627 1304 1529 1373Q1431 1442 1304 1442Q1189 1442 1094 1385.5Q999 1329 942.5 1234.5Q886 1140 886 1024Q886 909 942.5 814Q999 719 1094 662.5Q1189 606 1304 606Q1431 606 1522 675Q1613 744 1644 853L1829 853Q1804 731 1731 635.5Q1658 540 1548 485Q1438 430 1304 430Q1140 430 1005 510Q870 590 790 725Q710 860 710 1024ZM1288 -32Q1070 -32 878.5 50Q687 132 541.5 277.5Q396 423 313.5 614Q231 805 232 1024Q233 1243 315.5 1434Q398 1625 543 1770.5Q688 1916 879 1998Q1070 2080 1288 2080Q1507 2080 1698.5 1998Q1890 1916 2034.5 1770.5Q2179 1625 2261 1434Q2343 1243 2344 1024Q2345 805 2263 614Q2181 423 2036 277.5Q1891 132 1699 50Q1507 -32 1288 -32ZM1288 144Q1471 144 1631 212.5Q1791 281 1911.5 401.5Q2032 522 2100.5 682Q2169 842 2168 1023Q2167 1206 2098.5 1366Q2030 1526 1909.5 1646.5Q1789 1767 1630 1835.5Q1471 1904 1288 1904Q1106 1904 947 1835.5Q788 1767 667.5 1646Q547 1525 478 1365.5Q409 1206 408 1023Q407 842 475.5 682.5Q544 523 665 402.5Q786 282 946 213Q1106 144 1288 144Z" />
<glyph glyph-name="uni00AA" unicode="&#xaa;" horiz-adv-x="1181" d="M791 1184L791 1652Q791 1765 744.5 1820Q698 1875 601 1875Q496 1875 436.5 1830Q377 1785 374 1698L195 1713Q197 1854 307.5 1943Q418 2032 601 2032Q775 2032 873.5 1937.5Q972 1843 973 1652L973 1220Q972 1152 980 1091.5Q988 1031 1007 973L822 973Q807 1021 799 1076Q791 1131 791 1184ZM835 1572L835 1445L623 1445Q487 1445 422.5 1394Q358 1343 358 1263Q358 1190 403.5 1148.5Q449 1107 541 1107Q598 1106 656 1128.5Q714 1151 758.5 1187Q803 1223 820 1263L844 1143Q790 1066 708 1009Q626 952 501 952Q346 952 259.5 1036Q173 1120 173 1257Q174 1409 286.5 1490.5Q399 1572 623 1572Z" />
<glyph glyph-name="uni00AB" unicode="&#xab;" horiz-adv-x="1507" d="M771 220L607 220L203 820L203 840L376 840ZM771 1448L376 828L203 828L203 848L607 1448ZM1283 220L1119 220L715 820L715 840L888 840ZM1283 1448L888 828L715 828L715 848L1119 1448Z" />
<glyph glyph-name="uni00AC" unicode="&#xac;" horiz-adv-x="1482" d="M1312 1108L1312 929L175 929L175 1108ZM1312 1027L1312 516L1107 516L1107 1027Z" />
<glyph glyph-name="uni00AD" unicode="&#xad;" horiz-adv-x="1276" d="M1064 962L1064 794L212 794L212 962Z" />
<glyph glyph-name="uni00AE" unicode="&#xae;" horiz-adv-x="1888" d="M673 916L673 1654L1027 1654Q1083 1654 1135.5 1627.5Q1188 1601 1222.5 1549.5Q1257 1498 1257 1423Q1257 1348 1221.5 1293.5Q1186 1239 1131.5 1210Q1077 1181 1019 1181L745 1181L745 1282L985 1282Q1036 1282 1076.5 1318.5Q1117 1355 1117 1423Q1117 1493 1076.5 1523Q1036 1553 988 1553L802 1553L802 916ZM1103 1259L1287 916L1143 916L964 1259ZM944 476Q778 476 633 538Q488 600 378 710Q268 820 206 965Q144 1110 144 1276Q144 1442 206 1587Q268 1732 378 1842Q488 1952 633 2014Q778 2076 944 2076Q1110 2076 1255 2014Q1400 1952 1510 1842Q1620 1732 1682 1587Q1744 1442 1744 1276Q1744 1110 1682 965Q1620 820 1510 710Q1400 600 1255 538Q1110 476 944 476ZM944 625Q1124 625 1271.5 713Q1419 801 1507 948.5Q1595 1096 1595 1276Q1595 1456 1507 1603.5Q1419 1751 1271.5 1839Q1124 1927 944 1927Q764 1927 616.5 1839Q469 1751 381 1603.5Q293 1456 293 1276Q293 1096 381 948.5Q469 801 616.5 713Q764 625 944 625Z" />
<glyph glyph-name="uni00AF" unicode="&#xaf;" horiz-adv-x="1117" d="M977 2003L977 1848L140 1848L140 2003Z" />
<glyph glyph-name="uni00B0" unicode="&#xb0;" horiz-adv-x="1280" d="M640 1177Q517 1177 416 1237Q315 1297 255 1398.5Q195 1500 195 1623Q195 1746 255 1847Q315 1948 416 2008Q517 2068 640 2068Q763 2068 864 2008Q965 1948 1025 1847Q1085 1746 1085 1623Q1085 1500 1025 1398.5Q965 1297 864 1237Q763 1177 640 1177ZM640 1332Q721 1332 786.5 1371Q852 1410 891.5 1476Q931 1542 931 1623Q931 1703 891.5 1769Q852 1835 786.5 1874Q721 1913 640 1913Q560 1913 494 1874Q428 1835 388.5 1769Q349 1703 349 1623Q349 1542 388.5 1476Q428 1410 494 1371Q560 1332 640 1332Z" />
<glyph glyph-name="uni00B1" unicode="&#xb1;" horiz-adv-x="1835" d="M295 128L295 299L1540 299L1540 128ZM295 923L295 1093L1540 1093L1540 923ZM832 480L832 1536L1003 1536L1003 480Z" />
<glyph glyph-name="uni00B2" unicode="&#xb2;" horiz-adv-x="1176" d="M149 1024L149 1144L608 1575Q686 1649 736 1704.5Q786 1760 810.5 1810Q835 1860 835 1916Q835 2014 760 2074.5Q685 2135 573 2135Q455 2135 383 2069.5Q311 2004 311 1904L151 1904Q151 2065 270.5 2166.5Q390 2268 576 2268Q699 2268 793.5 2222Q888 2176 941.5 2097Q995 2018 995 1919Q995 1841 964.5 1773.5Q934 1706 867 1630.5Q800 1555 691 1453L388 1168L388 1161L1041 1161L1041 1024Z" />
<glyph glyph-name="uni00B3" unicode="&#xb3;" horiz-adv-x="1193" d="M597 1008Q466 1008 362.5 1052.5Q259 1097 198 1175.5Q137 1254 136 1356L304 1356Q306 1263 390 1205.5Q474 1148 597 1148Q727 1148 810 1211Q893 1274 893 1369Q893 1466 803 1528.5Q713 1591 565 1591L487 1591L487 1717L565 1717Q688 1717 771.5 1774Q855 1831 855 1928Q855 2017 784 2076Q713 2135 599 2135Q486 2135 406.5 2077Q327 2019 324 1923L165 1923Q167 2025 224.5 2103Q282 2181 379.5 2224.5Q477 2268 599 2268Q722 2268 816.5 2225Q911 2182 964 2106.5Q1017 2031 1017 1936Q1017 1828 945 1756.5Q873 1685 764 1664L764 1656Q906 1633 984.5 1552Q1063 1471 1063 1359Q1063 1259 1003 1179.5Q943 1100 838 1054Q733 1008 597 1008Z" />
<glyph glyph-name="uni00B4" unicode="&#xb4;" horiz-adv-x="1400" d="M594 1749L850 2203L1061 2203L754 1749Z" />
<glyph glyph-name="uni00B5" unicode="&#xb5;" horiz-adv-x="1697" d="M232 -583L232 1536L411 1536L411 587Q411 459 466 361Q521 263 620 208Q719 153 849 153Q980 153 1079 208.5Q1178 264 1233 361.5Q1288 459 1288 587L1288 1536L1467 1536L1467 0L1288 0L1288 233L1277 233Q1218 113 1103 46.5Q988 -20 849 -20Q711 -20 596 46.5Q481 113 421 233L411 233L411 -583Z" />
<glyph glyph-name="uni00B6" unicode="&#xb6;" horiz-adv-x="1645" d="M1373 1880L957 1880L957 760L841 760Q623 760 472 843.5Q321 927 243 1072.5Q165 1218 165 1404Q165 1588 243 1733.5Q321 1879 472 1963.5Q623 2048 841 2048L1373 2048ZM1187 0L1187 2048L1373 2048L1373 0Z" />
<glyph glyph-name="uni00B7" unicode="&#xb7;" horiz-adv-x="755" d="M377 752Q318 752 275.5 794.5Q233 837 233 896Q233 956 275.5 998Q318 1040 377 1040Q437 1040 479 998Q521 956 521 896Q521 857 501.5 824Q482 791 449.5 771.5Q417 752 377 752Z" />
<glyph glyph-name="uni00B8" unicode="&#xb8;" horiz-adv-x="693" d="M274 8L426 8L411 -72Q497 -85 557.5 -141.5Q618 -198 619 -307Q618 -428 524.5 -499Q431 -570 249 -572L243 -447Q342 -445 399 -413.5Q456 -382 456 -312Q456 -237 403.5 -206Q351 -175 238 -169Z" />
<glyph glyph-name="uni00B9" unicode="&#xb9;" horiz-adv-x="844" d="M433 1024L433 2084L423 2084L117 1881L117 2047L425 2252L593 2252L593 1024Z" />
<glyph glyph-name="uni00BA" unicode="&#xba;" horiz-adv-x="1209" d="M144 1437L144 1547Q144 1692 199.5 1801Q255 1910 359 1971Q463 2032 605 2032Q821 2032 943 1898.5Q1065 1765 1065 1547L1065 1437Q1065 1291 1010.5 1182.5Q956 1074 853 1014Q750 954 607 953Q391 953 267.5 1085.5Q144 1218 144 1437ZM324 1547L324 1437Q324 1289 396.5 1198Q469 1107 607 1107Q743 1106 814 1197Q885 1288 885 1437L885 1547Q885 1692 814 1784Q743 1876 605 1876Q469 1876 396.5 1784.5Q324 1693 324 1547Z" />
<glyph glyph-name="uni00BB" unicode="&#xbb;" horiz-adv-x="1513" d="M211 220L605 840L779 840L779 820L375 220ZM211 1448L375 1448L779 848L779 828L605 828ZM730 220L1124 840L1298 840L1298 820L894 220ZM730 1448L894 1448L1298 848L1298 828L1124 828Z" />
<glyph glyph-name="uni00BC" unicode="&#xbc;" horiz-adv-x="2395" d="M361 0L1768 2048L1945 2048L539 0ZM376 960L376 1880L365 1880L91 1698L91 1865L368 2048L536 2048L536 960ZM1414 212L1414 339L1950 1088L2058 1088L2058 903L1988 903L1585 348L1585 344L2300 344L2300 212ZM1993 0L1993 253L1996 308L1996 1088L2146 1088L2146 0Z" />
<glyph glyph-name="uni00BD" unicode="&#xbd;" horiz-adv-x="2545" d="M361 0L1768 2048L1945 2048L539 0ZM376 960L376 1880L365 1880L91 1698L91 1865L368 2048L536 2048L536 960ZM1611 0L1611 117L2028 493Q2136 592 2182 654Q2228 716 2228 784Q2228 869 2161.5 922Q2095 975 1996 975Q1895 975 1829 919Q1763 863 1763 776L1608 776Q1608 920 1717 1012Q1826 1104 1999 1104Q2170 1104 2275.5 1013Q2381 922 2381 787Q2381 719 2354.5 659Q2328 599 2267.5 532Q2207 465 2105 375L1844 139L1844 132L2428 132L2428 0Z" />
<glyph glyph-name="uni00BE" unicode="&#xbe;" horiz-adv-x="2626" d="M592 0L1999 2048L2176 2048L770 0ZM1644 212L1644 339L2180 1088L2288 1088L2288 903L2218 903L1815 348L1815 344L2530 344L2530 212ZM2223 0L2223 253L2226 308L2226 1088L2376 1088L2376 0ZM541 944Q421 944 325.5 985Q230 1026 175 1097.5Q120 1169 120 1261L283 1261Q283 1181 357 1130Q431 1079 541 1079Q654 1079 726.5 1134Q799 1189 799 1269Q799 1353 719 1405Q639 1457 512 1457L441 1457L441 1575L512 1575Q622 1575 695.5 1625Q769 1675 769 1756Q769 1832 705.5 1883.5Q642 1935 541 1935Q440 1935 371.5 1883.5Q303 1832 303 1752L145 1752Q147 1843 199 1913Q251 1983 340 2023.5Q429 2064 541 2064Q654 2064 741 2025Q828 1986 877.5 1919Q927 1852 927 1767Q927 1674 862.5 1610Q798 1546 692 1527L692 1520Q822 1500 893.5 1429.5Q965 1359 965 1259Q965 1169 911 1097.5Q857 1026 761.5 985Q666 944 541 944Z" />
<glyph glyph-name="uni00BF" unicode="&#xbf;" horiz-adv-x="1401" d="M857 951L857 896Q857 739 823 639.5Q789 540 722.5 472Q656 404 556 340Q484 293 432.5 239Q381 185 354.5 121.5Q328 58 328 -20Q328 -128 379 -208.5Q430 -289 515.5 -334Q601 -379 707 -379Q807 -379 893 -335.5Q979 -292 1034 -207.5Q1089 -123 1093 1L1283 1Q1278 -163 1200.5 -284.5Q1123 -406 994.5 -472.5Q866 -539 707 -539Q541 -539 414.5 -470.5Q288 -402 217.5 -283Q147 -164 147 -12Q147 90 178.5 173Q210 256 273.5 326Q337 396 432 457Q523 517 576 576Q629 635 652 710.5Q675 786 676 896L676 951ZM761 1552Q821 1552 863 1509.5Q905 1467 905 1408Q905 1349 863 1306.5Q821 1264 761 1264Q702 1264 659.5 1306.5Q617 1349 617 1408Q617 1448 636.5 1480.5Q656 1513 689 1532.5Q722 1552 761 1552Z" />
<glyph glyph-name="uni00C0" unicode="&#xc0;" horiz-adv-x="1848" d="M275 0L79 0L824 2048L1024 2048L1769 0L1573 0L931 1805L917 1805ZM416 785L1432 785L1432 617L416 617ZM848 2261L541 2715L752 2715L1008 2261Z" />
<glyph glyph-name="uni00C1" unicode="&#xc1;" horiz-adv-x="1848" d="M275 0L79 0L824 2048L1024 2048L1769 0L1573 0L931 1805L917 1805ZM416 785L1432 785L1432 617L416 617ZM841 2261L1097 2715L1308 2715L1001 2261Z" />
<glyph glyph-name="uni00C2" unicode="&#xc2;" horiz-adv-x="1848" d="M275 0L79 0L824 2048L1024 2048L1769 0L1573 0L931 1805L917 1805ZM416 785L1432 785L1432 617L416 617ZM1163 2224L924 2513L685 2224L511 2224L511 2237L849 2640L999 2640L1337 2237L1337 2224Z" />
<glyph glyph-name="uni00C3" unicode="&#xc3;" horiz-adv-x="1848" d="M275 0L79 0L824 2048L1024 2048L1769 0L1573 0L931 1805L917 1805ZM416 785L1432 785L1432 617L416 617ZM587 2283L443 2291Q448 2424 531 2508.5Q614 2593 734 2593Q795 2593 841 2572Q887 2551 927.5 2523.5Q968 2496 1010.5 2474.5Q1053 2453 1107 2453Q1168 2453 1213.5 2497Q1259 2541 1265 2607L1406 2591Q1399 2456 1315.5 2376Q1232 2296 1115 2296Q1048 2296 1002.5 2317.5Q957 2339 920.5 2366Q884 2393 842.5 2414.5Q801 2436 742 2436Q678 2436 634.5 2391.5Q591 2347 587 2283Z" />
<glyph glyph-name="uni00C4" unicode="&#xc4;" horiz-adv-x="1848" d="M275 0L79 0L824 2048L1024 2048L1769 0L1573 0L931 1805L917 1805ZM416 785L1432 785L1432 617L416 617ZM668 2312Q617 2312 578.5 2350.5Q540 2389 540 2440Q540 2495 578.5 2531.5Q617 2568 668 2568Q723 2568 759.5 2531.5Q796 2495 796 2440Q796 2389 759.5 2350.5Q723 2312 668 2312ZM1180 2312Q1129 2312 1090.5 2350.5Q1052 2389 1052 2440Q1052 2495 1090.5 2531.5Q1129 2568 1180 2568Q1235 2568 1271.5 2531.5Q1308 2495 1308 2440Q1308 2389 1271.5 2350.5Q1235 2312 1180 2312Z" />
<glyph glyph-name="uni00C5" unicode="&#xc5;" horiz-adv-x="1848" d="M275 0L79 0L824 2048L1024 2048L1769 0L1573 0L931 1805L917 1805ZM416 785L1432 785L1432 617L416 617ZM924 2175Q812 2175 733.5 2253.5Q655 2332 655 2444Q655 2519 691 2580Q727 2641 788.5 2677Q850 2713 924 2713Q999 2713 1060 2677Q1121 2641 1157 2580Q1193 2519 1193 2444Q1193 2370 1157 2308.5Q1121 2247 1060 2211Q999 2175 924 2175ZM924 2292Q988 2292 1031.5 2336.5Q1075 2381 1075 2444Q1075 2508 1031.5 2552Q988 2596 924 2596Q860 2596 816.5 2551.5Q773 2507 773 2444Q773 2380 816.5 2336Q860 2292 924 2292Z" />
<glyph glyph-name="uni00C6" unicode="&#xc6;" horiz-adv-x="2759" d="M79 0L1088 2048L2548 2048L2548 1880L1547 1880L1547 1109L2485 1109L2485 941L1547 941L1547 168L2568 168L2568 0L1360 0L1360 1880L1195 1880L284 0ZM503 617L503 785L1455 785L1455 617Z" />
<glyph glyph-name="uni00C7" unicode="&#xc7;" horiz-adv-x="2044" d="M1876 1408L1688 1408Q1667 1513 1612.5 1602.5Q1558 1692 1476 1759Q1394 1826 1290 1863Q1186 1900 1065 1900Q871 1900 711.5 1799Q552 1698 456.5 1502.5Q361 1307 361 1024Q361 739 456.5 544Q552 349 711.5 248.5Q871 148 1065 148Q1186 148 1290 185Q1394 222 1476 288.5Q1558 355 1612.5 445Q1667 535 1688 640L1876 640Q1851 499 1782.5 377.5Q1714 256 1608.5 165Q1503 74 1366 23Q1229 -28 1065 -28Q807 -28 607 101.5Q407 231 293.5 467Q180 703 180 1024Q180 1345 293.5 1581Q407 1817 607 1946.5Q807 2076 1065 2076Q1229 2076 1366 2025.5Q1503 1975 1608.5 1883.5Q1714 1792 1782.5 1671Q1851 1550 1876 1408ZM985 -3L1137 -3L1122 -83Q1208 -96 1268.5 -152.5Q1329 -209 1330 -318Q1329 -439 1235.5 -510Q1142 -581 960 -583L954 -458Q1053 -456 1110 -424.5Q1167 -393 1167 -323Q1167 -248 1114.5 -217Q1062 -186 949 -180Z" />
<glyph glyph-name="uni00C8" unicode="&#xc8;" horiz-adv-x="1671" d="M272 0L272 2048L1460 2048L1460 1880L459 1880L459 1109L1397 1109L1397 941L459 941L459 168L1480 168L1480 0ZM790 2261L483 2715L694 2715L950 2261Z" />
<glyph glyph-name="uni00C9" unicode="&#xc9;" horiz-adv-x="1671" d="M272 0L272 2048L1460 2048L1460 1880L459 1880L459 1109L1397 1109L1397 941L459 941L459 168L1480 168L1480 0ZM783 2261L1039 2715L1250 2715L943 2261Z" />
<glyph glyph-name="uni00CA" unicode="&#xca;" horiz-adv-x="1671" d="M272 0L272 2048L1460 2048L1460 1880L459 1880L459 1109L1397 1109L1397 941L459 941L459 168L1480 168L1480 0ZM1106 2224L867 2513L628 2224L454 2224L454 2237L792 2640L942 2640L1280 2237L1280 2224Z" />
<glyph glyph-name="uni00CB" unicode="&#xcb;" horiz-adv-x="1671" d="M272 0L272 2048L1460 2048L1460 1880L459 1880L459 1109L1397 1109L1397 941L459 941L459 168L1480 168L1480 0ZM611 2312Q560 2312 521.5 2350.5Q483 2389 483 2440Q483 2494 521.5 2531Q560 2568 611 2568Q666 2568 702.5 2531Q739 2494 739 2440Q739 2389 702.5 2350.5Q666 2312 611 2312ZM1123 2312Q1072 2312 1033.5 2350.5Q995 2389 995 2440Q995 2494 1033.5 2531Q1072 2568 1123 2568Q1178 2568 1214.5 2531Q1251 2494 1251 2440Q1251 2389 1214.5 2350.5Q1178 2312 1123 2312Z" />
<glyph glyph-name="uni00CC" unicode="&#xcc;" horiz-adv-x="731" d="M459 2048L459 0L272 0L272 2048ZM289 2261L-18 2715L193 2715L449 2261Z" />
<glyph glyph-name="uni00CD" unicode="&#xcd;" horiz-adv-x="731" d="M459 2048L459 0L272 0L272 2048ZM282 2261L538 2715L749 2715L442 2261Z" />
<glyph glyph-name="uni00CE" unicode="&#xce;" horiz-adv-x="731" d="M459 2048L459 0L272 0L272 2048ZM604 2224L365 2513L126 2224L-48 2224L-48 2237L290 2640L440 2640L778 2237L778 2224Z" />
<glyph glyph-name="uni00CF" unicode="&#xcf;" horiz-adv-x="731" d="M459 2048L459 0L272 0L272 2048ZM109 2312Q59 2312 20 2350.5Q-19 2389 -19 2440Q-19 2495 20 2531.5Q59 2568 109 2568Q164 2568 200.5 2531.5Q237 2495 237 2440Q237 2389 200.5 2350.5Q164 2312 109 2312ZM621 2312Q571 2312 532 2350.5Q493 2389 493 2440Q493 2495 532 2531.5Q571 2568 621 2568Q676 2568 712.5 2531.5Q749 2495 749 2440Q749 2389 712.5 2350.5Q676 2312 621 2312Z" />
<glyph glyph-name="uni00D0" unicode="&#xd0;" horiz-adv-x="2020" d="M872 0L376 0L376 168L861 168Q1125 168 1303 272Q1481 376 1570 569Q1659 762 1659 1029Q1658 1294 1571.5 1485Q1485 1676 1315.5 1778Q1146 1880 897 1880L368 1880L368 2048L908 2048Q1201 2048 1409.5 1926Q1618 1804 1729 1576Q1840 1348 1840 1029Q1840 707 1726.5 476.5Q1613 246 1396.5 123Q1180 0 872 0ZM459 2048L459 0L272 0L272 2048ZM-55 979L-55 1123L785 1123L785 979Z" />
<glyph glyph-name="uni00D1" unicode="&#xd1;" horiz-adv-x="2139" d="M1867 2048L1867 0L1685 0L475 1715L459 1715L459 0L272 0L272 2048L453 2048L1667 331L1683 331L1683 2048ZM732 2260L588 2268Q593 2401 676 2486Q759 2571 879 2571Q940 2571 986 2549.5Q1032 2528 1072.5 2500.5Q1113 2473 1155.5 2452Q1198 2431 1252 2431Q1313 2431 1358.5 2475Q1404 2519 1410 2584L1551 2568Q1544 2434 1460.5 2353.5Q1377 2273 1260 2273Q1193 2273 1147.5 2294.5Q1102 2316 1065.5 2343.5Q1029 2371 987.5 2392Q946 2413 887 2413Q823 2413 779.5 2369Q736 2325 732 2260Z" />
<glyph glyph-name="uni00D2" unicode="&#xd2;" horiz-adv-x="2131" d="M1951 1024Q1951 704 1837 467.5Q1723 231 1523.5 101.5Q1324 -28 1065 -28Q806 -28 606.5 101.5Q407 231 293.5 467.5Q180 704 180 1024Q180 1344 293.5 1580.5Q407 1817 607 1946.5Q807 2076 1065 2076Q1324 2076 1523.5 1946.5Q1723 1817 1837 1580.5Q1951 1344 1951 1024ZM1769 1024Q1769 1299 1677 1495.5Q1585 1692 1426 1796Q1267 1900 1065 1900Q864 1900 705 1796Q546 1692 453.5 1496Q361 1300 361 1024Q361 749 453 553Q545 357 704 252.5Q863 148 1065 148Q1267 148 1426.5 252Q1586 356 1678 552.5Q1770 749 1769 1024ZM989 2261L682 2715L893 2715L1149 2261Z" />
<glyph glyph-name="uni00D3" unicode="&#xd3;" horiz-adv-x="2131" d="M1951 1024Q1951 704 1837 467.5Q1723 231 1523.5 101.5Q1324 -28 1065 -28Q806 -28 606.5 101.5Q407 231 293.5 467.5Q180 704 180 1024Q180 1344 293.5 1580.5Q407 1817 607 1946.5Q807 2076 1065 2076Q1324 2076 1523.5 1946.5Q1723 1817 1837 1580.5Q1951 1344 1951 1024ZM1769 1024Q1769 1299 1677 1495.5Q1585 1692 1426 1796Q1267 1900 1065 1900Q864 1900 705 1796Q546 1692 453.5 1496Q361 1300 361 1024Q361 749 453 553Q545 357 704 252.5Q863 148 1065 148Q1267 148 1426.5 252Q1586 356 1678 552.5Q1770 749 1769 1024ZM982 2261L1238 2715L1449 2715L1142 2261Z" />
<glyph glyph-name="uni00D4" unicode="&#xd4;" horiz-adv-x="2131" d="M1951 1024Q1951 704 1837 467.5Q1723 231 1523.5 101.5Q1324 -28 1065 -28Q806 -28 606.5 101.5Q407 231 293.5 467.5Q180 704 180 1024Q180 1344 293.5 1580.5Q407 1817 607 1946.5Q807 2076 1065 2076Q1324 2076 1523.5 1946.5Q1723 1817 1837 1580.5Q1951 1344 1951 1024ZM1769 1024Q1769 1299 1677 1495.5Q1585 1692 1426 1796Q1267 1900 1065 1900Q864 1900 705 1796Q546 1692 453.5 1496Q361 1300 361 1024Q361 749 453 553Q545 357 704 252.5Q863 148 1065 148Q1267 148 1426.5 252Q1586 356 1678 552.5Q1770 749 1769 1024ZM1304 2224L1065 2513L826 2224L652 2224L652 2237L990 2640L1140 2640L1478 2237L1478 2224Z" />
<glyph glyph-name="uni00D5" unicode="&#xd5;" horiz-adv-x="2131" d="M1951 1024Q1951 704 1837 467.5Q1723 231 1523.5 101.5Q1324 -28 1065 -28Q806 -28 606.5 101.5Q407 231 293.5 467.5Q180 704 180 1024Q180 1344 293.5 1580.5Q407 1817 607 1946.5Q807 2076 1065 2076Q1324 2076 1523.5 1946.5Q1723 1817 1837 1580.5Q1951 1344 1951 1024ZM1769 1024Q1769 1299 1677 1495.5Q1585 1692 1426 1796Q1267 1900 1065 1900Q864 1900 705 1796Q546 1692 453.5 1496Q361 1300 361 1024Q361 749 453 553Q545 357 704 252.5Q863 148 1065 148Q1267 148 1426.5 252Q1586 356 1678 552.5Q1770 749 1769 1024ZM728 2283L584 2291Q589 2424 672 2508.5Q755 2593 875 2593Q936 2593 982 2572Q1028 2551 1068.5 2523.5Q1109 2496 1151.5 2474.5Q1194 2453 1248 2453Q1309 2453 1354.5 2497Q1400 2541 1406 2607L1547 2591Q1540 2456 1456.5 2376Q1373 2296 1256 2296Q1189 2296 1143.5 2317.5Q1098 2339 1061.5 2366Q1025 2393 983.5 2414.5Q942 2436 883 2436Q819 2436 775.5 2391.5Q732 2347 728 2283Z" />
<glyph glyph-name="uni00D6" unicode="&#xd6;" horiz-adv-x="2131" d="M1951 1024Q1951 704 1837 467.5Q1723 231 1523.5 101.5Q1324 -28 1065 -28Q806 -28 606.5 101.5Q407 231 293.5 467.5Q180 704 180 1024Q180 1344 293.5 1580.5Q407 1817 607 1946.5Q807 2076 1065 2076Q1324 2076 1523.5 1946.5Q1723 1817 1837 1580.5Q1951 1344 1951 1024ZM1769 1024Q1769 1299 1677 1495.5Q1585 1692 1426 1796Q1267 1900 1065 1900Q864 1900 705 1796Q546 1692 453.5 1496Q361 1300 361 1024Q361 749 453 553Q545 357 704 252.5Q863 148 1065 148Q1267 148 1426.5 252Q1586 356 1678 552.5Q1770 749 1769 1024ZM809 2312Q759 2312 720 2350.5Q681 2389 681 2440Q681 2495 720 2531.5Q759 2568 809 2568Q864 2568 900.5 2531.5Q937 2495 937 2440Q937 2389 900.5 2350.5Q864 2312 809 2312ZM1321 2312Q1271 2312 1232 2350.5Q1193 2389 1193 2440Q1193 2495 1232 2531.5Q1271 2568 1321 2568Q1376 2568 1412.5 2531.5Q1449 2495 1449 2440Q1449 2389 1412.5 2350.5Q1376 2312 1321 2312Z" />
<glyph glyph-name="uni00D7" unicode="&#xd7;" horiz-adv-x="1835" d="M1423 178L295 1306L412 1422L1540 294ZM412 178L295 294L1423 1422L1540 1306Z" />
<glyph glyph-name="uni00D8" unicode="&#xd8;" horiz-adv-x="2131" d="M417 -72L299 9L1708 2117L1827 2036ZM1951 1024Q1951 704 1837 467.5Q1723 231 1523.5 101.5Q1324 -28 1065 -28Q806 -28 606.5 101.5Q407 231 293.5 467.5Q180 704 180 1024Q180 1344 293.5 1580.5Q407 1817 607 1946.5Q807 2076 1065 2076Q1324 2076 1523.5 1946.5Q1723 1817 1837 1580.5Q1951 1344 1951 1024ZM1769 1024Q1769 1299 1677 1495.5Q1585 1692 1426 1796Q1267 1900 1065 1900Q864 1900 705 1796Q546 1692 453.5 1496Q361 1300 361 1024Q361 749 453 553Q545 357 704 252.5Q863 148 1065 148Q1267 148 1426.5 252Q1586 356 1678 552.5Q1770 749 1769 1024Z" />
<glyph glyph-name="uni00D9" unicode="&#xd9;" horiz-adv-x="2096" d="M1637 2048L1824 2048L1824 692Q1824 483 1726 318.5Q1628 154 1453.5 59.5Q1279 -35 1048 -35Q818 -35 643 60Q468 155 370 319Q272 483 272 692L272 2048L459 2048L459 705Q459 542 532 414.5Q605 287 737.5 214Q870 141 1048 141Q1226 141 1359 214Q1492 287 1564.5 414.5Q1637 542 1637 705ZM972 2261L665 2715L876 2715L1132 2261Z" />
<glyph glyph-name="uni00DA" unicode="&#xda;" horiz-adv-x="2096" d="M1637 2048L1824 2048L1824 692Q1824 483 1726 318.5Q1628 154 1453.5 59.5Q1279 -35 1048 -35Q818 -35 643 60Q468 155 370 319Q272 483 272 692L272 2048L459 2048L459 705Q459 542 532 414.5Q605 287 737.5 214Q870 141 1048 141Q1226 141 1359 214Q1492 287 1564.5 414.5Q1637 542 1637 705ZM965 2261L1221 2715L1432 2715L1125 2261Z" />
<glyph glyph-name="uni00DB" unicode="&#xdb;" horiz-adv-x="2096" d="M1637 2048L1824 2048L1824 692Q1824 483 1726 318.5Q1628 154 1453.5 59.5Q1279 -35 1048 -35Q818 -35 643 60Q468 155 370 319Q272 483 272 692L272 2048L459 2048L459 705Q459 542 532 414.5Q605 287 737.5 214Q870 141 1048 141Q1226 141 1359 214Q1492 287 1564.5 414.5Q1637 542 1637 705ZM1287 2224L1048 2513L809 2224L635 2224L635 2237L973 2640L1123 2640L1461 2237L1461 2224Z" />
<glyph glyph-name="uni00DC" unicode="&#xdc;" horiz-adv-x="2096" d="M1637 2048L1824 2048L1824 692Q1824 483 1726 318.5Q1628 154 1453.5 59.5Q1279 -35 1048 -35Q818 -35 643 60Q468 155 370 319Q272 483 272 692L272 2048L459 2048L459 705Q459 542 532 414.5Q605 287 737.5 214Q870 141 1048 141Q1226 141 1359 214Q1492 287 1564.5 414.5Q1637 542 1637 705ZM792 2312Q741 2312 702.5 2350.5Q664 2389 664 2440Q664 2494 702.5 2531Q741 2568 792 2568Q847 2568 883.5 2531Q920 2494 920 2440Q920 2389 883.5 2350.5Q847 2312 792 2312ZM1304 2312Q1253 2312 1214.5 2350.5Q1176 2389 1176 2440Q1176 2494 1214.5 2531Q1253 2568 1304 2568Q1359 2568 1395.5 2531Q1432 2494 1432 2440Q1432 2389 1395.5 2350.5Q1359 2312 1304 2312Z" />
<glyph glyph-name="uni00DD" unicode="&#xdd;" horiz-adv-x="1824" d="M80 2048L296 2048L903 1076L921 1076L1528 2048L1744 2048L1005 887L1005 0L819 0L819 887ZM829 2261L1085 2715L1296 2715L989 2261Z" />
<glyph glyph-name="uni00DE" unicode="&#xde;" horiz-adv-x="1738" d="M252 2048L437 2048L437 0L252 0ZM340 1601L865 1601Q1072 1601 1217 1526.5Q1362 1452 1438.5 1324Q1515 1196 1515 1033Q1515 870 1439 741.5Q1363 613 1218 539Q1073 465 865 465L340 465L340 633L865 633Q1016 633 1121 679Q1226 725 1281 814Q1336 903 1336 1029Q1336 1156 1280.5 1246.5Q1225 1337 1120 1385Q1015 1433 865 1433L340 1433Z" />
<glyph glyph-name="uni00DF" unicode="&#xdf;" horiz-adv-x="1683" d="M272 0L272 1529Q272 1698 343.5 1820.5Q415 1943 542 2009.5Q669 2076 835 2076Q997 2076 1123.5 2013Q1250 1950 1322 1834Q1394 1718 1393 1560Q1393 1381 1299.5 1255.5Q1206 1130 1049 1078L1049 1062Q1258 1032 1381.5 899Q1505 766 1505 555Q1505 393 1431 267.5Q1357 142 1223.5 71Q1090 0 909 0L713 0L713 168L917 168Q1041 168 1133 217Q1225 266 1276 352.5Q1327 439 1327 551Q1327 733 1198.5 846.5Q1070 960 851 960L721 960L721 1131L817 1131Q939 1131 1028 1186.5Q1117 1242 1166 1334Q1215 1426 1215 1536Q1215 1698 1113 1803Q1011 1908 839 1908Q667 1909 559 1804Q451 1699 451 1524L451 0Z" />
<glyph glyph-name="uni00E0" unicode="&#xe0;" horiz-adv-x="1567" d="M664 -35Q525 -35 410 19.5Q295 74 227 177.5Q159 281 159 429Q159 543 202 621Q245 699 324 749Q403 799 511 828Q619 857 749 873Q878 889 967.5 901Q1057 913 1104 939Q1151 965 1151 1023L1151 1059Q1151 1216 1057.5 1306.5Q964 1397 789 1397Q623 1397 518.5 1324Q414 1251 372 1152L203 1213Q255 1339 347 1414.5Q439 1490 553 1523.5Q667 1557 784 1557Q872 1557 967.5 1534Q1063 1511 1145 1454.5Q1227 1398 1278 1297.5Q1329 1197 1329 1043L1329 0L1151 0L1151 243L1140 243Q1108 175 1045 111Q982 47 887 6Q792 -35 664 -35ZM688 128Q830 128 934 191Q1038 254 1094.5 358.5Q1151 463 1151 589L1151 811Q1131 792 1084.5 777Q1038 762 977.5 750.5Q917 739 857 731Q797 723 749 717Q619 701 527 667Q435 633 386 573.5Q337 514 337 421Q337 281 437 204.5Q537 128 688 128ZM724 1749L417 2203L628 2203L884 1749Z" />
<glyph glyph-name="uni00E1" unicode="&#xe1;" horiz-adv-x="1567" d="M664 -35Q525 -35 410 19.5Q295 74 227 177.5Q159 281 159 429Q159 543 202 621Q245 699 324 749Q403 799 511 828Q619 857 749 873Q878 889 967.5 901Q1057 913 1104 939Q1151 965 1151 1023L1151 1059Q1151 1216 1057.5 1306.5Q964 1397 789 1397Q623 1397 518.5 1324Q414 1251 372 1152L203 1213Q255 1339 347 1414.5Q439 1490 553 1523.5Q667 1557 784 1557Q872 1557 967.5 1534Q1063 1511 1145 1454.5Q1227 1398 1278 1297.5Q1329 1197 1329 1043L1329 0L1151 0L1151 243L1140 243Q1108 175 1045 111Q982 47 887 6Q792 -35 664 -35ZM688 128Q830 128 934 191Q1038 254 1094.5 358.5Q1151 463 1151 589L1151 811Q1131 792 1084.5 777Q1038 762 977.5 750.5Q917 739 857 731Q797 723 749 717Q619 701 527 667Q435 633 386 573.5Q337 514 337 421Q337 281 437 204.5Q537 128 688 128ZM717 1749L973 2203L1184 2203L877 1749Z" />
<glyph glyph-name="uni00E2" unicode="&#xe2;" horiz-adv-x="1567" d="M664 -35Q525 -35 410 19.5Q295 74 227 177.5Q159 281 159 429Q159 543 202 621Q245 699 324 749Q403 799 511 828Q619 857 749 873Q878 889 967.5 901Q1057 913 1104 939Q1151 965 1151 1023L1151 1059Q1151 1216 1057.5 1306.5Q964 1397 789 1397Q623 1397 518.5 1324Q414 1251 372 1152L203 1213Q255 1339 347 1414.5Q439 1490 553 1523.5Q667 1557 784 1557Q872 1557 967.5 1534Q1063 1511 1145 1454.5Q1227 1398 1278 1297.5Q1329 1197 1329 1043L1329 0L1151 0L1151 243L1140 243Q1108 175 1045 111Q982 47 887 6Q792 -35 664 -35ZM688 128Q830 128 934 191Q1038 254 1094.5 358.5Q1151 463 1151 589L1151 811Q1131 792 1084.5 777Q1038 762 977.5 750.5Q917 739 857 731Q797 723 749 717Q619 701 527 667Q435 633 386 573.5Q337 514 337 421Q337 281 437 204.5Q537 128 688 128ZM1039 1712L800 2001L561 1712L387 1712L387 1725L725 2128L875 2128L1213 1725L1213 1712Z" />
<glyph glyph-name="uni00E3" unicode="&#xe3;" horiz-adv-x="1567" d="M664 -35Q525 -35 410 19.5Q295 74 227 177.5Q159 281 159 429Q159 543 202 621Q245 699 324 749Q403 799 511 828Q619 857 749 873Q878 889 967.5 901Q1057 913 1104 939Q1151 965 1151 1023L1151 1059Q1151 1216 1057.5 1306.5Q964 1397 789 1397Q623 1397 518.5 1324Q414 1251 372 1152L203 1213Q255 1339 347 1414.5Q439 1490 553 1523.5Q667 1557 784 1557Q872 1557 967.5 1534Q1063 1511 1145 1454.5Q1227 1398 1278 1297.5Q1329 1197 1329 1043L1329 0L1151 0L1151 243L1140 243Q1108 175 1045 111Q982 47 887 6Q792 -35 664 -35ZM688 128Q830 128 934 191Q1038 254 1094.5 358.5Q1151 463 1151 589L1151 811Q1131 792 1084.5 777Q1038 762 977.5 750.5Q917 739 857 731Q797 723 749 717Q619 701 527 667Q435 633 386 573.5Q337 514 337 421Q337 281 437 204.5Q537 128 688 128ZM462 1748L318 1756Q323 1889 406 1974Q489 2059 609 2059Q670 2059 716 2037.5Q762 2016 802.5 1988.5Q843 1961 885.5 1940Q928 1919 982 1919Q1043 1919 1088.5 1963Q1134 2007 1140 2072L1281 2056Q1274 1922 1190.5 1841.5Q1107 1761 990 1761Q923 1761 877.5 1782.5Q832 1804 795.5 1831.5Q759 1859 717.5 1880Q676 1901 617 1901Q553 1901 509.5 1857Q466 1813 462 1748Z" />
<glyph glyph-name="uni00E4" unicode="&#xe4;" horiz-adv-x="1567" d="M664 -35Q525 -35 410 19.5Q295 74 227 177.5Q159 281 159 429Q159 543 202 621Q245 699 324 749Q403 799 511 828Q619 857 749 873Q878 889 967.5 901Q1057 913 1104 939Q1151 965 1151 1023L1151 1059Q1151 1216 1057.5 1306.5Q964 1397 789 1397Q623 1397 518.5 1324Q414 1251 372 1152L203 1213Q255 1339 347 1414.5Q439 1490 553 1523.5Q667 1557 784 1557Q872 1557 967.5 1534Q1063 1511 1145 1454.5Q1227 1398 1278 1297.5Q1329 1197 1329 1043L1329 0L1151 0L1151 243L1140 243Q1108 175 1045 111Q982 47 887 6Q792 -35 664 -35ZM688 128Q830 128 934 191Q1038 254 1094.5 358.5Q1151 463 1151 589L1151 811Q1131 792 1084.5 777Q1038 762 977.5 750.5Q917 739 857 731Q797 723 749 717Q619 701 527 667Q435 633 386 573.5Q337 514 337 421Q337 281 437 204.5Q537 128 688 128ZM544 1800Q493 1800 454.5 1838.5Q416 1877 416 1928Q416 1983 454.5 2019.5Q493 2056 544 2056Q599 2056 635.5 2019.5Q672 1983 672 1928Q672 1877 635.5 1838.5Q599 1800 544 1800ZM1056 1800Q1005 1800 966.5 1838.5Q928 1877 928 1928Q928 1983 966.5 2019.5Q1005 2056 1056 2056Q1111 2056 1147.5 2019.5Q1184 1983 1184 1928Q1184 1877 1147.5 1838.5Q1111 1800 1056 1800Z" />
<glyph glyph-name="uni00E5" unicode="&#xe5;" horiz-adv-x="1567" d="M664 -35Q525 -35 410 19.5Q295 74 227 177.5Q159 281 159 429Q159 543 202 621Q245 699 324 749Q403 799 511 828Q619 857 749 873Q878 889 967.5 901Q1057 913 1104 939Q1151 965 1151 1023L1151 1059Q1151 1216 1057.5 1306.5Q964 1397 789 1397Q623 1397 518.5 1324Q414 1251 372 1152L203 1213Q255 1339 347 1414.5Q439 1490 553 1523.5Q667 1557 784 1557Q872 1557 967.5 1534Q1063 1511 1145 1454.5Q1227 1398 1278 1297.5Q1329 1197 1329 1043L1329 0L1151 0L1151 243L1140 243Q1108 175 1045 111Q982 47 887 6Q792 -35 664 -35ZM688 128Q830 128 934 191Q1038 254 1094.5 358.5Q1151 463 1151 589L1151 811Q1131 792 1084.5 777Q1038 762 977.5 750.5Q917 739 857 731Q797 723 749 717Q619 701 527 667Q435 633 386 573.5Q337 514 337 421Q337 281 437 204.5Q537 128 688 128ZM800 1715Q711 1715 638.5 1755Q566 1795 523.5 1863.5Q481 1932 481 2017Q481 2103 523.5 2173.5Q566 2244 638.5 2286Q711 2328 800 2328Q889 2328 960.5 2286Q1032 2244 1074 2173.5Q1116 2103 1116 2017Q1116 1932 1074 1863.5Q1032 1795 960.5 1755Q889 1715 800 1715ZM800 1837Q879 1837 931 1892Q983 1947 983 2017Q983 2090 931 2146.5Q879 2203 800 2203Q721 2203 669 2146.5Q617 2090 617 2017Q617 1946 669 1891.5Q721 1837 800 1837Z" />
<glyph glyph-name="uni00E6" unicode="&#xe6;" horiz-adv-x="2601" d="M1823 -32Q1576 -32 1409 97Q1242 226 1193 433L1229 1164Q1305 1346 1450 1451.5Q1595 1557 1796 1557Q1921 1557 2037 1511.5Q2153 1466 2245.5 1372.5Q2338 1279 2391.5 1137.5Q2445 996 2445 803L2445 715L1249 715L1249 872L2264 872Q2264 1020 2204.5 1138Q2145 1256 2039 1325.5Q1933 1395 1796 1395Q1649 1395 1538 1317Q1427 1239 1365 1111Q1303 983 1301 831L1301 737Q1301 554 1365 417.5Q1429 281 1546 206Q1663 131 1823 131Q1932 131 2014.5 165Q2097 199 2153 256.5Q2209 314 2239 383L2408 328Q2373 231 2293.5 149Q2214 67 2095.5 17.5Q1977 -32 1823 -32ZM688 128Q830 128 934 191Q1038 254 1094.5 358.5Q1151 463 1151 589L1151 811Q1131 792 1084.5 777Q1038 762 977.5 750.5Q917 739 857 731Q797 723 749 717Q619 701 527 667Q435 633 386 573.5Q337 514 337 421Q337 281 437 204.5Q537 128 688 128ZM664 -35Q525 -35 410 19.5Q295 74 227 177.5Q159 281 159 429Q159 543 202 621Q245 699 324 749.5Q403 800 511.5 829Q620 858 749 873Q878 889 967.5 901Q1057 913 1104 939Q1151 965 1151 1023L1151 1059Q1151 1216 1057 1306.5Q963 1397 789 1397Q623 1397 518.5 1324Q414 1251 372 1152L203 1213Q255 1339 347 1414.5Q439 1490 553 1523.5Q667 1557 784 1557Q864 1557 947 1538Q1030 1519 1104.5 1476Q1179 1433 1233.5 1360.5Q1288 1288 1311 1181L1249 347L1232 347Q1197 228 1111 142.5Q1025 57 908.5 11Q792 -35 664 -35Z" />
<glyph glyph-name="uni00E7" unicode="&#xe7;" horiz-adv-x="1567" d="M835 -32Q629 -32 476.5 71Q324 174 240 353Q156 532 156 761Q156 992 241.5 1172Q327 1352 479 1454.5Q631 1557 832 1557Q986 1557 1111 1497.5Q1236 1438 1317.5 1330.5Q1399 1223 1420 1080L1240 1080Q1212 1210 1105.5 1302.5Q999 1395 835 1395Q688 1395 575 1315.5Q462 1236 398.5 1094.5Q335 953 335 767Q335 580 397 436.5Q459 293 571.5 212Q684 131 835 131Q937 131 1021.5 169.5Q1106 208 1163.5 279Q1221 350 1241 448L1421 448Q1401 309 1322.5 200.5Q1244 92 1119.5 30Q995 -32 835 -32ZM744 8L896 8L881 -72Q967 -85 1027.5 -141.5Q1088 -198 1089 -307Q1088 -428 994.5 -499Q901 -570 719 -572L713 -447Q812 -445 869 -413.5Q926 -382 926 -312Q926 -237 873.5 -206Q821 -175 708 -169Z" />
<glyph glyph-name="uni00E8" unicode="&#xe8;" horiz-adv-x="1635" d="M856 -32Q641 -32 484 68.5Q327 169 241.5 347.5Q156 526 156 759Q156 991 241.5 1171.5Q327 1352 478.5 1454.5Q630 1557 829 1557Q954 1557 1070 1511.5Q1186 1466 1278.5 1372.5Q1371 1279 1425 1137.5Q1479 996 1479 803L1479 715L279 715L279 872L1297 872Q1297 1020 1237.5 1138.5Q1178 1257 1072.5 1326Q967 1395 829 1395Q683 1395 572 1317Q461 1239 398.5 1111Q336 983 335 831L335 737Q335 554 398.5 417.5Q462 281 579 206Q696 131 856 131Q965 131 1047.5 165Q1130 199 1186.5 256.5Q1243 314 1272 383L1441 328Q1406 231 1326.5 149Q1247 67 1128.5 17.5Q1010 -32 856 -32ZM744 1749L437 2203L648 2203L904 1749Z" />
<glyph glyph-name="uni00E9" unicode="&#xe9;" horiz-adv-x="1635" d="M856 -32Q641 -32 484 68.5Q327 169 241.5 347.5Q156 526 156 759Q156 991 241.5 1171.5Q327 1352 478.5 1454.5Q630 1557 829 1557Q954 1557 1070 1511.5Q1186 1466 1278.5 1372.5Q1371 1279 1425 1137.5Q1479 996 1479 803L1479 715L279 715L279 872L1297 872Q1297 1020 1237.5 1138.5Q1178 1257 1072.5 1326Q967 1395 829 1395Q683 1395 572 1317Q461 1239 398.5 1111Q336 983 335 831L335 737Q335 554 398.5 417.5Q462 281 579 206Q696 131 856 131Q965 131 1047.5 165Q1130 199 1186.5 256.5Q1243 314 1272 383L1441 328Q1406 231 1326.5 149Q1247 67 1128.5 17.5Q1010 -32 856 -32ZM737 1749L993 2203L1204 2203L897 1749Z" />
<glyph glyph-name="uni00EA" unicode="&#xea;" horiz-adv-x="1635" d="M856 -32Q641 -32 484 68.5Q327 169 241.5 347.5Q156 526 156 759Q156 991 241.5 1171.5Q327 1352 478.5 1454.5Q630 1557 829 1557Q954 1557 1070 1511.5Q1186 1466 1278.5 1372.5Q1371 1279 1425 1137.5Q1479 996 1479 803L1479 715L279 715L279 872L1297 872Q1297 1020 1237.5 1138.5Q1178 1257 1072.5 1326Q967 1395 829 1395Q683 1395 572 1317Q461 1239 398.5 1111Q336 983 335 831L335 737Q335 554 398.5 417.5Q462 281 579 206Q696 131 856 131Q965 131 1047.5 165Q1130 199 1186.5 256.5Q1243 314 1272 383L1441 328Q1406 231 1326.5 149Q1247 67 1128.5 17.5Q1010 -32 856 -32ZM1059 1712L820 2001L581 1712L407 1712L407 1725L745 2128L895 2128L1233 1725L1233 1712Z" />
<glyph glyph-name="uni00EB" unicode="&#xeb;" horiz-adv-x="1635" d="M856 -32Q641 -32 484 68.5Q327 169 241.5 347.5Q156 526 156 759Q156 991 241.5 1171.5Q327 1352 478.5 1454.5Q630 1557 829 1557Q954 1557 1070 1511.5Q1186 1466 1278.5 1372.5Q1371 1279 1425 1137.5Q1479 996 1479 803L1479 715L279 715L279 872L1297 872Q1297 1020 1237.5 1138.5Q1178 1257 1072.5 1326Q967 1395 829 1395Q683 1395 572 1317Q461 1239 398.5 1111Q336 983 335 831L335 737Q335 554 398.5 417.5Q462 281 579 206Q696 131 856 131Q965 131 1047.5 165Q1130 199 1186.5 256.5Q1243 314 1272 383L1441 328Q1406 231 1326.5 149Q1247 67 1128.5 17.5Q1010 -32 856 -32ZM564 1800Q513 1800 474.5 1838.5Q436 1877 436 1928Q436 1983 474.5 2019.5Q513 2056 564 2056Q619 2056 655.5 2019.5Q692 1983 692 1928Q692 1877 655.5 1838.5Q619 1800 564 1800ZM1076 1800Q1025 1800 986.5 1838.5Q948 1877 948 1928Q948 1983 986.5 2019.5Q1025 2056 1076 2056Q1131 2056 1167.5 2019.5Q1204 1983 1204 1928Q1204 1877 1167.5 1838.5Q1131 1800 1076 1800Z" />
<glyph glyph-name="uni00EC" unicode="&#xec;" horiz-adv-x="653" d="M237 0L237 1536L416 1536L416 0ZM252 1749L-55 2203L156 2203L412 1749Z" />
<glyph glyph-name="uni00ED" unicode="&#xed;" horiz-adv-x="653" d="M237 0L237 1536L416 1536L416 0ZM245 1749L501 2203L712 2203L405 1749Z" />
<glyph glyph-name="uni00EE" unicode="&#xee;" horiz-adv-x="653" d="M237 0L237 1536L416 1536L416 0ZM567 1712L328 2001L89 1712L-85 1712L-85 1725L253 2128L403 2128L741 1725L741 1712Z" />
<glyph glyph-name="uni00EF" unicode="&#xef;" horiz-adv-x="653" d="M237 0L237 1536L416 1536L416 0ZM72 1800Q21 1800 -17.5 1838.5Q-56 1877 -56 1928Q-56 1983 -17.5 2019.5Q21 2056 72 2056Q127 2056 163.5 2019.5Q200 1983 200 1928Q200 1877 163.5 1838.5Q127 1800 72 1800ZM584 1800Q533 1800 494.5 1838.5Q456 1877 456 1928Q456 1983 494.5 2019.5Q533 2056 584 2056Q639 2056 675.5 2019.5Q712 1983 712 1928Q712 1877 675.5 1838.5Q639 1800 584 1800Z" />
<glyph glyph-name="uni00F0" unicode="&#xf0;" horiz-adv-x="1645" d="M1335 1969L527 1586L476 1705L1284 2088ZM823 -32Q624 -32 474 64.5Q324 161 240 328Q156 495 156 707Q156 923 240 1090Q324 1257 466 1352Q608 1447 783 1447Q898 1447 989 1407.5Q1080 1368 1147 1303.5Q1214 1239 1257 1163L1274 1163Q1223 1314 1126.5 1472.5Q1030 1631 875 1778Q720 1925 494 2043L570 2176Q751 2081 916 1939Q1081 1797 1210.5 1615Q1340 1433 1414 1216Q1488 999 1489 753Q1489 508 1404 332Q1319 156 1169 62Q1019 -32 823 -32ZM823 131Q975 131 1086 206.5Q1197 282 1256.5 410Q1316 538 1316 697Q1316 847 1259.5 984Q1203 1121 1093 1208Q983 1295 823 1295Q670 1295 561 1214.5Q452 1134 393.5 1000.5Q335 867 335 707Q335 553 391 421.5Q447 290 556 210.5Q665 131 823 131Z" />
<glyph glyph-name="uni00F1" unicode="&#xf1;" horiz-adv-x="1632" d="M413 960L413 0L235 0L235 1536L408 1536L408 1295L424 1295Q478 1413 592.5 1484.5Q707 1556 876 1556Q1031 1556 1148.5 1491.5Q1266 1427 1331.5 1302Q1397 1177 1397 995L1397 0L1219 0L1219 984Q1219 1173 1113.5 1283Q1008 1393 831 1393Q710 1393 616 1341Q522 1289 467.5 1191.5Q413 1094 413 960ZM480 1748L336 1756Q341 1889 424 1974Q507 2059 627 2059Q688 2059 734 2037.5Q780 2016 820.5 1988.5Q861 1961 903.5 1940Q946 1919 1000 1919Q1061 1919 1106.5 1963Q1152 2007 1158 2072L1299 2056Q1292 1922 1208.5 1841.5Q1125 1761 1008 1761Q941 1761 895.5 1782.5Q850 1804 813.5 1831.5Q777 1859 735.5 1880Q694 1901 635 1901Q571 1901 527.5 1857Q484 1813 480 1748Z" />
<glyph glyph-name="uni00F2" unicode="&#xf2;" horiz-adv-x="1664" d="M832 -32Q633 -32 480.5 69Q328 170 242 348.5Q156 527 156 761Q156 997 242 1176.5Q328 1356 480.5 1456.5Q633 1557 832 1557Q1031 1557 1183 1456Q1335 1355 1421.5 1176Q1508 997 1508 761Q1508 527 1422 348.5Q1336 170 1183.5 69Q1031 -32 832 -32ZM832 131Q992 131 1103 217Q1214 303 1271.5 446Q1329 589 1329 761Q1329 933 1271.5 1077Q1214 1221 1103 1308Q992 1395 832 1395Q673 1395 561.5 1308Q450 1221 392.5 1077Q335 933 335 761Q335 589 392.5 446Q450 303 561 217Q672 131 832 131ZM756 1749L449 2203L660 2203L916 1749Z" />
<glyph glyph-name="uni00F3" unicode="&#xf3;" horiz-adv-x="1664" d="M832 -32Q633 -32 480.5 69Q328 170 242 348.5Q156 527 156 761Q156 997 242 1176.5Q328 1356 480.5 1456.5Q633 1557 832 1557Q1031 1557 1183 1456Q1335 1355 1421.5 1176Q1508 997 1508 761Q1508 527 1422 348.5Q1336 170 1183.5 69Q1031 -32 832 -32ZM832 131Q992 131 1103 217Q1214 303 1271.5 446Q1329 589 1329 761Q1329 933 1271.5 1077Q1214 1221 1103 1308Q992 1395 832 1395Q673 1395 561.5 1308Q450 1221 392.5 1077Q335 933 335 761Q335 589 392.5 446Q450 303 561 217Q672 131 832 131ZM749 1749L1005 2203L1216 2203L909 1749Z" />
<glyph glyph-name="uni00F4" unicode="&#xf4;" horiz-adv-x="1664" d="M832 -32Q633 -32 480.5 69Q328 170 242 348.5Q156 527 156 761Q156 997 242 1176.5Q328 1356 480.5 1456.5Q633 1557 832 1557Q1031 1557 1183 1456Q1335 1355 1421.5 1176Q1508 997 1508 761Q1508 527 1422 348.5Q1336 170 1183.5 69Q1031 -32 832 -32ZM832 131Q992 131 1103 217Q1214 303 1271.5 446Q1329 589 1329 761Q1329 933 1271.5 1077Q1214 1221 1103 1308Q992 1395 832 1395Q673 1395 561.5 1308Q450 1221 392.5 1077Q335 933 335 761Q335 589 392.5 446Q450 303 561 217Q672 131 832 131ZM1071 1712L832 2001L593 1712L419 1712L419 1725L757 2128L907 2128L1245 1725L1245 1712Z" />
<glyph glyph-name="uni00F5" unicode="&#xf5;" horiz-adv-x="1664" d="M832 -32Q633 -32 480.5 69Q328 170 242 348.5Q156 527 156 761Q156 997 242 1176.5Q328 1356 480.5 1456.5Q633 1557 832 1557Q1031 1557 1183 1456Q1335 1355 1421.5 1176Q1508 997 1508 761Q1508 527 1422 348.5Q1336 170 1183.5 69Q1031 -32 832 -32ZM832 131Q992 131 1103 217Q1214 303 1271.5 446Q1329 589 1329 761Q1329 933 1271.5 1077Q1214 1221 1103 1308Q992 1395 832 1395Q673 1395 561.5 1308Q450 1221 392.5 1077Q335 933 335 761Q335 589 392.5 446Q450 303 561 217Q672 131 832 131ZM494 1748L350 1756Q355 1889 438 1974Q521 2059 641 2059Q702 2059 748 2037.5Q794 2016 834.5 1988.5Q875 1961 917.5 1940Q960 1919 1014 1919Q1075 1919 1120.5 1963Q1166 2007 1172 2072L1313 2056Q1306 1922 1222.5 1841.5Q1139 1761 1022 1761Q955 1761 909.5 1782.5Q864 1804 827.5 1831.5Q791 1859 749.5 1880Q708 1901 649 1901Q585 1901 541.5 1857Q498 1813 494 1748Z" />
<glyph glyph-name="uni00F6" unicode="&#xf6;" horiz-adv-x="1664" d="M832 -32Q633 -32 480.5 69Q328 170 242 348.5Q156 527 156 761Q156 997 242 1176.5Q328 1356 480.5 1456.5Q633 1557 832 1557Q1031 1557 1183 1456Q1335 1355 1421.5 1176Q1508 997 1508 761Q1508 527 1422 348.5Q1336 170 1183.5 69Q1031 -32 832 -32ZM832 131Q992 131 1103 217Q1214 303 1271.5 446Q1329 589 1329 761Q1329 933 1271.5 1077Q1214 1221 1103 1308Q992 1395 832 1395Q673 1395 561.5 1308Q450 1221 392.5 1077Q335 933 335 761Q335 589 392.5 446Q450 303 561 217Q672 131 832 131ZM576 1800Q525 1800 486.5 1838.5Q448 1877 448 1928Q448 1983 486.5 2019.5Q525 2056 576 2056Q631 2056 667.5 2019.5Q704 1983 704 1928Q704 1877 667.5 1838.5Q631 1800 576 1800ZM1088 1800Q1037 1800 998.5 1838.5Q960 1877 960 1928Q960 1983 998.5 2019.5Q1037 2056 1088 2056Q1143 2056 1179.5 2019.5Q1216 1983 1216 1928Q1216 1877 1179.5 1838.5Q1143 1800 1088 1800Z" />
<glyph glyph-name="uni00F7" unicode="&#xf7;" horiz-adv-x="1835" d="M1537 885L1537 715L297 715L297 885ZM917 160Q857 160 815 202Q773 244 773 304Q773 362 815 403.5Q857 445 917 445Q975 445 1017 403.5Q1059 362 1059 304Q1059 244 1017 202Q975 160 917 160ZM917 1155Q877 1155 844.5 1174Q812 1193 792.5 1226Q773 1259 773 1299Q773 1357 815 1398.5Q857 1440 917 1440Q975 1440 1017 1398.5Q1059 1357 1059 1299Q1059 1239 1017 1197Q975 1155 917 1155Z" />
<glyph glyph-name="uni00F8" unicode="&#xf8;" horiz-adv-x="1664" d="M357 -69L237 12L1307 1597L1427 1516ZM832 -31Q633 -31 480.5 70Q328 171 242 350Q156 529 156 763Q156 998 242 1177.5Q328 1357 480.5 1458Q633 1559 832 1559Q1031 1559 1183 1458Q1335 1357 1421.5 1177.5Q1508 998 1508 763Q1508 529 1422 350Q1336 171 1183.5 70Q1031 -31 832 -31ZM832 132Q992 132 1103 218Q1214 304 1271.5 447.5Q1329 591 1329 763Q1329 935 1271.5 1078.5Q1214 1222 1103 1309Q992 1396 832 1396Q673 1396 561.5 1309Q450 1222 392.5 1078.5Q335 935 335 763Q335 591 392.5 447.5Q450 304 561 218Q672 132 832 132Z" />
<glyph glyph-name="uni00F9" unicode="&#xf9;" horiz-adv-x="1624" d="M1211 587L1211 1536L1389 1536L1389 0L1211 0L1211 255L1197 255Q1143 137 1026 58.5Q909 -20 740 -20Q593 -20 479 44.5Q365 109 300 234Q235 359 235 541L235 1536L413 1536L413 552Q413 372 519 262.5Q625 153 791 153Q895 153 991 203Q1087 253 1149 349.5Q1211 446 1211 587ZM737 1749L430 2203L641 2203L897 1749Z" />
<glyph glyph-name="uni00FA" unicode="&#xfa;" horiz-adv-x="1624" d="M1211 587L1211 1536L1389 1536L1389 0L1211 0L1211 255L1197 255Q1143 137 1026 58.5Q909 -20 740 -20Q593 -20 479 44.5Q365 109 300 234Q235 359 235 541L235 1536L413 1536L413 552Q413 372 519 262.5Q625 153 791 153Q895 153 991 203Q1087 253 1149 349.5Q1211 446 1211 587ZM730 1749L986 2203L1197 2203L890 1749Z" />
<glyph glyph-name="uni00FB" unicode="&#xfb;" horiz-adv-x="1624" d="M1211 587L1211 1536L1389 1536L1389 0L1211 0L1211 255L1197 255Q1143 137 1026 58.5Q909 -20 740 -20Q593 -20 479 44.5Q365 109 300 234Q235 359 235 541L235 1536L413 1536L413 552Q413 372 519 262.5Q625 153 791 153Q895 153 991 203Q1087 253 1149 349.5Q1211 446 1211 587ZM1052 1712L813 2001L574 1712L400 1712L400 1725L738 2128L888 2128L1226 1725L1226 1712Z" />
<glyph glyph-name="uni00FC" unicode="&#xfc;" horiz-adv-x="1624" d="M1211 587L1211 1536L1389 1536L1389 0L1211 0L1211 255L1197 255Q1143 137 1026 58.5Q909 -20 740 -20Q593 -20 479 44.5Q365 109 300 234Q235 359 235 541L235 1536L413 1536L413 552Q413 372 519 262.5Q625 153 791 153Q895 153 991 203Q1087 253 1149 349.5Q1211 446 1211 587ZM557 1800Q506 1800 467.5 1838.5Q429 1877 429 1928Q429 1983 467.5 2019.5Q506 2056 557 2056Q612 2056 648.5 2019.5Q685 1983 685 1928Q685 1877 648.5 1838.5Q612 1800 557 1800ZM1069 1800Q1018 1800 979.5 1838.5Q941 1877 941 1928Q941 1983 979.5 2019.5Q1018 2056 1069 2056Q1124 2056 1160.5 2019.5Q1197 1983 1197 1928Q1197 1877 1160.5 1838.5Q1124 1800 1069 1800Z" />
<glyph glyph-name="uni00FD" unicode="&#xfd;" horiz-adv-x="1536" d="M359 -576Q306 -576 260 -566Q214 -556 187 -544L235 -387Q326 -415 397 -407.5Q468 -400 523 -343.5Q578 -287 621 -171L677 -15L112 1536L305 1536L761 235L775 235L1231 1536L1424 1536L774 -243Q733 -354 673 -428.5Q613 -503 534.5 -539.5Q456 -576 359 -576ZM685 1749L941 2203L1152 2203L845 1749Z" />
<glyph glyph-name="uni00FE" unicode="&#xfe;" horiz-adv-x="1685" d="M232 2048L411 2048L411 1096L364 779L411 387L411 -576L232 -576ZM337 1243L427 1243Q458 1312 514 1384.5Q570 1457 662.5 1507Q755 1557 896 1557Q1086 1557 1229 1457.5Q1372 1358 1451.5 1179.5Q1531 1001 1531 764Q1531 526 1451 347Q1371 168 1229 68Q1087 -32 899 -32Q759 -32 665.5 18Q572 68 514.5 141.5Q457 215 427 285L337 285ZM1352 767Q1352 944 1297.5 1086Q1243 1228 1137.5 1311.5Q1032 1395 877 1395Q727 1395 622 1314.5Q517 1234 462.5 1092.5Q408 951 408 767Q408 581 463.5 437.5Q519 294 624 212.5Q729 131 877 131Q1030 131 1136 215.5Q1242 300 1297 444Q1352 588 1352 767Z" />
<glyph glyph-name="uni00FF" unicode="&#xff;" horiz-adv-x="1536" d="M359 -576Q306 -576 260 -566Q214 -556 187 -544L235 -387Q326 -415 397 -407.5Q468 -400 523 -343.5Q578 -287 621 -171L677 -15L112 1536L305 1536L761 235L775 235L1231 1536L1424 1536L774 -243Q733 -354 673 -428.5Q613 -503 534.5 -539.5Q456 -576 359 -576ZM512 1800Q461 1800 422.5 1838.5Q384 1877 384 1928Q384 1983 422.5 2019.5Q461 2056 512 2056Q567 2056 603.5 2019.5Q640 1983 640 1928Q640 1877 603.5 1838.5Q567 1800 512 1800ZM1024 1800Q973 1800 934.5 1838.5Q896 1877 896 1928Q896 1983 934.5 2019.5Q973 2056 1024 2056Q1079 2056 1115.5 2019.5Q1152 1983 1152 1928Q1152 1877 1115.5 1838.5Q1079 1800 1024 1800Z" />
<glyph glyph-name="uni0100" unicode="&#x0100;" horiz-adv-x="1848" d="M275 0L79 0L824 2048L1024 2048L1769 0L1573 0L931 1805L917 1805ZM416 785L1432 785L1432 617L416 617ZM1342 2515L1342 2360L505 2360L505 2515Z" />
<glyph glyph-name="uni0101" unicode="&#x0101;" horiz-adv-x="1567" d="M664 -35Q525 -35 410 19.5Q295 74 227 177.5Q159 281 159 429Q159 543 202 621Q245 699 324 749Q403 799 511 828Q619 857 749 873Q878 889 967.5 901Q1057 913 1104 939Q1151 965 1151 1023L1151 1059Q1151 1216 1057.5 1306.5Q964 1397 789 1397Q623 1397 518.5 1324Q414 1251 372 1152L203 1213Q255 1339 347 1414.5Q439 1490 553 1523.5Q667 1557 784 1557Q872 1557 967.5 1534Q1063 1511 1145 1454.5Q1227 1398 1278 1297.5Q1329 1197 1329 1043L1329 0L1151 0L1151 243L1140 243Q1108 175 1045 111Q982 47 887 6Q792 -35 664 -35ZM688 128Q830 128 934 191Q1038 254 1094.5 358.5Q1151 463 1151 589L1151 811Q1131 792 1084.5 777Q1038 762 977.5 750.5Q917 739 857 731Q797 723 749 717Q619 701 527 667Q435 633 386 573.5Q337 514 337 421Q337 281 437 204.5Q537 128 688 128ZM1218 2003L1218 1848L381 1848L381 2003Z" />
<glyph glyph-name="uni0102" unicode="&#x0102;" horiz-adv-x="1848" d="M275 0L79 0L824 2048L1024 2048L1769 0L1573 0L931 1805L917 1805ZM416 785L1432 785L1432 617L416 617ZM1108 2560L1276 2560Q1276 2417 1181.5 2328Q1087 2239 924 2239Q763 2239 669 2328Q575 2417 575 2560L743 2560Q743 2482 785.5 2428.5Q828 2375 924 2375Q1020 2375 1064 2428.5Q1108 2482 1108 2560Z" />
<glyph glyph-name="uni0103" unicode="&#x0103;" horiz-adv-x="1567" d="M664 -35Q525 -35 410 19.5Q295 74 227 177.5Q159 281 159 429Q159 543 202 621Q245 699 324 749Q403 799 511 828Q619 857 749 873Q878 889 967.5 901Q1057 913 1104 939Q1151 965 1151 1023L1151 1059Q1151 1216 1057.5 1306.5Q964 1397 789 1397Q623 1397 518.5 1324Q414 1251 372 1152L203 1213Q255 1339 347 1414.5Q439 1490 553 1523.5Q667 1557 784 1557Q872 1557 967.5 1534Q1063 1511 1145 1454.5Q1227 1398 1278 1297.5Q1329 1197 1329 1043L1329 0L1151 0L1151 243L1140 243Q1108 175 1045 111Q982 47 887 6Q792 -35 664 -35ZM688 128Q830 128 934 191Q1038 254 1094.5 358.5Q1151 463 1151 589L1151 811Q1131 792 1084.5 777Q1038 762 977.5 750.5Q917 739 857 731Q797 723 749 717Q619 701 527 667Q435 633 386 573.5Q337 514 337 421Q337 281 437 204.5Q537 128 688 128ZM984 2048L1152 2048Q1152 1905 1057.5 1816Q963 1727 800 1727Q639 1727 545 1816Q451 1905 451 2048L619 2048Q619 1970 661.5 1916.5Q704 1863 800 1863Q896 1863 940 1916.5Q984 1970 984 2048Z" />
<glyph glyph-name="uni0104" unicode="&#x0104;" horiz-adv-x="1848" d="M275 0L79 0L824 2048L1024 2048L1769 0L1573 0L931 1805L917 1805ZM416 785L1432 785L1432 617L416 617ZM1628 -603Q1512 -603 1436 -538Q1360 -473 1360 -349Q1360 -275 1393.5 -205Q1427 -135 1496.5 -69.5Q1566 -4 1676 56L1770 0Q1675 -78 1608.5 -157Q1542 -236 1542 -327Q1542 -387 1572.5 -417.5Q1603 -448 1668 -448Q1713 -448 1747.5 -435.5Q1782 -423 1808 -407L1831 -541Q1795 -566 1744.5 -584.5Q1694 -603 1628 -603Z" />
<glyph glyph-name="uni0105" unicode="&#x0105;" horiz-adv-x="1567" d="M664 -35Q525 -35 410 19.5Q295 74 227 177.5Q159 281 159 429Q159 543 202 621Q245 699 324 749Q403 799 511 828Q619 857 749 873Q878 889 967.5 901Q1057 913 1104 939Q1151 965 1151 1023L1151 1059Q1151 1216 1057.5 1306.5Q964 1397 789 1397Q623 1397 518.5 1324Q414 1251 372 1152L203 1213Q255 1339 347 1414.5Q439 1490 553 1523.5Q667 1557 784 1557Q872 1557 967.5 1534Q1063 1511 1145 1454.5Q1227 1398 1278 1297.5Q1329 1197 1329 1043L1329 0L1151 0L1151 243L1140 243Q1108 175 1045 111Q982 47 887 6Q792 -35 664 -35ZM688 128Q830 128 934 191Q1038 254 1094.5 358.5Q1151 463 1151 589L1151 811Q1131 792 1084.5 777Q1038 762 977.5 750.5Q917 739 857 731Q797 723 749 717Q619 701 527 667Q435 633 386 573.5Q337 514 337 421Q337 281 437 204.5Q537 128 688 128ZM1188 -603Q1072 -603 996 -538Q920 -473 920 -349Q920 -275 953.5 -205Q987 -135 1056.5 -69.5Q1126 -4 1236 56L1330 0Q1235 -78 1168.5 -157Q1102 -236 1102 -327Q1102 -387 1132.5 -417.5Q1163 -448 1228 -448Q1273 -448 1307.5 -435.5Q1342 -423 1368 -407L1391 -541Q1355 -566 1304.5 -584.5Q1254 -603 1188 -603Z" />
<glyph glyph-name="uni0106" unicode="&#x0106;" horiz-adv-x="2044" d="M1876 1408L1688 1408Q1667 1513 1612.5 1602.5Q1558 1692 1476 1759Q1394 1826 1290 1863Q1186 1900 1065 1900Q871 1900 711.5 1799Q552 1698 456.5 1502.5Q361 1307 361 1024Q361 739 456.5 544Q552 349 711.5 248.5Q871 148 1065 148Q1186 148 1290 185Q1394 222 1476 288.5Q1558 355 1612.5 445Q1667 535 1688 640L1876 640Q1851 499 1782.5 377.5Q1714 256 1608.5 165Q1503 74 1366 23Q1229 -28 1065 -28Q807 -28 607 101.5Q407 231 293.5 467Q180 703 180 1024Q180 1345 293.5 1581Q407 1817 607 1946.5Q807 2076 1065 2076Q1229 2076 1366 2025.5Q1503 1975 1608.5 1883.5Q1714 1792 1782.5 1671Q1851 1550 1876 1408ZM982 2261L1238 2715L1449 2715L1142 2261Z" />
<glyph glyph-name="uni0107" unicode="&#x0107;" horiz-adv-x="1567" d="M835 -32Q629 -32 476.5 71Q324 174 240 353Q156 532 156 761Q156 992 241.5 1172Q327 1352 479 1454.5Q631 1557 832 1557Q986 1557 1111 1497.5Q1236 1438 1317.5 1330.5Q1399 1223 1420 1080L1240 1080Q1212 1210 1105.5 1302.5Q999 1395 835 1395Q688 1395 575 1315.5Q462 1236 398.5 1094.5Q335 953 335 767Q335 580 397 436.5Q459 293 571.5 212Q684 131 835 131Q937 131 1021.5 169.5Q1106 208 1163.5 279Q1221 350 1241 448L1421 448Q1401 309 1322.5 200.5Q1244 92 1119.5 30Q995 -32 835 -32ZM741 1749L997 2203L1208 2203L901 1749Z" />
<glyph glyph-name="uni0108" unicode="&#x0108;" horiz-adv-x="2044" d="M1876 1408L1688 1408Q1667 1513 1612.5 1602.5Q1558 1692 1476 1759Q1394 1826 1290 1863Q1186 1900 1065 1900Q871 1900 711.5 1799Q552 1698 456.5 1502.5Q361 1307 361 1024Q361 739 456.5 544Q552 349 711.5 248.5Q871 148 1065 148Q1186 148 1290 185Q1394 222 1476 288.5Q1558 355 1612.5 445Q1667 535 1688 640L1876 640Q1851 499 1782.5 377.5Q1714 256 1608.5 165Q1503 74 1366 23Q1229 -28 1065 -28Q807 -28 607 101.5Q407 231 293.5 467Q180 703 180 1024Q180 1345 293.5 1581Q407 1817 607 1946.5Q807 2076 1065 2076Q1229 2076 1366 2025.5Q1503 1975 1608.5 1883.5Q1714 1792 1782.5 1671Q1851 1550 1876 1408ZM1304 2224L1065 2513L826 2224L652 2224L652 2237L990 2640L1140 2640L1478 2237L1478 2224Z" />
<glyph glyph-name="uni0109" unicode="&#x0109;" horiz-adv-x="1567" d="M835 -32Q629 -32 476.5 71Q324 174 240 353Q156 532 156 761Q156 992 241.5 1172Q327 1352 479 1454.5Q631 1557 832 1557Q986 1557 1111 1497.5Q1236 1438 1317.5 1330.5Q1399 1223 1420 1080L1240 1080Q1212 1210 1105.5 1302.5Q999 1395 835 1395Q688 1395 575 1315.5Q462 1236 398.5 1094.5Q335 953 335 767Q335 580 397 436.5Q459 293 571.5 212Q684 131 835 131Q937 131 1021.5 169.5Q1106 208 1163.5 279Q1221 350 1241 448L1421 448Q1401 309 1322.5 200.5Q1244 92 1119.5 30Q995 -32 835 -32ZM1063 1712L824 2001L585 1712L411 1712L411 1725L749 2128L899 2128L1237 1725L1237 1712Z" />
<glyph glyph-name="uni010A" unicode="&#x010a;" horiz-adv-x="2044" d="M1876 1408L1688 1408Q1667 1513 1612.5 1602.5Q1558 1692 1476 1759Q1394 1826 1290 1863Q1186 1900 1065 1900Q871 1900 711.5 1799Q552 1698 456.5 1502.5Q361 1307 361 1024Q361 739 456.5 544Q552 349 711.5 248.5Q871 148 1065 148Q1186 148 1290 185Q1394 222 1476 288.5Q1558 355 1612.5 445Q1667 535 1688 640L1876 640Q1851 499 1782.5 377.5Q1714 256 1608.5 165Q1503 74 1366 23Q1229 -28 1065 -28Q807 -28 607 101.5Q407 231 293.5 467Q180 703 180 1024Q180 1345 293.5 1581Q407 1817 607 1946.5Q807 2076 1065 2076Q1229 2076 1366 2025.5Q1503 1975 1608.5 1883.5Q1714 1792 1782.5 1671Q1851 1550 1876 1408ZM1065 2312Q1011 2312 971.5 2349.5Q932 2387 932 2440Q932 2493 971.5 2530.5Q1011 2568 1065 2568Q1120 2568 1159.5 2530.5Q1199 2493 1199 2440Q1199 2387 1159.5 2349.5Q1120 2312 1065 2312Z" />
<glyph glyph-name="uni010B" unicode="&#x010b;" horiz-adv-x="1567" d="M835 -32Q629 -32 476.5 71Q324 174 240 353Q156 532 156 761Q156 992 241.5 1172Q327 1352 479 1454.5Q631 1557 832 1557Q986 1557 1111 1497.5Q1236 1438 1317.5 1330.5Q1399 1223 1420 1080L1240 1080Q1212 1210 1105.5 1302.5Q999 1395 835 1395Q688 1395 575 1315.5Q462 1236 398.5 1094.5Q335 953 335 767Q335 580 397 436.5Q459 293 571.5 212Q684 131 835 131Q937 131 1021.5 169.5Q1106 208 1163.5 279Q1221 350 1241 448L1421 448Q1401 309 1322.5 200.5Q1244 92 1119.5 30Q995 -32 835 -32ZM824 1800Q770 1800 730.5 1837.5Q691 1875 691 1928Q691 1981 730.5 2018.5Q770 2056 824 2056Q879 2056 918.5 2018.5Q958 1981 958 1928Q958 1875 918.5 1837.5Q879 1800 824 1800Z" />
<glyph glyph-name="uni010C" unicode="&#x010c;" horiz-adv-x="2044" d="M1876 1408L1688 1408Q1667 1513 1612.5 1602.5Q1558 1692 1476 1759Q1394 1826 1290 1863Q1186 1900 1065 1900Q871 1900 711.5 1799Q552 1698 456.5 1502.5Q361 1307 361 1024Q361 739 456.5 544Q552 349 711.5 248.5Q871 148 1065 148Q1186 148 1290 185Q1394 222 1476 288.5Q1558 355 1612.5 445Q1667 535 1688 640L1876 640Q1851 499 1782.5 377.5Q1714 256 1608.5 165Q1503 74 1366 23Q1229 -28 1065 -28Q807 -28 607 101.5Q407 231 293.5 467Q180 703 180 1024Q180 1345 293.5 1581Q407 1817 607 1946.5Q807 2076 1065 2076Q1229 2076 1366 2025.5Q1503 1975 1608.5 1883.5Q1714 1792 1782.5 1671Q1851 1550 1876 1408ZM826 2658L1065 2368L1304 2658L1478 2658L1478 2644L1140 2242L990 2242L652 2644L652 2658Z" />
<glyph glyph-name="uni010D" unicode="&#x010d;" horiz-adv-x="1567" d="M835 -32Q629 -32 476.5 71Q324 174 240 353Q156 532 156 761Q156 992 241.5 1172Q327 1352 479 1454.5Q631 1557 832 1557Q986 1557 1111 1497.5Q1236 1438 1317.5 1330.5Q1399 1223 1420 1080L1240 1080Q1212 1210 1105.5 1302.5Q999 1395 835 1395Q688 1395 575 1315.5Q462 1236 398.5 1094.5Q335 953 335 767Q335 580 397 436.5Q459 293 571.5 212Q684 131 835 131Q937 131 1021.5 169.5Q1106 208 1163.5 279Q1221 350 1241 448L1421 448Q1401 309 1322.5 200.5Q1244 92 1119.5 30Q995 -32 835 -32ZM585 2146L824 1856L1063 2146L1237 2146L1237 2132L899 1730L749 1730L411 2132L411 2146Z" />
<glyph glyph-name="uni010E" unicode="&#x010e;" horiz-adv-x="2020" d="M872 0L272 0L272 2048L908 2048Q1201 2048 1409.5 1926Q1618 1804 1729 1576Q1840 1348 1840 1029Q1840 707 1726.5 476.5Q1613 246 1396.5 123Q1180 0 872 0ZM459 168L861 168Q1125 168 1303 272Q1481 376 1570 569Q1659 762 1659 1029Q1658 1294 1571.5 1485Q1485 1676 1315.5 1778Q1146 1880 897 1880L459 1880ZM616 2658L855 2368L1094 2658L1268 2658L1268 2644L930 2242L780 2242L442 2644L442 2658Z" />
<glyph glyph-name="uni010F" unicode="&#x010f;" horiz-adv-x="1798" d="M788 -32Q599 -32 457 68Q315 168 235.5 347Q156 526 156 764Q156 1001 235.5 1179.5Q315 1358 458 1457.5Q601 1557 791 1557Q931 1557 1024 1507.5Q1117 1458 1173 1385Q1229 1312 1260 1243L1276 1243L1276 2048L1455 2048L1455 0L1281 0L1281 285L1260 285Q1229 215 1172 141.5Q1115 68 1021.5 18Q928 -32 788 -32ZM809 131Q958 131 1063 212.5Q1168 294 1223.5 437.5Q1279 581 1279 767Q1279 951 1224 1092.5Q1169 1234 1064 1314.5Q959 1395 809 1395Q655 1395 549.5 1311.5Q444 1228 389.5 1086Q335 944 335 767Q335 588 390 444Q445 300 550.5 215.5Q656 131 809 131ZM1646 1626L1646 2144L1830 2144L1778 1626Z" />
<glyph glyph-name="uni0110" unicode="&#x0110;" horiz-adv-x="2020" d="M872 0L376 0L376 168L861 168Q1125 168 1303 272Q1481 376 1570 569Q1659 762 1659 1029Q1658 1294 1571.5 1485Q1485 1676 1315.5 1778Q1146 1880 897 1880L368 1880L368 2048L908 2048Q1201 2048 1409.5 1926Q1618 1804 1729 1576Q1840 1348 1840 1029Q1840 707 1726.5 476.5Q1613 246 1396.5 123Q1180 0 872 0ZM459 2048L459 0L272 0L272 2048ZM-55 979L-55 1123L785 1123L785 979Z" />
<glyph glyph-name="uni0111" unicode="&#x0111;" horiz-adv-x="1727" d="M788 -32Q599 -32 457 68Q315 168 235.5 347Q156 526 156 764Q156 1001 235.5 1179.5Q315 1358 458 1457.5Q601 1557 791 1557Q931 1557 1024 1507.5Q1117 1458 1173 1385Q1229 1312 1260 1243L1276 1243L1276 2048L1455 2048L1455 0L1281 0L1281 285L1260 285Q1229 215 1172 141.5Q1115 68 1021.5 18Q928 -32 788 -32ZM809 131Q958 131 1063 212.5Q1168 294 1223.5 437.5Q1279 581 1279 767Q1279 951 1224 1092.5Q1169 1234 1064 1314.5Q959 1395 809 1395Q655 1395 549.5 1311.5Q444 1228 389.5 1086Q335 944 335 767Q335 588 390 444Q445 300 550.5 215.5Q656 131 809 131ZM851 1688L851 1832L1691 1832L1691 1688Z" />
<glyph glyph-name="uni0112" unicode="&#x0112;" horiz-adv-x="1671" d="M272 0L272 2048L1460 2048L1460 1880L459 1880L459 1109L1397 1109L1397 941L459 941L459 168L1480 168L1480 0ZM1285 2515L1285 2360L448 2360L448 2515Z" />
<glyph glyph-name="uni0113" unicode="&#x0113;" horiz-adv-x="1635" d="M856 -32Q641 -32 484 68.5Q327 169 241.5 347.5Q156 526 156 759Q156 991 241.5 1171.5Q327 1352 478.5 1454.5Q630 1557 829 1557Q954 1557 1070 1511.5Q1186 1466 1278.5 1372.5Q1371 1279 1425 1137.5Q1479 996 1479 803L1479 715L279 715L279 872L1297 872Q1297 1020 1237.5 1138.5Q1178 1257 1072.5 1326Q967 1395 829 1395Q683 1395 572 1317Q461 1239 398.5 1111Q336 983 335 831L335 737Q335 554 398.5 417.5Q462 281 579 206Q696 131 856 131Q965 131 1047.5 165Q1130 199 1186.5 256.5Q1243 314 1272 383L1441 328Q1406 231 1326.5 149Q1247 67 1128.5 17.5Q1010 -32 856 -32ZM1238 2003L1238 1848L401 1848L401 2003Z" />
<glyph glyph-name="uni0114" unicode="&#x0114;" horiz-adv-x="1671" d="M272 0L272 2048L1460 2048L1460 1880L459 1880L459 1109L1397 1109L1397 941L459 941L459 168L1480 168L1480 0ZM1051 2560L1219 2560Q1219 2417 1124.5 2328Q1030 2239 867 2239Q706 2239 612 2328Q518 2417 518 2560L686 2560Q686 2482 728.5 2428.5Q771 2375 867 2375Q963 2375 1007 2428.5Q1051 2482 1051 2560Z" />
<glyph glyph-name="uni0115" unicode="&#x0115;" horiz-adv-x="1635" d="M856 -32Q641 -32 484 68.5Q327 169 241.5 347.5Q156 526 156 759Q156 991 241.5 1171.5Q327 1352 478.5 1454.5Q630 1557 829 1557Q954 1557 1070 1511.5Q1186 1466 1278.5 1372.5Q1371 1279 1425 1137.5Q1479 996 1479 803L1479 715L279 715L279 872L1297 872Q1297 1020 1237.5 1138.5Q1178 1257 1072.5 1326Q967 1395 829 1395Q683 1395 572 1317Q461 1239 398.5 1111Q336 983 335 831L335 737Q335 554 398.5 417.5Q462 281 579 206Q696 131 856 131Q965 131 1047.5 165Q1130 199 1186.5 256.5Q1243 314 1272 383L1441 328Q1406 231 1326.5 149Q1247 67 1128.5 17.5Q1010 -32 856 -32ZM1004 2048L1172 2048Q1172 1905 1077.5 1816Q983 1727 820 1727Q659 1727 565 1816Q471 1905 471 2048L639 2048Q639 1970 681.5 1916.5Q724 1863 820 1863Q916 1863 960 1916.5Q1004 1970 1004 2048Z" />
</font>
</defs>
</svg>
