<?xml version="1.0" encoding="UTF-8" standalone="no"?>
<svg
   version="1.1"
   width="160"
   height="40"
   x="0"
   y="0"
   viewBox="0 0 160 40"
   xml:space="preserve"
   class=""
   id="svg4"
   sodipodi:docname="brand-source.svg"
   inkscape:version="1.2.2 (b0a8486541, 2022-12-01)"
   xmlns:inkscape="http://www.inkscape.org/namespaces/inkscape"
   xmlns:sodipodi="http://sodipodi.sourceforge.net/DTD/sodipodi-0.dtd"
   xmlns="http://www.w3.org/2000/svg"
   xmlns:svg="http://www.w3.org/2000/svg"><defs
   id="defs8" /><sodipodi:namedview
   id="namedview6"
   pagecolor="#505050"
   bordercolor="#eeeeee"
   borderopacity="1"
   inkscape:showpageshadow="0"
   inkscape:pageopacity="0"
   inkscape:pagecheckerboard="0"
   inkscape:deskcolor="#505050"
   showgrid="false"
   inkscape:zoom="2.8558232"
   inkscape:cx="99.796094"
   inkscape:cy="84.213897"
   inkscape:window-width="1854"
   inkscape:window-height="1011"
   inkscape:window-x="0"
   inkscape:window-y="0"
   inkscape:window-maximized="1"
   inkscape:current-layer="svg4" />
  
<path
   fill="#0381fd"
   d="M 16.769868,9.3961073 V 20.037663 A 1.0641557,1.0641557 0 0 1 15.705713,21.10182 H 5.064156 A 1.0641557,1.0641557 0 0 1 4,20.037663 V 9.3961073 A 1.0641557,1.0641557 0 0 1 5.064156,8.3319516 h 10.641557 a 1.0641557,1.0641557 0 0 1 1.064155,1.0641557 z M 35.68843,11.836216 28.163785,4.3115712 a 1.0641557,1.0641557 0 0 0 -1.504717,0 l -7.524644,7.5246448 a 1.0641557,1.0641557 0 0 0 0,1.504716 l 7.524644,7.524645 a 1.0641557,1.0641557 0 0 0 1.504717,0 l 7.524645,-7.524645 a 1.0641557,1.0641557 0 0 0 0,-1.504716 z M 15.705713,23.230132 H 5.064156 A 1.0641557,1.0641557 0 0 0 4,24.294287 V 34.935845 A 1.0641557,1.0641557 0 0 0 5.064156,36 h 10.641557 a 1.0641557,1.0641557 0 0 0 1.064155,-1.064155 V 24.294287 a 1.0641557,1.0641557 0 0 0 -1.064155,-1.064155 z m 14.89818,0 H 19.962336 a 1.0641557,1.0641557 0 0 0 -1.064155,1.064155 V 34.935845 A 1.0641557,1.0641557 0 0 0 19.962336,36 h 10.641557 a 1.0641557,1.0641557 0 0 0 1.064156,-1.064155 V 24.294287 a 1.0641557,1.0641557 0 0 0 -1.064156,-1.064155 z"
   id="path2"
   style="stroke-width:1.06416" /><text
   xml:space="preserve"
   style="font-style:normal;font-variant:normal;font-weight:600;font-stretch:normal;font-size:30.3443px;font-family:'Playpen Sans';-inkscape-font-specification:'Playpen Sans Semi-Bold';fill:#ffffff;fill-opacity:1;stroke-width:0"
   x="46.316025"
   y="30.621265"
   id="text1753"
   transform="scale(0.94920654,1.0535115)"
   inkscape:label="text1753"><tspan
     sodipodi:role="line"
     id="tspan1751"
     x="46.316025"
     y="30.621265"
     style="stroke-width:0">Just UI</tspan></text><rect
   style="fill:none;stroke-width:0"
   id="rect460"
   width="160"
   height="40"
   x="0"
   y="0" /></svg>
