<svg class="" version="1.1" viewBox="0 0 160 40" xmlns="http://www.w3.org/2000/svg">
  <path d="m16.77 9.3961v10.642a1.0642 1.0642 0 0 1-1.0642 1.0642h-10.642a1.0642 1.0642 0 0 1-1.0642-1.0642v-10.642a1.0642 1.0642 0 0 1 1.0642-1.0642h10.642a1.0642 1.0642 0 0 1 1.0642 1.0642zm18.919 2.4401-7.5246-7.5246a1.0642 1.0642 0 0 0-1.5047 0l-7.5246 7.5246a1.0642 1.0642 0 0 0 0 1.5047l7.5246 7.5246a1.0642 1.0642 0 0 0 1.5047 0l7.5246-7.5246a1.0642 1.0642 0 0 0 0-1.5047zm-19.983 11.394h-10.642a1.0642 1.0642 0 0 0-1.0642 1.0642v10.642a1.0642 1.0642 0 0 0 1.0642 1.0642h10.642a1.0642 1.0642 0 0 0 1.0642-1.0642v-10.642a1.0642 1.0642 0 0 0-1.0642-1.0642zm14.898 0h-10.642a1.0642 1.0642 0 0 0-1.0642 1.0642v10.642a1.0642 1.0642 0 0 0 1.0642 1.0642h10.642a1.0642 1.0642 0 0 0 1.0642-1.0642v-10.642a1.0642 1.0642 0 0 0-1.0642-1.0642z" fill="#0381fd" stroke-width="1.0642"/>
  <g transform="scale(.94921 1.0535)" fill="#fff" stroke-width="0" aria-label="Just UI">
    <path d="m53.659 30.925q-1.3958 0-2.7917-0.5462-1.3958-0.5462-2.4275-1.4262-1.0317-0.91033-1.3958-2.0027-0.06069-0.21241-0.09103-0.42482t-0.03034-0.45516q0-0.78895 0.69792-1.3352 0.72826-0.5462 1.8207-0.5462 0.51585 0 0.78895 0.2731 0.30344 0.2731 0.5462 0.87998 0.36413 0.87998 1.0924 1.3958 0.75861 0.51585 1.6082 0.51585 0.8193 0 1.4262-0.45516 0.60689-0.45516 1.0014-1.4262 0.2731-0.66758 0.45516-1.5779 0.21241-0.94067 0.30344-2.0938 0.12138-1.1531 0.18207-2.3972 0.06069-1.2745 0.06069-2.6096 0-2.1544 0.15172-4.2482 0.15172-2.0938 0.39448-3.9144 0.12138-0.8193 0.66757-1.0621 0.57654-0.24275 1.2745-0.24275 0.5462 0 1.062 0.18207t0.8193 0.57654q0.33379 0.39448 0.24276 1.0317-0.09103 0.97102-0.18207 2.2758-0.09103 1.3048-0.15172 2.731-0.06069 1.4262-0.12138 2.731-0.09103 2.731-0.36413 5.4013-0.2731 2.6703-1.0924 5.0068-0.39448 1.1227-1.2138 1.9724-0.8193 0.84964-2.0331 1.3351-1.1834 0.45516-2.7006 0.45516z"/>
    <path d="m66.404 15.783q0.24275-1.0014 0.75861-1.3351 0.5462-0.33379 1.2441-0.33379t1.2138 0.24275 0.75861 0.72826 0.06069 1.3048q-0.33379 1.3351-0.60689 2.7917-0.24276 1.4565-0.39448 2.7613-0.12138 1.2745-0.12138 2.1241 0 0.72826 0.09103 1.4565 0.12138 0.72826 0.39448 1.2441 0.30344 0.48551 0.78895 0.48551 0.69792 0 1.3958-0.63723 0.72826-0.63723 1.3655-1.6386 0.66758-1.0014 1.1834-2.1544 0.5462-1.1531 0.87998-2.1848 0-1.0317 0.06069-2.0938 0.09103-1.0924 0.21241-2.0331 0.15172-0.94067 0.2731-1.5172 0.15172-0.69792 0.72826-1.0317 0.60689-0.33379 1.4262-0.33379 0.91033 0 1.4565 0.78895 0.5462 0.75861 0.5462 1.8207 0 0.39448-0.06069 0.84964-0.06069 0.45516-0.15172 0.97102-0.09103 0.48551-0.24275 1.0317-0.15172 0.51585-0.30344 1.0924-0.06069 0.5462-0.09103 1.2745-0.03034 0.69792-0.03034 1.2441 0 1.3351 0.12138 2.5489 0.15172 1.2138 0.33379 2.1241t0.2731 1.4262q0.18206 0.72826-0.09103 1.2441-0.2731 0.51585-0.78895 0.75861-0.51585 0.2731-1.062 0.2731-0.72826 0-1.2745-0.30344-0.5462-0.2731-0.75861-1.0621-0.18206-0.78895-0.33379-1.5779-0.12138-0.78895-0.21241-1.6689-0.48551 0.87998-1.0924 1.6993-0.57654 0.8193-1.2745 1.4869-0.69792 0.66757-1.5172 1.0317-0.8193 0.39448-1.7296 0.39448-1.7903 0-2.822-0.97102-1.0014-0.97102-1.4262-2.5489-0.39448-1.5779-0.39448-3.3379 0-1.1227 0.15172-2.5186 0.15172-1.3958 0.42482-2.9131 0.2731-1.5172 0.63723-3.0041z"/>
    <path d="m95.504 17.27q0 0.60689-0.48551 1.0317-0.45516 0.42482-1.2745 0.42482-0.42482 0-0.8193-0.18207-0.36413-0.18207-0.69792-0.42482-0.57654-0.42482-1.2138-0.72826-0.60689-0.30344-1.3958-0.30344-0.75861 0-1.2745 0.36413-0.48551 0.33379-0.48551 0.94067 0 0.36413 0.21241 0.69792 0.24275 0.30344 0.97102 0.72826 0.72826 0.42482 2.2455 1.1834 1.851 0.91033 2.7917 2.1241 0.94067 1.2138 0.94067 3.1558 0 1.2745-0.78895 2.3972-0.75861 1.0924-2.1848 1.7903-1.4262 0.66757-3.4896 0.66757-1.0014 0-2.0331-0.30344-1.0317-0.30344-1.9117-0.78895-0.87998-0.51585-1.4262-1.1531-0.51585-0.63723-0.51585-1.2745 0-0.75861 0.39448-1.2138 0.42482-0.48551 1.0317-0.48551 0.2731 0 0.57654 0.15172 0.33379 0.15172 0.72826 0.45516 0.33379 0.24275 0.84964 0.5462 0.5462 0.30344 1.1834 0.5462 0.63723 0.21241 1.2745 0.21241 0.91033 0 1.4869-0.45516 0.57654-0.48551 0.57654-1.1531 0-0.51585-0.42482-0.97102-0.42482-0.48551-1.5476-1.0014-2.7006-1.2745-3.9144-2.5186-1.1834-1.2745-1.1834-2.9737 0-1.3048 0.69792-2.3972 0.72826-1.1227 2.0634-1.7903t3.1862-0.66758q1.7903 0 3.0951 0.5462 1.3048 0.51585 2.0331 1.3048t0.72826 1.5172z"/>
    <path d="m103.88 31.016q-2.2151 0-3.2772-2.1848-1.062-2.1848-1.062-7.0095 0-1.0317 0.06069-2.0331 0.06069-1.0317 0.15172-2.0027-0.33379-0.03034-0.69792-0.06069-0.33379-0.03034-0.63723-0.09103-0.63723-0.15172-0.94067-0.51585-0.2731-0.39448-0.2731-1.0317 0-0.78895 0.42482-1.2745 0.42482-0.51585 1.1834-0.45516 0.30344 0.03034 0.60689 0.06069 0.30344 0 0.63723 0.03034 0.12137-0.91033 0.24275-1.8207t0.21241-1.6689q0.12138-0.72826 0.69792-1.062 0.60689-0.33379 1.3655-0.33379 1.062 0 1.6082 0.42482 0.57654 0.42482 0.51585 1.1834 0 0.24275-0.091 0.84964-0.091 0.57654-0.18206 1.2745-0.091 0.66757-0.15173 1.2441 0.69792 0 1.4869-0.03034 0.78896-0.03034 1.6689-0.12138 0.72826-0.06069 1.1227 0.45516 0.42482 0.48551 0.42482 1.2441 0 0.60689-0.39448 1.0317-0.36413 0.39448-1.1531 0.48551-0.78895 0.06069-1.6993 0.12138-0.87998 0.03034-1.8207 0.03034-0.0607 1.0317-0.091 2.0938-0.0303 1.0621-0.0303 2.0938 0 1.942 0.12137 3.1558 0.15172 1.1834 0.39448 1.7296 0.2731 0.5462 0.60688 0.5462 0.33379 0 0.72827-0.30344 0.39447-0.30344 0.97102-0.97102 0.36413-0.42482 0.69791-0.69792 0.33379-0.2731 0.60689-0.2731 0.72826 0 1.2745 0.51585t0.5462 1.3048q0 0.42482-0.30344 0.8193-0.2731 0.39448-0.8193 0.97102-0.57654 0.63723-1.3655 1.1531-0.75861 0.51585-1.6386 0.8193-0.87998 0.30344-1.7296 0.30344z"/>
    <path d="m123.39 8.8644q0.15172-0.72826 0.63723-1.1227 0.48551-0.42482 1.5779-0.42482 1.1227 0 1.6993 0.48551 0.60688 0.48551 0.48551 1.3048-0.091 0.39448-0.18207 1.3351-0.091 0.91033-0.18206 2.1241-0.091 1.2138-0.15173 2.5186-0.0607 1.2745-0.0607 2.3972 0 3.4289 0.39447 5.5227 0.42482 2.0938 1.4869 3.0648 1.062 0.94067 3.0041 0.94067 1.1227 0 2.0634-0.45516 0.94067-0.45516 1.6386-1.5779t1.0924-3.0648q0.39447-1.9724 0.39447-4.9765 0-2.3062-0.18206-4.3392-0.18207-2.0634-0.30345-3.9144-0.0607-0.72826 0.39448-1.1531 0.48551-0.45516 1.5476-0.45516 0.97102-0.030344 1.4565 0.2731 0.4855 0.30344 0.66757 0.78895 0.21241 0.48551 0.24275 1.0621 0.091 0.87998 0.15173 1.7296 0.091 0.84964 0.15172 1.8207 0.0607 0.94067 0.091 2.1544 0.0303 1.1834 0.0303 2.7613 0 2.7006-0.4855 5.0978-0.48551 2.3669-1.6082 4.2179-1.0924 1.8207-2.9131 2.8524-1.8206 1.0317-4.5213 1.0317-2.3972 0-4.0661-0.66758-1.6689-0.69792-2.731-1.942-1.062-1.2745-1.6082-2.9737-0.51585-1.6993-0.63723-3.7323-0.12137-1.1834-0.18206-2.7613-0.0303-1.5779 0-3.3075 0.0303-1.76 0.18206-3.4592 0.15172-1.7296 0.42482-3.1558z"/>
    <path d="m146.97 8.743q0.0303-0.78895 0.63724-1.1227 0.63723-0.36413 1.4565-0.36413 1.0014 0 1.6082 0.36413 0.63723 0.36413 0.57654 1.2441-0.45516 5.0978-0.72826 10.378-0.2731 5.2496-0.36413 10.378-0.0303 0.84964-0.69792 1.1834-0.63723 0.33379-1.5476 0.33379-0.84964 0-1.4565-0.36413-0.60688-0.36413-0.60688-1.3048 0.12137-5.0068 0.39447-10.256 0.2731-5.2799 0.72826-10.469z"/>
  </g>
  <path d="m0 0h160v40h-160z" fill="none" stroke-width="0"/>
</svg>
