<?xml version="1.0" encoding="UTF-8" standalone="no"?>
<svg
   version="1.1"
   width="160"
   height="40"
   x="0"
   y="0"
   viewBox="0 0 160 40"
   xml:space="preserve"
   class=""
   id="svg4"
   sodipodi:docname="brand.svg"
   inkscape:version="1.2.2 (b0a8486541, 2022-12-01)"
   xmlns:inkscape="http://www.inkscape.org/namespaces/inkscape"
   xmlns:sodipodi="http://sodipodi.sourceforge.net/DTD/sodipodi-0.dtd"
   xmlns="http://www.w3.org/2000/svg"
   xmlns:svg="http://www.w3.org/2000/svg"><defs
   id="defs8" /><sodipodi:namedview
   id="namedview6"
   pagecolor="#505050"
   bordercolor="#eeeeee"
   borderopacity="1"
   inkscape:showpageshadow="0"
   inkscape:pageopacity="0"
   inkscape:pagecheckerboard="0"
   inkscape:deskcolor="#505050"
   showgrid="false"
   inkscape:zoom="2.8558232"
   inkscape:cx="99.796094"
   inkscape:cy="84.213897"
   inkscape:window-width="1854"
   inkscape:window-height="1011"
   inkscape:window-x="0"
   inkscape:window-y="0"
   inkscape:window-maximized="1"
   inkscape:current-layer="svg4" />
  
<g
   id="g9987"><path
     fill="#0381fd"
     d="M 16.769868,9.3961073 V 20.037663 A 1.0641557,1.0641557 0 0 1 15.705713,21.10182 H 5.064156 A 1.0641557,1.0641557 0 0 1 4,20.037663 V 9.3961073 A 1.0641557,1.0641557 0 0 1 5.064156,8.3319516 h 10.641557 a 1.0641557,1.0641557 0 0 1 1.064155,1.0641557 z M 35.68843,11.836216 28.163785,4.3115712 a 1.0641557,1.0641557 0 0 0 -1.504717,0 l -7.524644,7.5246448 a 1.0641557,1.0641557 0 0 0 0,1.504716 l 7.524644,7.524645 a 1.0641557,1.0641557 0 0 0 1.504717,0 l 7.524645,-7.524645 a 1.0641557,1.0641557 0 0 0 0,-1.504716 z M 15.705713,23.230132 H 5.064156 A 1.0641557,1.0641557 0 0 0 4,24.294287 V 34.935845 A 1.0641557,1.0641557 0 0 0 5.064156,36 h 10.641557 a 1.0641557,1.0641557 0 0 0 1.064155,-1.064155 V 24.294287 a 1.0641557,1.0641557 0 0 0 -1.064155,-1.064155 z m 14.89818,0 H 19.962336 a 1.0641557,1.0641557 0 0 0 -1.064155,1.064155 V 34.935845 A 1.0641557,1.0641557 0 0 0 19.962336,36 h 10.641557 a 1.0641557,1.0641557 0 0 0 1.064156,-1.064155 V 24.294287 a 1.0641557,1.0641557 0 0 0 -1.064156,-1.064155 z"
     id="path2"
     style="stroke-width:1.06416" /><g
     aria-label="Just UI"
     transform="matrix(0.80532051,0,0,0.89381435,20.212012,3.6795433)"
     id="text1753"
     style="font-weight:600;font-size:30.3443px;font-family:'Playpen Sans';-inkscape-font-specification:'Playpen Sans Semi-Bold';fill:#ffffff;stroke-width:0"
     inkscape:label="text1753"><path
       d="m 53.659345,30.924708 q -1.395838,0 -2.791675,-0.546197 -1.395838,-0.546197 -2.427544,-1.426182 -1.031706,-0.910329 -1.395838,-2.002724 -0.06069,-0.21241 -0.09103,-0.42482 -0.03034,-0.21241 -0.03034,-0.455164 0,-0.788952 0.697919,-1.33515 0.728263,-0.546197 1.820658,-0.546197 0.515853,0 0.788951,0.273099 0.303443,0.273098 0.546198,0.879984 0.364131,0.879985 1.092395,1.395838 0.758607,0.515853 1.608247,0.515853 0.819297,0 1.426182,-0.455164 0.606886,-0.455165 1.001362,-1.426182 0.273099,-0.667575 0.455165,-1.577904 0.21241,-0.940673 0.303443,-2.093757 0.121377,-1.153083 0.182066,-2.397199 0.06069,-1.274461 0.06069,-2.60961 0,-2.154445 0.151722,-4.248202 0.151721,-2.093757 0.394476,-3.9144145 0.121377,-0.8192961 0.667574,-1.0620505 0.576542,-0.2427544 1.274461,-0.2427544 0.546197,0 1.06205,0.1820658 0.515853,0.1820658 0.819296,0.5765417 0.333788,0.3944759 0.242755,1.0317062 -0.09103,0.9710176 -0.182066,2.2758227 -0.09103,1.304805 -0.151722,2.730987 -0.06069,1.426182 -0.121377,2.730987 -0.09103,2.730987 -0.364131,5.401285 -0.273099,2.670298 -1.092395,5.006809 -0.394476,1.122739 -1.213772,1.97238 -0.819296,0.84964 -2.033068,1.335149 -1.183428,0.455164 -2.700643,0.455164 z"
       id="path5491" /><path
       d="m 66.403984,15.782903 q 0.242754,-1.001362 0.758607,-1.335149 0.546198,-0.333787 1.244117,-0.333787 0.697919,0 1.213772,0.242754 0.515853,0.242754 0.758607,0.728263 0.242754,0.485509 0.06069,1.304805 -0.333788,1.335149 -0.606886,2.791676 -0.242755,1.456526 -0.394476,2.761331 -0.121377,1.27446 -0.121377,2.124101 0,0.728263 0.09103,1.456526 0.121377,0.728263 0.394475,1.244116 0.303443,0.485509 0.788952,0.485509 0.697919,0 1.395838,-0.63723 0.728263,-0.63723 1.365493,-1.638592 0.667575,-1.001362 1.183428,-2.154446 0.546197,-1.153083 0.879985,-2.184789 0,-1.031706 0.06069,-2.093757 0.09103,-1.092394 0.21241,-2.033068 0.151722,-0.940673 0.273099,-1.517215 0.151722,-0.697919 0.728263,-1.031706 0.606886,-0.333787 1.426182,-0.333787 0.910329,0 1.456527,0.788952 0.546197,0.758607 0.546197,1.820658 0,0.394475 -0.06069,0.84964 -0.06069,0.455164 -0.151722,0.971017 -0.09103,0.485509 -0.242754,1.031707 -0.151722,0.515853 -0.303443,1.092394 -0.06069,0.546198 -0.09103,1.274461 -0.03034,0.697919 -0.03034,1.244116 0,1.335149 0.121378,2.548921 0.151721,1.213772 0.333787,2.124101 0.182066,0.910329 0.273099,1.426182 0.182065,0.728264 -0.09103,1.244117 -0.273099,0.515853 -0.788952,0.758607 -0.515853,0.273099 -1.06205,0.273099 -0.728264,0 -1.274461,-0.303443 -0.546197,-0.273099 -0.758608,-1.062051 -0.182065,-0.788951 -0.333787,-1.577903 -0.121377,-0.788952 -0.21241,-1.668937 -0.485509,0.879985 -1.092395,1.699281 -0.576541,0.819296 -1.27446,1.486871 -0.697919,0.667574 -1.517215,1.031706 -0.819296,0.394476 -1.729625,0.394476 -1.790314,0 -2.82202,-0.971018 -1.001362,-0.971017 -1.426182,-2.548921 -0.394476,-1.577903 -0.394476,-3.337873 0,-1.122739 0.151721,-2.518577 0.151722,-1.395837 0.424821,-2.913052 0.273098,-1.517215 0.63723,-3.004086 z"
       id="path5493" /><path
       d="m 95.504195,17.269774 q 0,0.606886 -0.485509,1.031706 -0.455164,0.42482 -1.27446,0.42482 -0.42482,0 -0.819296,-0.182066 -0.364132,-0.182066 -0.697919,-0.42482 -0.576542,-0.42482 -1.213772,-0.728263 -0.606886,-0.303443 -1.395838,-0.303443 -0.758607,0 -1.27446,0.364132 -0.485509,0.333787 -0.485509,0.940673 0,0.364131 0.21241,0.697919 0.242754,0.303443 0.971017,0.728263 0.728264,0.42482 2.245479,1.183428 1.851002,0.910329 2.791675,2.1241 0.940673,1.213772 0.940673,3.155808 0,1.27446 -0.788951,2.397199 -0.758608,1.092395 -2.18479,1.790314 -1.426182,0.667574 -3.489594,0.667574 -1.001362,0 -2.033068,-0.303442 -1.031707,-0.303443 -1.911691,-0.788952 -0.879985,-0.515853 -1.426182,-1.153084 -0.515853,-0.63723 -0.515853,-1.27446 0,-0.758608 0.394475,-1.213772 0.424821,-0.485509 1.031707,-0.485509 0.273098,0 0.576541,0.151722 0.333788,0.151721 0.728264,0.455164 0.333787,0.242754 0.84964,0.546197 0.546197,0.303443 1.183428,0.546198 0.63723,0.21241 1.27446,0.21241 0.910329,0 1.486871,-0.455165 0.576541,-0.485508 0.576541,-1.153083 0,-0.515853 -0.42482,-0.971018 -0.42482,-0.485508 -1.547559,-1.001361 -2.700643,-1.274461 -3.914415,-2.518577 -1.183427,-1.274461 -1.183427,-2.973742 0,-1.304804 0.697919,-2.397199 0.728263,-1.122739 2.063412,-1.790314 1.335149,-0.667575 3.186151,-0.667575 1.790314,0 3.095119,0.546198 1.304805,0.515853 2.033068,1.304805 0.728263,0.788952 0.728263,1.517215 z"
       id="path5495" /><path
       d="m 103.87925,31.015741 q -2.21514,0 -3.27719,-2.184789 -1.062046,-2.18479 -1.062046,-7.009533 0,-1.031707 0.06069,-2.033068 0.06069,-1.031707 0.151722,-2.002724 -0.333788,-0.03034 -0.697919,-0.06069 -0.333787,-0.03034 -0.63723,-0.09103 -0.637231,-0.151721 -0.940674,-0.515853 -0.273098,-0.394476 -0.273098,-1.031706 0,-0.788952 0.42482,-1.274461 0.42482,-0.515853 1.183427,-0.455164 0.303443,0.03034 0.606886,0.06069 0.303443,0 0.637232,0.03034 0.12137,-0.910329 0.24275,-1.820658 0.12138,-0.910329 0.21241,-1.668937 0.12138,-0.728263 0.69792,-1.06205 0.60689,-0.3337873 1.36549,-0.3337873 1.06205,0 1.60825,0.4248202 0.57654,0.4248201 0.51585,1.1834281 0,0.242754 -0.091,0.84964 -0.091,0.576542 -0.18206,1.274461 -0.091,0.667574 -0.15173,1.244116 0.69792,0 1.48687,-0.03034 0.78896,-0.03034 1.66894,-0.121377 0.72826,-0.06069 1.12274,0.455165 0.42482,0.485509 0.42482,1.244116 0,0.606886 -0.39448,1.031706 -0.36413,0.394476 -1.15308,0.485509 -0.78895,0.06069 -1.69928,0.121377 -0.87998,0.03034 -1.82066,0.03034 -0.0607,1.031706 -0.091,2.093756 -0.0303,1.062051 -0.0303,2.093757 0,1.942035 0.12137,3.155807 0.15172,1.183428 0.39448,1.729625 0.2731,0.546197 0.60688,0.546197 0.33379,0 0.72827,-0.303443 0.39447,-0.303443 0.97102,-0.971017 0.36413,-0.42482 0.69791,-0.697919 0.33379,-0.273099 0.60689,-0.273099 0.72826,0 1.27446,0.515853 0.5462,0.515853 0.5462,1.304805 0,0.42482 -0.30344,0.819296 -0.2731,0.394476 -0.8193,0.971018 -0.57654,0.63723 -1.36549,1.153083 -0.75861,0.515853 -1.6386,0.819296 -0.87998,0.303443 -1.72962,0.303443 z"
       id="path5497" /><path
       d="m 123.39063,8.8644028 q 0.15172,-0.7282632 0.63723,-1.1227391 0.48551,-0.4248202 1.57791,-0.4248202 1.12274,0 1.69928,0.4855088 0.60688,0.4855088 0.48551,1.3048049 -0.091,0.3944759 -0.18207,1.3351488 -0.091,0.910329 -0.18206,2.124101 -0.091,1.213772 -0.15173,2.518577 -0.0607,1.274461 -0.0607,2.3972 0,3.428906 0.39447,5.522662 0.42482,2.093757 1.48687,3.064775 1.06205,0.940673 3.00409,0.940673 1.12274,0 2.06341,-0.455165 0.94067,-0.455164 1.63859,-1.577903 0.69792,-1.122739 1.0924,-3.064774 0.39447,-1.97238 0.39447,-4.976466 0,-2.306166 -0.18206,-4.339234 -0.18207,-2.063413 -0.30345,-3.914415 -0.0607,-0.7282632 0.39448,-1.1530834 0.48551,-0.4551645 1.54756,-0.4551645 0.97102,-0.030344 1.45653,0.2730987 0.4855,0.303443 0.66757,0.7889518 0.21241,0.4855088 0.24275,1.0620505 0.091,0.8799849 0.15173,1.7296249 0.091,0.849641 0.15172,1.820658 0.0607,0.940673 0.091,2.154445 0.0303,1.183428 0.0303,2.761332 0,2.700642 -0.4855,5.097842 -0.48551,2.366855 -1.60825,4.217857 -1.0924,1.820658 -2.91306,2.852365 -1.82065,1.031706 -4.5213,1.031706 -2.3972,0 -4.06613,-0.667575 -1.66894,-0.697919 -2.73099,-1.942035 -1.06205,-1.274461 -1.60825,-2.973741 -0.51585,-1.699281 -0.63723,-3.732349 -0.12137,-1.183428 -0.18206,-2.761331 -0.0303,-1.577904 0,-3.307529 0.0303,-1.759969 0.18206,-3.45925 0.15172,-1.729625 0.42482,-3.1558072 z"
       id="path5499" /><path
       d="m 146.96814,8.7430256 q 0.0303,-0.7889518 0.63724,-1.1227391 0.63723,-0.3641316 1.45652,-0.3641316 1.00136,0 1.60825,0.3641316 0.63723,0.3641316 0.57654,1.2441163 -0.45516,5.0978422 -0.72826,10.3777502 -0.2731,5.249564 -0.36413,10.377751 -0.0303,0.84964 -0.69792,1.183427 -0.63723,0.333787 -1.54756,0.333787 -0.84964,0 -1.45653,-0.364131 -0.60688,-0.364132 -0.60688,-1.304805 0.12137,-5.006809 0.39447,-10.256373 0.2731,-5.279908 0.72826,-10.4687834 z"
       id="path5501" /></g></g><rect
   style="fill:none;stroke-width:0"
   id="rect460"
   width="160"
   height="40"
   x="0"
   y="0" /></svg>
