<?xml version="1.0" encoding="UTF-8" standalone="no"?>
<!-- Created with Inkscape (http://www.inkscape.org/) -->

<svg
   width="24"
   height="24"
   viewBox="0 0 24 24"
   version="1.1"
   id="svg5"
   inkscape:version="1.2.2 (b0a8486541, 2022-12-01)"
   sodipodi:docname="cjs-logo.svg"
   xmlns:inkscape="http://www.inkscape.org/namespaces/inkscape"
   xmlns:sodipodi="http://sodipodi.sourceforge.net/DTD/sodipodi-0.dtd"
   xmlns="http://www.w3.org/2000/svg"
   xmlns:svg="http://www.w3.org/2000/svg">
  <sodipodi:namedview
     id="namedview7"
     pagecolor="#505050"
     bordercolor="#ffffff"
     borderopacity="1"
     inkscape:showpageshadow="0"
     inkscape:pageopacity="0"
     inkscape:pagecheckerboard="1"
     inkscape:deskcolor="#505050"
     inkscape:document-units="px"
     showgrid="false"
     inkscape:zoom="7.9118979"
     inkscape:cx="26.226324"
     inkscape:cy="-12.449605"
     inkscape:window-width="1854"
     inkscape:window-height="1011"
     inkscape:window-x="0"
     inkscape:window-y="0"
     inkscape:window-maximized="1"
     inkscape:current-layer="layer1" />
  <defs
     id="defs2" />
  <g
     inkscape:label="Слой 1"
     inkscape:groupmode="layer"
     id="layer1">
    <rect
       style="fill:#3c444f;fill-opacity:1;stroke-width:0"
       id="rect12048"
       width="24"
       height="24"
       x="0"
       y="0" />
    <path
       id="rect234"
       style="fill:#ef8a35;fill-opacity:1;stroke-width:0"
       d="M 0 0 L 0 24 L 24 24 L 24 0 L 0 0 z M 8.3632812 14.199219 C 9.1345745 14.199219 9.7540592 14.403071 10.222656 14.810547 C 10.691253 15.215112 10.957452 15.773246 11.021484 16.486328 L 9.4941406 16.486328 C 9.4824985 16.099226 9.3845359 15.821155 9.2011719 15.652344 C 9.0178078 15.483532 8.738741 15.400391 8.3632812 15.400391 C 7.9820004 15.400391 7.7029336 15.542892 7.5253906 15.828125 C 7.3478476 16.113358 7.2548254 16.567593 7.2460938 17.193359 L 7.2460938 17.644531 C 7.2460938 18.322687 7.3311886 18.806602 7.5 19.097656 C 7.6717219 19.38871 7.9646521 19.535156 8.3808594 19.535156 C 8.7330348 19.535156 9.0031785 19.451057 9.1894531 19.285156 C 9.3757277 19.119255 9.474686 18.857001 9.4863281 18.496094 L 11.009766 18.496094 C 10.989392 18.938496 10.868681 19.329389 10.650391 19.669922 C 10.4321 20.007545 10.126302 20.268804 9.7304688 20.455078 C 9.3375458 20.641353 8.8872934 20.734375 8.3808594 20.734375 C 7.5455342 20.734375 6.8884423 20.46224 6.4082031 19.917969 C 5.9279639 19.373698 5.6875 18.605776 5.6875 17.613281 L 5.6875 17.298828 C 5.6875 16.675972 5.7943856 16.131702 6.0097656 15.666016 C 6.2280562 15.197419 6.5417431 14.837201 6.9492188 14.583984 C 7.3566944 14.327857 7.8277418 14.199219 8.3632812 14.199219 z M 19.195312 14.203125 C 19.652267 14.203125 20.060968 14.284275 20.421875 14.447266 C 20.785693 14.610256 21.068704 14.843788 21.269531 15.146484 C 21.470359 15.44627 21.570312 15.790632 21.570312 16.177734 L 20.042969 16.177734 C 20.042969 15.918696 19.962814 15.716835 19.802734 15.574219 C 19.645565 15.431602 19.430837 15.361328 19.160156 15.361328 C 18.886565 15.361328 18.669845 15.420726 18.509766 15.542969 C 18.352596 15.662301 18.273438 15.815679 18.273438 16.001953 C 18.273438 16.164943 18.360524 16.313381 18.535156 16.447266 C 18.709789 16.57824 19.01754 16.714805 19.457031 16.857422 C 19.896523 16.997128 20.25674 17.14951 20.539062 17.3125 C 21.22595 17.708334 21.570312 18.2536 21.570312 18.949219 C 21.570312 19.505132 21.360524 19.942517 20.941406 20.259766 C 20.522288 20.577015 19.947343 20.734375 19.216797 20.734375 C 18.701631 20.734375 18.235524 20.642348 17.816406 20.458984 C 17.400199 20.27271 17.085516 20.019378 16.873047 19.699219 C 16.663488 19.376149 16.558594 19.005055 16.558594 18.585938 L 18.095703 18.585938 C 18.095703 18.926471 18.182789 19.178807 18.357422 19.341797 C 18.534965 19.501877 18.820963 19.582031 19.216797 19.582031 C 19.470014 19.582031 19.668926 19.527612 19.814453 19.419922 C 19.962891 19.309321 20.037109 19.154948 20.037109 18.957031 C 20.037109 18.73292 19.956955 18.558747 19.796875 18.433594 C 19.639706 18.308441 19.361635 18.178807 18.962891 18.044922 C 18.564147 17.911037 18.239545 17.781403 17.986328 17.65625 C 17.162645 17.251685 16.75 16.695543 16.75 15.988281 C 16.75 15.636106 16.852903 15.326363 17.056641 15.058594 C 17.263289 14.787913 17.554228 14.578125 17.929688 14.429688 C 18.305147 14.278339 18.726715 14.203125 19.195312 14.203125 z M 14.265625 14.291016 L 15.794922 14.291016 L 15.794922 18.652344 C 15.794922 19.056909 15.698951 19.417126 15.509766 19.734375 C 15.323491 20.051624 15.062232 20.298024 14.724609 20.472656 C 14.389897 20.647289 14.014859 20.734375 13.601562 20.734375 C 12.908854 20.734375 12.370519 20.560202 11.986328 20.210938 C 11.602137 19.861673 11.410156 19.366881 11.410156 18.726562 L 12.947266 18.726562 C 12.947266 19.017617 12.996745 19.228401 13.095703 19.359375 C 13.197572 19.490349 13.365809 19.556641 13.601562 19.556641 C 13.814032 19.556641 13.978286 19.477482 14.091797 19.320312 C 14.208219 19.160233 14.265625 18.937577 14.265625 18.652344 L 14.265625 14.291016 z " />
  </g>
</svg>
