<svg class="" version="1.1" viewBox="0 0 512 512" xmlns="http://www.w3.org/2000/svg">
  <path d="m208.36 99.593v156.96a15.696 15.696 0 0 1-15.696 15.696h-156.96a15.696 15.696 0 0 1-15.696-15.696v-156.96a15.696 15.696 0 0 1 15.696-15.696h156.96a15.696 15.696 0 0 1 15.696 15.696zm279.05 35.992-110.99-110.99a15.696 15.696 0 0 0-22.195 0l-110.99 110.99a15.696 15.696 0 0 0 0 22.195l110.99 110.99a15.696 15.696 0 0 0 22.195 0l110.99-110.99a15.696 15.696 0 0 0 0-22.195zm-294.75 168.06h-156.96a15.696 15.696 0 0 0-15.696 15.696v156.96a15.696 15.696 0 0 0 15.696 15.696h156.96a15.696 15.696 0 0 0 15.696-15.696v-156.96a15.696 15.696 0 0 0-15.696-15.696zm219.75 0h-156.96a15.696 15.696 0 0 0-15.696 15.696v156.96a15.696 15.696 0 0 0 15.696 15.696h156.96a15.696 15.696 0 0 0 15.696-15.696v-156.96a15.696 15.696 0 0 0-15.696-15.696z" fill="#0381fd" stroke-width="15.696"/>
</svg>
