<svg width="24" height="24" version="1.1" viewBox="0 0 24 24" xmlns="http://www.w3.org/2000/svg">
 <path d="m6.6487 0.61124c-2.0644 1.3263-3.4599 3.6675-3.4599 6.3431 0 2.6756 1.3955 5.0168 3.4945 6.3431-3.5406 0-6.3777-2.8371-6.3777-6.3431a6.3431 6.3431 0 0 1 6.3431-6.3431m13.344 1.7299 1.6492 1.6492-17.957 17.957-1.6492-1.6492zm-7.1273 2.8025-1.7069-1.0726-1.6607 1.1533 0.48438-1.9606-1.6031-1.2225 2.0183-0.13839 0.66891-1.9029 0.77271 1.8799 1.9952 0.034599-1.5569 1.3032zm-3.8059 4.1634-1.3378-0.8419-1.2917 0.89957 0.39212-1.5223-1.2571-0.95723 1.5685-0.1038 0.51898-1.4877 0.58818 1.4647 1.5685 0.034599-1.211 1.0034zm10.852 4.567a6.3431 6.3431 0 0 1-6.3431 6.3431c-1.407 0-2.7102-0.46132-3.7597-1.234l8.8688-8.8688c0.7727 1.0495 1.234 2.3527 1.234 3.7597m-5.0745 7.5887 3.1946-1.3263-0.27679 3.8635zm4.9938-3.1139 1.3263-3.1946 2.5372 2.9294zm1.3263-5.7203-1.3148-3.2062 3.852 0.27679zm-12.052 7.5079 3.1946 1.3263-2.9178 2.5257z" fill="currentColor" stroke-width="1.1533"/>
</svg>
