<svg stroke-linecap="round" stroke-linejoin="round" version="1.1" viewBox="0 0 24 24" xmlns="http://www.w3.org/2000/svg">
  <path d="m22.9 13.1v-6.89c0-2.25-1.83-4.08-4.08-4.08h-13.7c-2.25 0-4.08 1.83-4.08 4.08v11.7c0 2.25 1.83 4.08 4.08 4.08h9.2m-13-3.41 3.23-3.77c0.875-0.869 2.24-1 3.27-0.318 1.03 0.684 2.39 0.551 3.27-0.318l2.75-2.75c1.63-1.64 4.21-1.85 6.09-0.507l2.91 2.25m-15.6-3.36c2.61-0.0153 2.59-3.93-0.0236-3.92-2.61 0.0161-2.59 3.93 0.0236 3.92" fill="none" stroke="#000" stroke-width="1.18"/>
  <path d="m21.8 18.7-2.32-2.32c-0.212-0.213-0.557-0.213-0.769 0l-2.32 2.32m2.7-2.48v5.9" fill="none" stroke="#000" stroke-width="1.18"/>
</svg>
