<?xml version="1.0" encoding="UTF-8" standalone="no"?>
<svg
   version="1.1"
   viewBox="0 0 512 512"
   id="svg4"
   sodipodi:docname="image.svg"
   inkscape:version="1.2.2 (b0a8486541, 2022-12-01)"
   xmlns:inkscape="http://www.inkscape.org/namespaces/inkscape"
   xmlns:sodipodi="http://sodipodi.sourceforge.net/DTD/sodipodi-0.dtd"
   xmlns="http://www.w3.org/2000/svg"
   xmlns:svg="http://www.w3.org/2000/svg">
  <defs
     id="defs8" />
  <sodipodi:namedview
     id="namedview6"
     pagecolor="#ffffff"
     bordercolor="#000000"
     borderopacity="0.25"
     inkscape:showpageshadow="2"
     inkscape:pageopacity="0.0"
     inkscape:pagecheckerboard="0"
     inkscape:deskcolor="#d1d1d1"
     showgrid="false"
     inkscape:zoom="1.0169001"
     inkscape:cx="88.504266"
     inkscape:cy="276.82168"
     inkscape:window-width="1854"
     inkscape:window-height="1011"
     inkscape:window-x="66"
     inkscape:window-y="32"
     inkscape:window-maximized="1"
     inkscape:current-layer="svg4" />
  <path
     d="m 257,86 c -8.56,0 -17.1,2.14 -24.8,6.4 -0.13167,0.06845 -0.26235,0.138794 -0.392,0.211 l -104,61.3 c -15.9,8.75 -25.9,25.5 -25.9,43.6 v 113 c -4e-5,0.0201 -4e-5,0.0402 0,0.0603 0.0606,18.1 10,34.9 25.9,43.6 l -0.845,-0.483 104,66 c 0.27614,0.17994 0.55795,0.35103 0.845,0.513 15.1,8.3 33.5,8.3 48.6,0 0.28705,-0.16197 0.56886,-0.33306 0.845,-0.513 l 104,-66 -0.815,0.483 c 15.9,-8.75 25.9,-25.5 25.9,-43.6 v -112 c 0.106,-17 -8.99,-32.4 -23.2,-41.6 -0.39526,-0.66566 -0.83984,-1.30077 -1.33,-1.9 l -104,-61.5 c -0.12965,-0.07221 -0.26033,-0.142547 -0.392,-0.211 -7.72,-4.26 -15.86484,-7.121975 -24.36484,-7.121975 z m -9.93,33.5 h 0.0309 c 6.18,-3.4 13.6,-3.4 19.8,0 l 103,61 c 0.0585,0.1315 0.11885,0.26218 0.181,0.392 5.98,3.4 9.61,9.69 9.57,16.6 -1.6e-4,0.0403 -1.6e-4,0.0807 0,0.121 v 82.9 l -20,-20 c -0.0697,-0.071 -0.13999,-0.14135 -0.211,-0.211 -9.46,-9.1 -21.5,-14.7 -33.9,-14.7 -12.4,0 -24.4,5.57 -33.9,14.7 -0.071,0.0696 -0.14135,0.13999 -0.211,0.211 l -4.53,4.53 -35.4,-35.4 c -0.0696,-0.071 -0.13999,-0.14135 -0.211,-0.211 -9.46,-9.1 -21.5,-14.7 -33.9,-14.7 -12.4,0 -24.4,5.57 -33.9,14.7 -0.071,0.0697 -0.14135,0.13999 -0.211,0.211 l -50.9,50.9 v -83 c 0,-6.86 3.71,-13.1 9.9,-16.5 0.13185,-0.0784 0.26253,-0.15873 0.392,-0.241 z m 55.8,59.3 c -8.56041,0 -15.5,6.93959 -15.5,15.5 0,8.56041 6.93959,15.5 15.5,15.5 h 0.151 c 8.56041,0 15.5,-6.93959 15.5,-15.5 0,-8.56041 -6.93959,-15.5 -15.5,-15.5 z m -85,66.9 c 3.56,0 7.58,1.34 12.5,6.04 l 77.1,77.1 c 6.0508,6.0396 15.8492,6.0396 21.9,0 6.0396,-6.0508 6.0396,-15.8492 0,-21.9 l -20,-20 4.32,-4.32 c 4.88,-4.7 8.9,-6.04 12.5,-6.04 3.6,0 7.58,1.34 12.5,6.04 l 36.3,36.3 c -1.68,2.62 -1.73,6.17 -4.62,7.76 -0.27652,0.15266 -0.54832,0.31373 -0.815,0.483 l -104,65.5 c -5.85,3.17 -12.9,3.17 -18.7,0 l -104,-65.5 c -0.27614,-0.17994 -0.55795,-0.35103 -0.845,-0.513 -2.83,-1.55 -2.91,-5.12 -4.59,-7.73 l 67.3,-67.3 c 4.88,-4.7 8.9,-6.04 12.5,-6.04 z"
     id="path2"
     sodipodi:nodetypes="ccccsccccccccccsccccccccccccsccccscccccscccscccssssssscccccccscccccccccccc" />
  <path
     style="fill:#c7c7c7;stroke:#000000;stroke-width:3.2;stroke-dasharray:none;stroke-opacity:1"
     d="M 0,-1.8542825 V 100"
     id="path16495"
     sodipodi:nodetypes="cc" />
</svg>
