<svg width="512" height="512" viewBox="0 0 512 512" version="1.1" xmlns="http://www.w3.org/2000/svg">
  <path d="M 76.816814,436.96612 A 16.237167,16.237167 0 0 1 60.579647,420.72895 V 95.985608 A 16.237167,16.237167 0 0 1 76.816814,79.748441 H 377.2044 a 24.355751,24.355751 0 0 0 0,-48.711501 H 76.816814 A 64.948668,64.948668 0 0 0 11.868146,95.985608 V 420.72895 a 64.948668,64.948668 0 0 0 64.948668,64.94867 H 401.56016 a 64.948668,64.948668 0 0 0 64.94867,-64.94867 V 315.18736 a 24.355751,24.355751 0 0 0 -48.7115,0 v 105.54159 a 16.237167,16.237167 0 0 1 -16.23717,16.23717 z M 491.8388,150.54248 A 24.355751,24.355751 0 0 0 457.41601,116.1197 L 276.92366,296.57957 216.09923,233.70925 a 24.355751,24.355751 0 1 0 -35.00733,33.87074 l 78.03583,80.66624 a 24.355751,24.355751 0 0 0 34.74754,0.32474 z" />
</svg>
