<svg width="512" height="512" viewBox="0 0 512 512" version="1.1" xmlns="http://www.w3.org/2000/svg">
  <path fill="currentColor" d="M 139.33334,86 C 106,86 106,119.33333 139.33334,119.33333 h 133.33332 v 33.33334 C 263.43333,152.66667 256,160.1 256,169.33333 V 186 H 137.06666 A 66.6,66.6 0 0 0 6,202.66667 66.666667,66.666667 0 0 0 72.666667,269.33334 66.666667,66.666667 0 0 0 107.76667,259.23333 l 81.56667,110.1 c 33.56666,48.33334 93.93332,50 116.66665,50 h 166.66667 c 0,0 33.33334,0 33.33334,-33.33334 v -33.13332 c 0,-24.43333 -4.2,-37.73334 -16.66667,-50.2 l -100,-100 C 389.33333,202.66667 369.6,186 346.9,186 h -24.23334 v -16.66667 c 0,-9.23333 -7.43333,-16.66666 -16.66667,-16.66666 v -33.33334 h 133.33334 c 33.33333,0 33.33333,-33.33333 0,-33.33333 z m -66.666673,83.33333 a 33.333335,33.333335 0 1 1 0,66.66667 33.333335,33.333335 0 0 1 0,-66.66667 M 339.33333,219.33334 C 356,219.33334 365.66667,230.1 372.66666,236 L 456,319.33334 H 339.33333 c 0,0 -33.33334,0 -33.33334,-33.33334 v -33.33333 c 0,0 0,-33.33333 33.33334,-33.33333" />
</svg>
