<svg width="512" height="512" viewBox="0 0 512 512" version="1.1" xmlns="http://www.w3.org/2000/svg">
  <path fill="currentColor" d="m 239.36905,25.984935 a 25.061992,24.935145 0 0 1 33.28232,0 L 498.20929,225.46609 a 25.061992,24.935145 0 0 1 -33.28232,37.2531 l -8.42083,-7.40573 V 443.57381 A 50.123982,49.870291 0 0 1 406.38215,493.4441 H 105.63828 A 50.123982,49.870291 0 0 1 55.514274,443.57381 V 255.31346 l -8.420826,7.40573 A 25.061992,24.935145 0 0 1 13.811122,225.46609 Z M 105.63828,210.9289 v 232.64491 h 75.18593 V 318.89808 a 25.061992,24.935145 0 0 1 25.06202,-24.93514 h 100.24796 a 25.061992,24.935145 0 0 1 25.06201,24.93514 v 124.67573 h 75.18595 V 210.95384 L 256.01022,77.974711 Z M 281.07221,443.57381 V 343.83323 H 230.9482 v 99.74058 z" />
</svg>
