<svg version="1.1" viewBox="0 0 512 512" xmlns="http://www.w3.org/2000/svg">
 <path d="m192 16.01c-55.14 0-85.28-0.9452-112.2 12.74a18.46 18.46 0 0 0-0.0039 2e-3c-22 11.21-39.88 29.1-51.09 51.09a18.46 18.46 0 0 0-2e-3 0.0039c-13.69 26.87-12.74 57.02-12.74 112.2v128c0 55.14-0.9452 85.28 12.74 112.2a18.46 18.46 0 0 0 2e-3 4e-3c11.21 22 29.1 39.88 51.09 51.09a18.46 18.46 0 0 0 0.0039 2e-3c26.87 13.69 57.02 12.74 112.2 12.74h128c55.14 0 85.28 0.9452 112.2-12.74a18.46 18.46 0 0 0 4e-3 -2e-3c22-11.21 39.88-29.1 51.09-51.09a18.46 18.46 0 0 0 2e-3 -4e-3c13.69-26.87 12.74-57.02 12.74-112.2v-128c0-55.14 0.9452-85.28-12.74-112.2a18.46 18.46 0 0 0-2e-3 -0.0039c-11.21-22-29.1-39.88-51.09-51.09a18.46 18.46 0 0 0-4e-3 -2e-3c-26.87-13.69-57.02-12.74-112.2-12.74zm0 36.92h128c55.14 0 80.13 0.9447 95.39 8.721 15.05 7.67 27.29 19.9 34.96 34.96 7.466 14.66 8.595 39 8.676 89.67-113-8.21-214.3 48.81-263.8 138.7-34.68-39.42-85.77-64.01-142.3-62.58v-70.36c0-55.13 0.9445-80.12 8.719-95.39l2e-3 -2e-3c2.6e-4 -5.1e-4 -2.6e-4 -0.0014 0-2e-3 7.67-15.05 19.9-27.29 34.96-34.96 15.27-7.774 40.26-8.719 95.39-8.719zm-22.15 36.94c-37.16 0-67.68 30.51-67.69 67.66-0.013 37.17 30.52 67.71 67.69 67.71s67.7-30.54 67.69-67.71c-0.013-37.16-30.53-67.66-67.69-67.66zm0 36.92c17.21 0 30.76 13.55 30.77 30.76 6e-3 17.22-13.55 30.78-30.77 30.78-17.22 0-30.77-13.56-30.77-30.78 6e-3 -17.21 13.56-30.76 30.77-30.76zm261.2 95.54c9.208-0.1895 18.55 0.1065 28 0.9082v96.75c0 55.14-0.9447 80.13-8.721 95.39-7.67 15.05-19.9 27.28-34.95 34.95-5e-4 2.6e-4 -1e-3 -2.6e-4 -2e-3 0-8e-4 4.1e-4 -1e-3 2e-3 -2e-3 2e-3 -15.27 7.774-40.26 8.719-95.39 8.719h-119.6c-5.036-132.5 99.09-234 230.6-236.7zm-371.5 76.75c49.38 0.5578 92.27 25.78 118.6 63.81-10.53 29.68-15.74 61.97-14.67 95.96-35.3-0.4845-54.65-2.271-66.89-8.508l-0.0039-2e-3c-15.05-7.67-27.28-19.9-34.95-34.95v-2e-3c-4.09e-4 -8e-4 -0.0015-1e-3 -2e-3 -2e-3 -7.774-15.27-8.719-40.26-8.719-95.39v-20.74c2.218-0.0734 4.449-0.1986 6.643-0.1738z" stroke-linecap="round" stroke-linejoin="round" />
</svg>
