<svg width="512" height="512" viewBox="0 0 512 512" version="1.1" xmlns="http://www.w3.org/2000/svg">
  <path fill="currentColor" d="m 394.88889,144.88889 a 42.777778,42.777778 0 0 1 -41.66666,-41.66666 41.666668,41.666668 0 0 1 83.33333,0 42.777778,42.777778 0 0 1 -41.66667,41.66666 M 353.22223,6 a 154.16667,154.16667 0 0 0 -152.77779,152.77779 188.8889,188.8889 0 0 0 19.44445,77.77777 L 6,450.44445 V 506 h 111.11112 v -55.55555 h 55.55555 v -55.55556 h 55.55556 l 88.88889,-88.8889 a 166.66667,166.66667 0 0 0 36.11111,5.55557 A 154.16667,154.16667 0 0 0 506,158.77779 154.16667,154.16667 0 0 0 353.22223,6" />
</svg>
