<svg width="512" height="512" viewBox="0 0 512 512" version="1.1" xmlns="http://www.w3.org/2000/svg">
  <path d="m 124.12535,409.73593 a 53.441692,53.441692 0 0 1 -53.441695,53.44169 53.441692,53.441692 0 0 1 -53.441693,-53.44169 53.441692,53.441692 0 0 1 53.441693,-53.44169 53.441692,53.441692 0 0 1 53.441695,53.44169 z m 0,-160.32509 a 53.441692,53.441692 0 0 1 -53.441695,53.4417 53.441692,53.441692 0 0 1 -53.441693,-53.4417 53.441692,53.441692 0 0 1 53.441693,-53.44169 53.441692,53.441692 0 0 1 53.441695,53.44169 z m 0,-160.325078 A 53.441692,53.441692 0 0 1 70.683655,142.52745 53.441692,53.441692 0 0 1 17.241962,89.085762 53.441692,53.441692 0 0 1 70.683655,35.64407 53.441692,53.441692 0 0 1 124.12535,89.085762 Z m 53.4417,293.929318 h 320.65014 v 53.44169 H 177.56705 Z m 0,-160.32508 h 320.65014 v 53.44169 H 177.56705 Z m 0,-160.32508 h 320.65014 v 53.44169 H 177.56705 Z" />
</svg>
