<svg width="512" height="512" viewBox="0 0 512 512" version="1.1" xmlns="http://www.w3.org/2000/svg">
  <path fill="currentColor" d="m 375.26144,269.15791 a 118.42105,118.42105 0 0 1 5.57895,236.71052 L 375.26144,506 H 138.41933 a 118.42105,118.42105 0 0 1 -5.57894,-236.71052 l 5.57894,-0.13157 z m 0,52.63157 H 138.41933 a 65.789474,65.789474 0 0 0 -4.31578,131.44736 l 4.31578,0.13159 h 236.84211 a 65.789474,65.789474 0 0 0 4.3158,-131.44738 z m -236.84211,26.31579 a 39.473683,39.473683 0 1 1 0,78.94736 39.473683,39.473683 0 0 1 0,-78.94736 M 375.26144,6 a 118.42105,118.42105 0 0 1 5.57895,236.71053 l -5.57895,0.13158 H 138.41933 A 118.42105,118.42105 0 0 1 132.84039,6.131579 L 138.41933,6 Z m 0,52.631579 H 138.41933 a 65.789474,65.789474 0 0 0 -4.31578,131.447371 l 4.31578,0.13159 h 236.84211 a 65.789474,65.789474 0 0 0 4.3158,-131.447381 z m 0,26.315799 a 39.473683,39.473683 0 1 1 0,78.947362 39.473683,39.473683 0 0 1 0,-78.947362" />
</svg>
