<svg xmlns="http://www.w3.org/2000/svg" version="1.1" xmlns:xlink="http://www.w3.org/1999/xlink" width="512" height="512" x="0" y="0" viewBox="0 0 32 32" style="enable-background:new 0 0 512 512" xml:space="preserve" class="">
  <path d="M13 6v10a1 1 0 0 1-1 1H2a1 1 0 0 1-1-1V6a1 1 0 0 1 1-1h10a1 1 0 0 1 1 1zm17.778 2.293-7.071-7.071a1 1 0 0 0-1.414 0l-7.071 7.071a1 1 0 0 0 0 1.414l7.071 7.071a1 1 0 0 0 1.414 0l7.071-7.071a1 1 0 0 0 0-1.414zM12 19H2a1 1 0 0 0-1 1v10a1 1 0 0 0 1 1h10a1 1 0 0 0 1-1V20a1 1 0 0 0-1-1zm14 0H16a1 1 0 0 0-1 1v10a1 1 0 0 0 1 1h10a1 1 0 0 0 1-1V20a1 1 0 0 0-1-1z" fill="#0381fd" />
</svg>