<svg width="512" height="512" viewBox="0 0 512 512" version="1.1" xmlns="http://www.w3.org/2000/svg">
  <path fill="currentColor" d="m 499.84616,226.15441 -47.69232,-44.3077 -42.3077,-84.615376 A 40.384616,40.384616 0 0 0 375.23078,78.000567 H 136.76924 a 40.384616,40.384616 0 0 0 -34.61539,19.230767 l -42.30769,84.615376 -47.692308,44.3077 a 19.230769,19.230769 0 0 0 -6.153846,14.11538 v 164.65385 a 19.230769,19.230769 0 0 0 19.23077,19.23076 h 76.923074 c 7.69231,0 19.23077,-7.6923 19.23077,-15.3846 v -23.07692 h 269.23076 v 19.23076 c 0,7.6923 7.69234,19.23076 15.38463,19.23076 h 80.76922 a 19.230769,19.230769 0 0 0 19.23076,-19.23076 V 240.26979 a 19.230769,19.230769 0 0 0 -6.15383,-14.11538 M 140.61539,116.4621 h 230.76923 l 38.46152,76.92308 H 102.15385 Z m 19.23077,176.92308 c 0,7.69231 -11.53846,15.38462 -19.23077,15.38462 H 59.84616 c -7.692305,0 -15.384615,-11.53847 -15.384615,-19.23077 v -42.3077 c 3.846153,-11.53846 11.538462,-19.23076 23.076923,-15.38462 l 76.923072,15.38462 c 7.69231,0 15.38462,11.53847 15.38462,19.23077 z m 307.69231,-3.84615 c 0,7.6923 -7.6923,19.23077 -15.38463,19.23077 h -80.76922 c -7.6923,0 -19.23076,-7.69231 -19.23076,-15.38462 V 266.4621 c 0,-7.6923 7.69229,-19.23077 15.3846,-19.23077 l 76.92308,-15.38462 c 11.53846,-3.84614 19.23076,3.84616 23.07693,15.38462 z" />
</svg>
