<svg width="512" height="512" viewBox="0 0 512 512" version="1.1" xmlns="http://www.w3.org/2000/svg">
  <path d="M 74.181819,6 C 36.785162,6 6,36.785162 6,74.181819 V 301.45455 c 0,37.39666 30.785162,68.18182 68.181819,68.18182 A 22.727273,22.727273 0 0 0 96.909092,346.90909 22.727273,22.727273 0 0 0 74.181819,324.18182 c -12.603293,0 -22.727273,-10.12398 -22.727273,-22.72727 V 74.181819 c 0,-12.603293 10.12398,-22.727273 22.727273,-22.727273 H 301.45455 c 12.60329,0 22.72727,10.12398 22.72727,22.727273 a 22.727273,22.727273 0 0 0 22.72727,22.727273 22.727273,22.727273 0 0 0 22.72728,-22.727273 C 369.63637,36.785162 338.85121,6 301.45455,6 Z M 210.54546,142.36364 c -37.37957,0 -68.18182,30.80225 -68.18182,68.18182 v 227.27273 c 0,37.37957 30.80225,68.18182 68.18182,68.18182 h 227.27273 c 37.37957,0 68.18182,-30.80225 68.18182,-68.18182 V 210.54546 c 0,-37.37957 -30.80225,-68.18182 -68.18182,-68.18182 z m 0,45.45454 h 227.27273 c 12.98402,0 22.72727,9.74326 22.72727,22.72728 v 227.27273 c 0,12.98402 -9.74325,22.72727 -22.72727,22.72727 H 210.54546 c -12.98402,0 -22.72728,-9.74325 -22.72728,-22.72727 V 210.54546 c 0,-12.98402 9.74326,-22.72728 22.72728,-22.72728 z" />
</svg>
