<svg viewBox="0 0 512 512" version="1.1" xmlns="http://www.w3.org/2000/svg">
  <path d="m 256.00001,496 h 120 v -47.99999 h -120 C 151.84,448.00001 64,360.16002 64,256.00001 64,151.84 151.84,64 256.00001,64 c 104.16001,0 192,87.84 192,192.00001 V 290.32 c 0,18.96 -17.04002,37.68 -36,37.68 -18.96002,0 -36,-18.72 -36,-37.68 V 256.00001 C 376.00001,189.76 322.24,136 256.00001,136 189.76,136 136,189.76 136,256.00001 c 0,66.23999 53.76,120 120.00001,120 33.11999,0 63.35999,-13.44001 84.95999,-35.28001 15.60001,21.36002 42.47999,35.28001 71.04001,35.28001 C 459.28002,376.00001 496,337.6 496,290.32 V 256.00001 C 496,123.52 388.48001,16 256.00001,16 123.52,16 16,123.52 16,256.00001 16,388.48001 123.52,496 256.00001,496 m 0,-168 C 216.16,328 184,295.84 184,256.00001 184,216.16 216.16,184 256.00001,184 295.84,184 328,216.16 328,256.00001 328,295.84 295.84,328 256.00001,328" />
</svg>
