<svg width="512" height="512" viewBox="0 0 512 512" version="1.1" xmlns="http://www.w3.org/2000/svg" xmlns:svg="http://www.w3.org/2000/svg">
  <path fill="currentColor" d="M 153.6,74.2 H 128 V 23 h 25.6 c 19.6608,0 37.63199,7.3984 51.2,19.5584 A 76.8,76.8 0 0 1 256,23 h 25.6 V 74.2 H 256 A 25.6,25.6 0 0 0 230.4,99.8 V 406.99999 A 25.6,25.6 0 0 0 256,432.6 h 25.6 v 51.19999 H 256 c -19.6608,0 -37.632,-7.39839 -51.2,-19.55839 a 76.8,76.8 0 0 1 -51.2,19.55839 H 128 V 432.6 h 25.6 a 25.6,25.6 0 0 0 25.59999,-25.60001 V 99.8 A 25.6,25.6 0 0 0 153.6,74.2 M 307.2,381.4 H 460.79999 A 51.2,51.2 0 0 0 512,330.2 V 176.6 A 51.2,51.2 0 0 0 460.79999,125.4 H 307.2 v 51.2 H 460.79999 V 330.2 H 307.2 Z M 102.4,330.2 v 51.2 H 51.2 A 51.2,51.2 0 0 1 0,330.2 V 176.6 a 51.2,51.2 0 0 1 51.2,-51.2 h 51.2 v 51.2 H 51.2 v 153.6 z" />
</svg>
