<svg width="512" height="512" viewBox="0 0 512 512" version="1.1" xmlns="http://www.w3.org/2000/svg" >
  <path d="m 357.34375,120.6543 c -18.50974,0 -34,15.49221 -34,34.00195 0,18.50974 15.49026,34 34,34 18.50974,0 34.00195,-15.49026 34.00195,-34 0,-18.50974 -15.49221,-34.00195 -34.00195,-34.00195 z m 0,22.66797 c 5.99092,0 11.33398,5.34306 11.33398,11.33398 0,5.99092 -5.34306,11.33398 -11.33398,11.33398 -5.99092,0 -11.33398,-5.34306 -11.33398,-11.33398 0,-5.99092 5.34306,-11.33398 11.33398,-11.33398 z m 11.33386,11.33378 a 11.333675,11.333675 0 0 1 -11.33368,11.33368 11.333675,11.333675 0 0 1 -11.33367,-11.33368 11.333675,11.333675 0 0 1 11.33367,-11.33367 11.333675,11.333675 0 0 1 11.33368,11.33367 z M 340.5918,6.5976562 C 307.77602,5.5983368 274.5238,14.051747 245.19336,32.451172 182.28913,71.911932 152.71845,147.53487 170.81445,218.45898 L 25.921875,363.35156 C 13.175528,376.0951 6.0038512,393.40359 6,411.42773 a 22.669618,22.669618 0 0 0 0,0.004 v 49.23438 C 6.0000011,485.43517 26.564832,506 51.333984,506 h 68.001956 c 24.76915,0 45.33593,-20.56483 45.33593,-45.33398 v -22.66797 h 22.66602 c 24.76915,0 45.33594,-20.56484 45.33594,-45.33399 v -22.66797 h 3.89844 a 22.669618,22.669618 0 0 0 0.004,0 c 18.02415,-0.004 35.33263,-7.17553 48.07617,-19.92187 l 0.002,-0.002 8.88672,-8.88672 c 70.92411,18.096 146.54705,-11.47468 186.00781,-74.37891 42.05569,-67.04096 32.14226,-154.5763 -23.8185,-210.537059 C 424.25254,24.791604 382.78351,7.8824955 340.5918,6.5976562 Z m -1.32618,45.2011718 c 30.89477,0.927771 61.23512,13.354259 84.40821,36.527344 41.19659,41.196598 48.42645,105.047318 17.47265,154.390628 -30.95418,49.34392 -91.59977,70.63517 -146.61523,51.4707 a 22.669618,22.669618 0 0 0 -23.48438,5.37891 l -18.45117,18.45117 a 22.669618,22.669618 0 0 0 -0.002,0.002 c -4.25612,4.2574 -10.00543,6.6413 -16.02539,6.64258 h -3.89453 c -24.76915,0 -45.33594,20.56483 -45.33594,45.33398 v 22.66797 h -22.66602 c -24.76915,0 -45.33593,20.56484 -45.33593,45.33399 v 22.66797 H 51.333984 v -49.22852 -0.006 c 0.0028,-6.01782 2.386569,-11.76676 6.642578,-16.02148 a 22.669618,22.669618 0 0 0 0.002,-0.002 L 212.43359,240.95312 a 22.669618,22.669618 0 0 0 5.37891,-23.48437 C 198.64803,162.45329 219.93928,101.8077 269.2832,70.853516 290.8709,57.311231 315.23637,51.077228 339.26562,51.798828 Z" />
</svg>
