<svg width="512" height="512" viewBox="0 0 512 512" version="1.1" xmlns="http://www.w3.org/2000/svg">
  <path fill="currentColor" d="M 56.000002,6 H 456 a 50.000001,50.000001 0 0 1 50,50.000002 V 356 a 50.000001,50.000001 0 0 1 -50,50.00001 H 356 L 256,506 156,406.00001 H 56.000002 A 50.000001,50.000001 0 0 1 6,356 V 56.000002 A 50.000001,50.000001 0 0 1 56.000002,6 m 0,50.000002 V 356 H 176.75001 L 256,435.25003 335.24998,356 H 456 V 56.000002 Z M 106,131 h 300.00001 v 49.99999 H 106 Z m 0,99.99999 h 250 v 50.00002 H 106 Z" />
</svg>
