<svg width="512" height="512" viewBox="0 0 512 512" version="1.1" xmlns="http://www.w3.org/2000/svg">
  <path fill="currentColor" d="M 239.33333,71 A 16.666666,16.666666 0 0 1 256,54.333333 H 489.33333 A 16.666666,16.666666 0 0 1 506,71 v 33.33333 A 16.666666,16.666666 0 0 1 489.33333,121 H 256 A 16.666666,16.666666 0 0 1 239.33333,104.33333 Z M 6.000002,387.66667 a 100,100 0 1 1 199.999998,0 100,100 0 0 1 -199.999998,0 m 233.333328,-50 A 16.666666,16.666666 0 0 1 256,320.99999 H 489.33333 A 16.666666,16.666666 0 0 1 506,337.66667 V 371 a 16.666666,16.666666 0 0 1 -16.66667,16.66667 H 256 A 16.666666,16.666666 0 0 1 239.33333,371 Z m 0,-166.66666 A 16.666666,16.666666 0 0 1 256,154.33333 h 166.66667 a 16.666666,16.666666 0 0 1 0,33.33333 H 256 a 16.666666,16.666666 0 0 1 -16.66667,-16.66665 m 0,266.66666 A 16.666666,16.666666 0 0 1 256,421 h 166.66667 a 16.666668,16.666668 0 0 1 0,33.33333 H 256 A 16.666666,16.666666 0 0 1 239.33333,437.66667 M 106,21 a 100,100 0 1 0 0,200 100,100 0 0 0 0,-200 m 0,150.00001 A 50.000005,50.000005 0 1 1 106,71 a 50.000005,50.000005 0 0 1 0,100.00001" />
</svg>
